  999
DXF file created by gear template generator. 2019-07-05T13:34:36
  999
G2:Toothspacing=1.05  Teeth=12  Spur gear  Angle=20.0  Addendum=.3
  0
SECTION
  2
HEADER
  9
$MEASUREMENT
  70
1
  0
ENDSEC
  0
SECTION
  2
TABLES
  0
TABLE
  2
LTYPE
  70
1
  0
LTYPE
  2
Continuous
  3
_
  70
0
  72
65
  73
0
  40
0.0
  0
ENDTAB
  0
TABLE
  2
LAYER
  70
4
  0
LAYER
  2
profile
  70
0
  62
7
  6
Continuous
  0
LAYER
  2
construction
  70
0
  62
5
  6
Continuous
  0
LAYER
  2
grid
  70
0
  62
3
  6
Continuous
  0
LAYER
  2
labels
  70
0
  62
1
  6
Continuous
  0
ENDTAB
  0
TABLE
  2
STYLE
  70
1
  0
STYLE
  2
ARIAL
  3
Arial.ttf
  70
0
  40
0.0
  41
1.0
  50
0.0
  71
0
  42
1.0
  0
ENDTAB
  0
ENDSEC
  0
SECTION
  2
ENTITIES
 0
LINE
 8
b
 10
0.35594
 20
0
 30
0
 11
0.35594
 21
4.71188
 31
 0
 0
LINE
 8
b
 10
1.35594
 20
0
 30
0
 11
1.35594
 21
4.71188
 31
 0
 0
LINE
 8
b
 10
2.35594
 20
0
 30
0
 11
2.35594
 21
4.71188
 31
 0
 0
LINE
 8
b
 10
3.35594
 20
0
 30
0
 11
3.35594
 21
4.71188
 31
 0
 0
LINE
 8
b
 10
4.35594
 20
0
 30
0
 11
4.35594
 21
4.71188
 31
 0
 0
LINE
 8
b
 10
0
 20
0.35594
 30
0
 11
4.71188
 21
0.35594
 31
 0
 0
LINE
 8
b
 10
0
 20
1.35594
 30
0
 11
4.71188
 21
1.35594
 31
 0
 0
LINE
 8
b
 10
0
 20
2.35594
 30
0
 11
4.71188
 21
2.35594
 31
 0
 0
LINE
 8
b
 10
0
 20
3.35594
 30
0
 11
4.71188
 21
3.35594
 31
 0
 0
LINE
 8
b
 10
0
 20
4.35594
 30
0
 11
4.71188
 21
4.35594
 31
 0
  0
POLYLINE
  8
a
  66
1
  10
0.0
  20
0.0
  70
1
  0
VERTEX
  8
a
  10
0.62522
  20
2.51705
  30
0.0
  70
0
  0
VERTEX
  8
a
  10
0.61695
  20
2.53798
  30
0.0
  70
0
  0
VERTEX
  8
a
  10
0.60749
  20
2.54633
  30
0.0
  70
0
  0
VERTEX
  8
a
  10
0.59779
  20
2.55237
  30
0.0
  70
0
  0
VERTEX
  8
a
  10
0.58797
  20
2.55711
  30
0.0
  70
0
  0
VERTEX
  8
a
  10
0.57804
  20
2.56095
  30
0.0
  70
0
  0
VERTEX
  8
a
  10
0.55798
  20
2.56669
  30
0.0
  70
0
  0
VERTEX
  8
a
  10
0.5377
  20
2.57051
  30
0.0
  70
0
  0
VERTEX
  8
a
  10
0.51724
  20
2.57286
  30
0.0
  70
0
  0
VERTEX
  8
a
  10
0.49664
  20
2.57398
  30
0.0
  70
0
  0
VERTEX
  8
a
  10
0.45608
  20
2.58166
  30
0.0
  70
0
  0
VERTEX
  8
a
  10
0.41639
  20
2.59647
  30
0.0
  70
0
  0
VERTEX
  8
a
  10
0.37722
  20
2.61485
  30
0.0
  70
0
  0
VERTEX
  8
a
  10
0.33854
  20
2.63619
  30
0.0
  70
0
  0
VERTEX
  8
a
  10
0.30038
  20
2.66018
  30
0.0
  70
0
  0
VERTEX
  8
a
  10
0.26276
  20
2.68662
  30
0.0
  70
0
  0
VERTEX
  8
a
  10
0.22573
  20
2.71538
  30
0.0
  70
0
  0
VERTEX
  8
a
  10
0.18933
  20
2.74633
  30
0.0
  70
0
  0
VERTEX
  8
a
  10
0.15359
  20
2.77941
  30
0.0
  70
0
  0
VERTEX
  8
a
  10
0.11858
  20
2.81453
  30
0.0
  70
0
  0
VERTEX
  8
a
  10
0.08434
  20
2.85164
  30
0.0
  70
0
  0
VERTEX
  8
a
  10
0.0592
  20
2.88075
  30
0.0
  70
0
  0
VERTEX
  8
a
  10
0.1045
  20
3.04982
  30
0.0
  70
0
  0
VERTEX
  8
a
  10
0.14083
  20
3.06245
  30
0.0
  70
0
  0
VERTEX
  8
a
  10
0.18904
  20
3.07747
  30
0.0
  70
0
  0
VERTEX
  8
a
  10
0.23692
  20
3.09038
  30
0.0
  70
0
  0
VERTEX
  8
a
  10
0.2844
  20
3.10116
  30
0.0
  70
0
  0
VERTEX
  8
a
  10
0.33141
  20
3.10977
  30
0.0
  70
0
  0
VERTEX
  8
a
  10
0.37785
  20
3.11616
  30
0.0
  70
0
  0
VERTEX
  8
a
  10
0.42365
  20
3.12025
  30
0.0
  70
0
  0
VERTEX
  8
a
  10
0.4687
  20
3.12195
  30
0.0
  70
0
  0
VERTEX
  8
a
  10
0.51286
  20
3.12109
  30
0.0
  70
0
  0
VERTEX
  8
a
  10
0.55598
  20
3.11741
  30
0.0
  70
0
  0
VERTEX
  8
a
  10
0.59775
  20
3.11039
  30
0.0
  70
0
  0
VERTEX
  8
a
  10
0.63672
  20
3.09677
  30
0.0
  70
0
  0
VERTEX
  8
a
  10
0.65512
  20
3.08744
  30
0.0
  70
0
  0
VERTEX
  8
a
  10
0.67401
  20
3.07924
  30
0.0
  70
0
  0
VERTEX
  8
a
  10
0.69349
  20
3.07241
  30
0.0
  70
0
  0
VERTEX
  8
a
  10
0.71373
  20
3.06735
  30
0.0
  70
0
  0
VERTEX
  8
a
  10
0.72425
  20
3.06571
  30
0.0
  70
0
  0
VERTEX
  8
a
  10
0.73513
  20
3.0649
  30
0.0
  70
0
  0
VERTEX
  8
a
  10
0.74654
  20
3.06529
  30
0.0
  70
0
  0
VERTEX
  8
a
  10
0.75891
  20
3.06779
  30
0.0
  70
0
  0
VERTEX
  8
a
  10
0.77654
  20
3.08178
  30
0.0
  70
0
  0
VERTEX
  8
a
  10
0.93765
  20
3.36082
  30
0.0
  70
0
  0
VERTEX
  8
a
  10
0.94095
  20
3.38308
  30
0.0
  70
0
  0
VERTEX
  8
a
  10
0.93693
  20
3.39506
  30
0.0
  70
0
  0
VERTEX
  8
a
  10
0.93156
  20
3.40513
  30
0.0
  70
0
  0
VERTEX
  8
a
  10
0.92541
  20
3.41415
  30
0.0
  70
0
  0
VERTEX
  8
a
  10
0.91874
  20
3.42243
  30
0.0
  70
0
  0
VERTEX
  8
a
  10
0.90423
  20
3.43743
  30
0.0
  70
0
  0
VERTEX
  8
a
  10
0.88858
  20
3.45089
  30
0.0
  70
0
  0
VERTEX
  8
a
  10
0.87204
  20
3.46315
  30
0.0
  70
0
  0
VERTEX
  8
a
  10
0.85476
  20
3.47442
  30
0.0
  70
0
  0
VERTEX
  8
a
  10
0.82347
  20
3.50136
  30
0.0
  70
0
  0
VERTEX
  8
a
  10
0.79651
  20
3.53402
  30
0.0
  70
0
  0
VERTEX
  8
a
  10
0.77177
  20
3.56952
  30
0.0
  70
0
  0
VERTEX
  8
a
  10
0.74894
  20
3.60734
  30
0.0
  70
0
  0
VERTEX
  8
a
  10
0.72789
  20
3.6472
  30
0.0
  70
0
  0
VERTEX
  8
a
  10
0.70853
  20
3.68891
  30
0.0
  70
0
  0
VERTEX
  8
a
  10
0.69084
  20
3.73233
  30
0.0
  70
0
  0
VERTEX
  8
a
  10
0.67479
  20
3.77734
  30
0.0
  70
0
  0
VERTEX
  8
a
  10
0.66039
  20
3.82385
  30
0.0
  70
0
  0
VERTEX
  8
a
  10
0.64763
  20
3.87177
  30
0.0
  70
0
  0
VERTEX
  8
a
  10
0.63653
  20
3.92103
  30
0.0
  70
0
  0
VERTEX
  8
a
  10
0.6293
  20
3.95881
  30
0.0
  70
0
  0
VERTEX
  8
a
  10
0.75308
  20
4.08258
  30
0.0
  70
0
  0
VERTEX
  8
a
  10
0.79086
  20
4.07536
  30
0.0
  70
0
  0
VERTEX
  8
a
  10
0.84011
  20
4.06426
  30
0.0
  70
0
  0
VERTEX
  8
a
  10
0.88804
  20
4.0515
  30
0.0
  70
0
  0
VERTEX
  8
a
  10
0.93455
  20
4.03709
  30
0.0
  70
0
  0
VERTEX
  8
a
  10
0.97956
  20
4.02104
  30
0.0
  70
0
  0
VERTEX
  8
a
  10
1.02297
  20
4.00335
  30
0.0
  70
0
  0
VERTEX
  8
a
  10
1.06468
  20
3.984
  30
0.0
  70
0
  0
VERTEX
  8
a
  10
1.10454
  20
3.96294
  30
0.0
  70
0
  0
VERTEX
  8
a
  10
1.14236
  20
3.94012
  30
0.0
  70
0
  0
VERTEX
  8
a
  10
1.17786
  20
3.91538
  30
0.0
  70
0
  0
VERTEX
  8
a
  10
1.21053
  20
3.88841
  30
0.0
  70
0
  0
VERTEX
  8
a
  10
1.23747
  20
3.85713
  30
0.0
  70
0
  0
VERTEX
  8
a
  10
1.24874
  20
3.83985
  30
0.0
  70
0
  0
VERTEX
  8
a
  10
1.261
  20
3.8233
  30
0.0
  70
0
  0
VERTEX
  8
a
  10
1.27445
  20
3.80765
  30
0.0
  70
0
  0
VERTEX
  8
a
  10
1.28945
  20
3.79315
  30
0.0
  70
0
  0
VERTEX
  8
a
  10
1.29774
  20
3.78647
  30
0.0
  70
0
  0
VERTEX
  8
a
  10
1.30675
  20
3.78033
  30
0.0
  70
0
  0
VERTEX
  8
a
  10
1.31683
  20
3.77495
  30
0.0
  70
0
  0
VERTEX
  8
a
  10
1.3288
  20
3.77094
  30
0.0
  70
0
  0
VERTEX
  8
a
  10
1.35106
  20
3.77424
  30
0.0
  70
0
  0
VERTEX
  8
a
  10
1.63011
  20
3.93534
  30
0.0
  70
0
  0
VERTEX
  8
a
  10
1.64409
  20
3.95297
  30
0.0
  70
0
  0
VERTEX
  8
a
  10
1.6466
  20
3.96535
  30
0.0
  70
0
  0
VERTEX
  8
a
  10
1.64698
  20
3.97676
  30
0.0
  70
0
  0
VERTEX
  8
a
  10
1.64617
  20
3.98764
  30
0.0
  70
0
  0
VERTEX
  8
a
  10
1.64453
  20
3.99815
  30
0.0
  70
0
  0
VERTEX
  8
a
  10
1.63947
  20
4.0184
  30
0.0
  70
0
  0
VERTEX
  8
a
  10
1.63264
  20
4.03787
  30
0.0
  70
0
  0
VERTEX
  8
a
  10
1.62445
  20
4.05676
  30
0.0
  70
0
  0
VERTEX
  8
a
  10
1.61511
  20
4.07516
  30
0.0
  70
0
  0
VERTEX
  8
a
  10
1.60149
  20
4.11414
  30
0.0
  70
0
  0
VERTEX
  8
a
  10
1.59447
  20
4.15591
  30
0.0
  70
0
  0
VERTEX
  8
a
  10
1.5908
  20
4.19902
  30
0.0
  70
0
  0
VERTEX
  8
a
  10
1.58994
  20
4.24319
  30
0.0
  70
0
  0
VERTEX
  8
a
  10
1.59164
  20
4.28823
  30
0.0
  70
0
  0
VERTEX
  8
a
  10
1.59573
  20
4.33403
  30
0.0
  70
0
  0
VERTEX
  8
a
  10
1.60211
  20
4.38048
  30
0.0
  70
0
  0
VERTEX
  8
a
  10
1.61072
  20
4.42748
  30
0.0
  70
0
  0
VERTEX
  8
a
  10
1.6215
  20
4.47496
  30
0.0
  70
0
  0
VERTEX
  8
a
  10
1.63441
  20
4.52285
  30
0.0
  70
0
  0
VERTEX
  8
a
  10
1.64943
  20
4.57105
  30
0.0
  70
0
  0
VERTEX
  8
a
  10
1.66206
  20
4.60739
  30
0.0
  70
0
  0
VERTEX
  8
a
  10
1.83114
  20
4.65269
  30
0.0
  70
0
  0
VERTEX
  8
a
  10
1.86024
  20
4.62754
  30
0.0
  70
0
  0
VERTEX
  8
a
  10
1.89735
  20
4.5933
  30
0.0
  70
0
  0
VERTEX
  8
a
  10
1.93248
  20
4.55829
  30
0.0
  70
0
  0
VERTEX
  8
a
  10
1.96555
  20
4.52256
  30
0.0
  70
0
  0
VERTEX
  8
a
  10
1.99651
  20
4.48616
  30
0.0
  70
0
  0
VERTEX
  8
a
  10
2.02526
  20
4.44912
  30
0.0
  70
0
  0
VERTEX
  8
a
  10
2.05171
  20
4.41151
  30
0.0
  70
0
  0
VERTEX
  8
a
  10
2.0757
  20
4.37335
  30
0.0
  70
0
  0
VERTEX
  8
a
  10
2.09704
  20
4.33467
  30
0.0
  70
0
  0
VERTEX
  8
a
  10
2.11541
  20
4.2955
  30
0.0
  70
0
  0
VERTEX
  8
a
  10
2.13022
  20
4.25581
  30
0.0
  70
0
  0
VERTEX
  8
a
  10
2.13791
  20
4.21525
  30
0.0
  70
0
  0
VERTEX
  8
a
  10
2.13903
  20
4.19464
  30
0.0
  70
0
  0
VERTEX
  8
a
  10
2.14137
  20
4.17419
  30
0.0
  70
0
  0
VERTEX
  8
a
  10
2.1452
  20
4.1539
  30
0.0
  70
0
  0
VERTEX
  8
a
  10
2.15094
  20
4.13384
  30
0.0
  70
0
  0
VERTEX
  8
a
  10
2.15477
  20
4.12392
  30
0.0
  70
0
  0
VERTEX
  8
a
  10
2.15951
  20
4.11409
  30
0.0
  70
0
  0
VERTEX
  8
a
  10
2.16555
  20
4.1044
  30
0.0
  70
0
  0
VERTEX
  8
a
  10
2.17391
  20
4.09494
  30
0.0
  70
0
  0
VERTEX
  8
a
  10
2.19484
  20
4.08666
  30
0.0
  70
0
  0
VERTEX
  8
a
  10
2.51705
  20
4.08666
  30
0.0
  70
0
  0
VERTEX
  8
a
  10
2.53798
  20
4.09494
  30
0.0
  70
0
  0
VERTEX
  8
a
  10
2.54633
  20
4.1044
  30
0.0
  70
0
  0
VERTEX
  8
a
  10
2.55237
  20
4.11409
  30
0.0
  70
0
  0
VERTEX
  8
a
  10
2.55711
  20
4.12392
  30
0.0
  70
0
  0
VERTEX
  8
a
  10
2.56095
  20
4.13384
  30
0.0
  70
0
  0
VERTEX
  8
a
  10
2.56669
  20
4.1539
  30
0.0
  70
0
  0
VERTEX
  8
a
  10
2.57051
  20
4.17419
  30
0.0
  70
0
  0
VERTEX
  8
a
  10
2.57286
  20
4.19464
  30
0.0
  70
0
  0
VERTEX
  8
a
  10
2.57398
  20
4.21525
  30
0.0
  70
0
  0
VERTEX
  8
a
  10
2.58166
  20
4.25581
  30
0.0
  70
0
  0
VERTEX
  8
a
  10
2.59647
  20
4.2955
  30
0.0
  70
0
  0
VERTEX
  8
a
  10
2.61485
  20
4.33467
  30
0.0
  70
0
  0
VERTEX
  8
a
  10
2.63619
  20
4.37335
  30
0.0
  70
0
  0
VERTEX
  8
a
  10
2.66018
  20
4.41151
  30
0.0
  70
0
  0
VERTEX
  8
a
  10
2.68662
  20
4.44912
  30
0.0
  70
0
  0
VERTEX
  8
a
  10
2.71538
  20
4.48616
  30
0.0
  70
0
  0
VERTEX
  8
a
  10
2.74633
  20
4.52256
  30
0.0
  70
0
  0
VERTEX
  8
a
  10
2.77941
  20
4.55829
  30
0.0
  70
0
  0
VERTEX
  8
a
  10
2.81453
  20
4.5933
  30
0.0
  70
0
  0
VERTEX
  8
a
  10
2.85164
  20
4.62754
  30
0.0
  70
0
  0
VERTEX
  8
a
  10
2.88075
  20
4.65269
  30
0.0
  70
0
  0
VERTEX
  8
a
  10
3.04982
  20
4.60739
  30
0.0
  70
0
  0
VERTEX
  8
a
  10
3.06245
  20
4.57105
  30
0.0
  70
0
  0
VERTEX
  8
a
  10
3.07747
  20
4.52285
  30
0.0
  70
0
  0
VERTEX
  8
a
  10
3.09038
  20
4.47496
  30
0.0
  70
0
  0
VERTEX
  8
a
  10
3.10116
  20
4.42748
  30
0.0
  70
0
  0
VERTEX
  8
a
  10
3.10977
  20
4.38048
  30
0.0
  70
0
  0
VERTEX
  8
a
  10
3.11616
  20
4.33403
  30
0.0
  70
0
  0
VERTEX
  8
a
  10
3.12025
  20
4.28823
  30
0.0
  70
0
  0
VERTEX
  8
a
  10
3.12195
  20
4.24319
  30
0.0
  70
0
  0
VERTEX
  8
a
  10
3.12109
  20
4.19902
  30
0.0
  70
0
  0
VERTEX
  8
a
  10
3.11741
  20
4.15591
  30
0.0
  70
0
  0
VERTEX
  8
a
  10
3.11039
  20
4.11414
  30
0.0
  70
0
  0
VERTEX
  8
a
  10
3.09677
  20
4.07516
  30
0.0
  70
0
  0
VERTEX
  8
a
  10
3.08744
  20
4.05676
  30
0.0
  70
0
  0
VERTEX
  8
a
  10
3.07924
  20
4.03787
  30
0.0
  70
0
  0
VERTEX
  8
a
  10
3.07241
  20
4.0184
  30
0.0
  70
0
  0
VERTEX
  8
a
  10
3.06735
  20
3.99815
  30
0.0
  70
0
  0
VERTEX
  8
a
  10
3.06571
  20
3.98764
  30
0.0
  70
0
  0
VERTEX
  8
a
  10
3.0649
  20
3.97676
  30
0.0
  70
0
  0
VERTEX
  8
a
  10
3.06529
  20
3.96535
  30
0.0
  70
0
  0
VERTEX
  8
a
  10
3.06779
  20
3.95297
  30
0.0
  70
0
  0
VERTEX
  8
a
  10
3.08178
  20
3.93534
  30
0.0
  70
0
  0
VERTEX
  8
a
  10
3.36082
  20
3.77424
  30
0.0
  70
0
  0
VERTEX
  8
a
  10
3.38308
  20
3.77094
  30
0.0
  70
0
  0
VERTEX
  8
a
  10
3.39506
  20
3.77495
  30
0.0
  70
0
  0
VERTEX
  8
a
  10
3.40513
  20
3.78033
  30
0.0
  70
0
  0
VERTEX
  8
a
  10
3.41415
  20
3.78647
  30
0.0
  70
0
  0
VERTEX
  8
a
  10
3.42243
  20
3.79315
  30
0.0
  70
0
  0
VERTEX
  8
a
  10
3.43743
  20
3.80765
  30
0.0
  70
0
  0
VERTEX
  8
a
  10
3.45089
  20
3.8233
  30
0.0
  70
0
  0
VERTEX
  8
a
  10
3.46315
  20
3.83985
  30
0.0
  70
0
  0
VERTEX
  8
a
  10
3.47442
  20
3.85713
  30
0.0
  70
0
  0
VERTEX
  8
a
  10
3.50136
  20
3.88841
  30
0.0
  70
0
  0
VERTEX
  8
a
  10
3.53402
  20
3.91538
  30
0.0
  70
0
  0
VERTEX
  8
a
  10
3.56952
  20
3.94012
  30
0.0
  70
0
  0
VERTEX
  8
a
  10
3.60734
  20
3.96294
  30
0.0
  70
0
  0
VERTEX
  8
a
  10
3.6472
  20
3.984
  30
0.0
  70
0
  0
VERTEX
  8
a
  10
3.68891
  20
4.00335
  30
0.0
  70
0
  0
VERTEX
  8
a
  10
3.73233
  20
4.02104
  30
0.0
  70
0
  0
VERTEX
  8
a
  10
3.77734
  20
4.03709
  30
0.0
  70
0
  0
VERTEX
  8
a
  10
3.82385
  20
4.0515
  30
0.0
  70
0
  0
VERTEX
  8
a
  10
3.87177
  20
4.06426
  30
0.0
  70
0
  0
VERTEX
  8
a
  10
3.92103
  20
4.07536
  30
0.0
  70
0
  0
VERTEX
  8
a
  10
3.95881
  20
4.08258
  30
0.0
  70
0
  0
VERTEX
  8
a
  10
4.08258
  20
3.95881
  30
0.0
  70
0
  0
VERTEX
  8
a
  10
4.07536
  20
3.92103
  30
0.0
  70
0
  0
VERTEX
  8
a
  10
4.06426
  20
3.87177
  30
0.0
  70
0
  0
VERTEX
  8
a
  10
4.0515
  20
3.82385
  30
0.0
  70
0
  0
VERTEX
  8
a
  10
4.03709
  20
3.77734
  30
0.0
  70
0
  0
VERTEX
  8
a
  10
4.02104
  20
3.73233
  30
0.0
  70
0
  0
VERTEX
  8
a
  10
4.00335
  20
3.68891
  30
0.0
  70
0
  0
VERTEX
  8
a
  10
3.984
  20
3.6472
  30
0.0
  70
0
  0
VERTEX
  8
a
  10
3.96294
  20
3.60734
  30
0.0
  70
0
  0
VERTEX
  8
a
  10
3.94012
  20
3.56952
  30
0.0
  70
0
  0
VERTEX
  8
a
  10
3.91538
  20
3.53402
  30
0.0
  70
0
  0
VERTEX
  8
a
  10
3.88841
  20
3.50136
  30
0.0
  70
0
  0
VERTEX
  8
a
  10
3.85713
  20
3.47442
  30
0.0
  70
0
  0
VERTEX
  8
a
  10
3.83985
  20
3.46315
  30
0.0
  70
0
  0
VERTEX
  8
a
  10
3.8233
  20
3.45089
  30
0.0
  70
0
  0
VERTEX
  8
a
  10
3.80765
  20
3.43743
  30
0.0
  70
0
  0
VERTEX
  8
a
  10
3.79315
  20
3.42243
  30
0.0
  70
0
  0
VERTEX
  8
a
  10
3.78647
  20
3.41415
  30
0.0
  70
0
  0
VERTEX
  8
a
  10
3.78033
  20
3.40513
  30
0.0
  70
0
  0
VERTEX
  8
a
  10
3.77495
  20
3.39506
  30
0.0
  70
0
  0
VERTEX
  8
a
  10
3.77094
  20
3.38308
  30
0.0
  70
0
  0
VERTEX
  8
a
  10
3.77424
  20
3.36082
  30
0.0
  70
0
  0
VERTEX
  8
a
  10
3.93534
  20
3.08178
  30
0.0
  70
0
  0
VERTEX
  8
a
  10
3.95297
  20
3.06779
  30
0.0
  70
0
  0
VERTEX
  8
a
  10
3.96535
  20
3.06529
  30
0.0
  70
0
  0
VERTEX
  8
a
  10
3.97676
  20
3.0649
  30
0.0
  70
0
  0
VERTEX
  8
a
  10
3.98764
  20
3.06571
  30
0.0
  70
0
  0
VERTEX
  8
a
  10
3.99815
  20
3.06735
  30
0.0
  70
0
  0
VERTEX
  8
a
  10
4.0184
  20
3.07241
  30
0.0
  70
0
  0
VERTEX
  8
a
  10
4.03787
  20
3.07924
  30
0.0
  70
0
  0
VERTEX
  8
a
  10
4.05676
  20
3.08744
  30
0.0
  70
0
  0
VERTEX
  8
a
  10
4.07516
  20
3.09677
  30
0.0
  70
0
  0
VERTEX
  8
a
  10
4.11414
  20
3.11039
  30
0.0
  70
0
  0
VERTEX
  8
a
  10
4.15591
  20
3.11741
  30
0.0
  70
0
  0
VERTEX
  8
a
  10
4.19902
  20
3.12109
  30
0.0
  70
0
  0
VERTEX
  8
a
  10
4.24319
  20
3.12195
  30
0.0
  70
0
  0
VERTEX
  8
a
  10
4.28823
  20
3.12025
  30
0.0
  70
0
  0
VERTEX
  8
a
  10
4.33403
  20
3.11616
  30
0.0
  70
0
  0
VERTEX
  8
a
  10
4.38048
  20
3.10977
  30
0.0
  70
0
  0
VERTEX
  8
a
  10
4.42748
  20
3.10116
  30
0.0
  70
0
  0
VERTEX
  8
a
  10
4.47496
  20
3.09038
  30
0.0
  70
0
  0
VERTEX
  8
a
  10
4.52285
  20
3.07747
  30
0.0
  70
0
  0
VERTEX
  8
a
  10
4.57105
  20
3.06245
  30
0.0
  70
0
  0
VERTEX
  8
a
  10
4.60739
  20
3.04982
  30
0.0
  70
0
  0
VERTEX
  8
a
  10
4.65269
  20
2.88075
  30
0.0
  70
0
  0
VERTEX
  8
a
  10
4.62754
  20
2.85164
  30
0.0
  70
0
  0
VERTEX
  8
a
  10
4.5933
  20
2.81453
  30
0.0
  70
0
  0
VERTEX
  8
a
  10
4.55829
  20
2.77941
  30
0.0
  70
0
  0
VERTEX
  8
a
  10
4.52256
  20
2.74633
  30
0.0
  70
0
  0
VERTEX
  8
a
  10
4.48616
  20
2.71538
  30
0.0
  70
0
  0
VERTEX
  8
a
  10
4.44912
  20
2.68662
  30
0.0
  70
0
  0
VERTEX
  8
a
  10
4.41151
  20
2.66018
  30
0.0
  70
0
  0
VERTEX
  8
a
  10
4.37335
  20
2.63619
  30
0.0
  70
0
  0
VERTEX
  8
a
  10
4.33467
  20
2.61485
  30
0.0
  70
0
  0
VERTEX
  8
a
  10
4.2955
  20
2.59647
  30
0.0
  70
0
  0
VERTEX
  8
a
  10
4.25581
  20
2.58166
  30
0.0
  70
0
  0
VERTEX
  8
a
  10
4.21525
  20
2.57398
  30
0.0
  70
0
  0
VERTEX
  8
a
  10
4.19464
  20
2.57286
  30
0.0
  70
0
  0
VERTEX
  8
a
  10
4.17419
  20
2.57051
  30
0.0
  70
0
  0
VERTEX
  8
a
  10
4.1539
  20
2.56669
  30
0.0
  70
0
  0
VERTEX
  8
a
  10
4.13384
  20
2.56095
  30
0.0
  70
0
  0
VERTEX
  8
a
  10
4.12392
  20
2.55711
  30
0.0
  70
0
  0
VERTEX
  8
a
  10
4.11409
  20
2.55237
  30
0.0
  70
0
  0
VERTEX
  8
a
  10
4.1044
  20
2.54633
  30
0.0
  70
0
  0
VERTEX
  8
a
  10
4.09494
  20
2.53798
  30
0.0
  70
0
  0
VERTEX
  8
a
  10
4.08666
  20
2.51705
  30
0.0
  70
0
  0
VERTEX
  8
a
  10
4.08666
  20
2.19484
  30
0.0
  70
0
  0
VERTEX
  8
a
  10
4.09494
  20
2.17391
  30
0.0
  70
0
  0
VERTEX
  8
a
  10
4.1044
  20
2.16555
  30
0.0
  70
0
  0
VERTEX
  8
a
  10
4.11409
  20
2.15951
  30
0.0
  70
0
  0
VERTEX
  8
a
  10
4.12392
  20
2.15477
  30
0.0
  70
0
  0
VERTEX
  8
a
  10
4.13384
  20
2.15094
  30
0.0
  70
0
  0
VERTEX
  8
a
  10
4.1539
  20
2.1452
  30
0.0
  70
0
  0
VERTEX
  8
a
  10
4.17419
  20
2.14137
  30
0.0
  70
0
  0
VERTEX
  8
a
  10
4.19464
  20
2.13903
  30
0.0
  70
0
  0
VERTEX
  8
a
  10
4.21525
  20
2.13791
  30
0.0
  70
0
  0
VERTEX
  8
a
  10
4.25581
  20
2.13022
  30
0.0
  70
0
  0
VERTEX
  8
a
  10
4.2955
  20
2.11541
  30
0.0
  70
0
  0
VERTEX
  8
a
  10
4.33467
  20
2.09704
  30
0.0
  70
0
  0
VERTEX
  8
a
  10
4.37335
  20
2.0757
  30
0.0
  70
0
  0
VERTEX
  8
a
  10
4.41151
  20
2.05171
  30
0.0
  70
0
  0
VERTEX
  8
a
  10
4.44912
  20
2.02526
  30
0.0
  70
0
  0
VERTEX
  8
a
  10
4.48616
  20
1.99651
  30
0.0
  70
0
  0
VERTEX
  8
a
  10
4.52256
  20
1.96555
  30
0.0
  70
0
  0
VERTEX
  8
a
  10
4.55829
  20
1.93248
  30
0.0
  70
0
  0
VERTEX
  8
a
  10
4.5933
  20
1.89735
  30
0.0
  70
0
  0
VERTEX
  8
a
  10
4.62754
  20
1.86024
  30
0.0
  70
0
  0
VERTEX
  8
a
  10
4.65269
  20
1.83114
  30
0.0
  70
0
  0
VERTEX
  8
a
  10
4.60739
  20
1.66206
  30
0.0
  70
0
  0
VERTEX
  8
a
  10
4.57105
  20
1.64943
  30
0.0
  70
0
  0
VERTEX
  8
a
  10
4.52285
  20
1.63441
  30
0.0
  70
0
  0
VERTEX
  8
a
  10
4.47496
  20
1.6215
  30
0.0
  70
0
  0
VERTEX
  8
a
  10
4.42748
  20
1.61072
  30
0.0
  70
0
  0
VERTEX
  8
a
  10
4.38048
  20
1.60211
  30
0.0
  70
0
  0
VERTEX
  8
a
  10
4.33403
  20
1.59573
  30
0.0
  70
0
  0
VERTEX
  8
a
  10
4.28823
  20
1.59164
  30
0.0
  70
0
  0
VERTEX
  8
a
  10
4.24319
  20
1.58994
  30
0.0
  70
0
  0
VERTEX
  8
a
  10
4.19902
  20
1.5908
  30
0.0
  70
0
  0
VERTEX
  8
a
  10
4.15591
  20
1.59447
  30
0.0
  70
0
  0
VERTEX
  8
a
  10
4.11414
  20
1.60149
  30
0.0
  70
0
  0
VERTEX
  8
a
  10
4.07516
  20
1.61511
  30
0.0
  70
0
  0
VERTEX
  8
a
  10
4.05676
  20
1.62445
  30
0.0
  70
0
  0
VERTEX
  8
a
  10
4.03787
  20
1.63264
  30
0.0
  70
0
  0
VERTEX
  8
a
  10
4.0184
  20
1.63947
  30
0.0
  70
0
  0
VERTEX
  8
a
  10
3.99815
  20
1.64453
  30
0.0
  70
0
  0
VERTEX
  8
a
  10
3.98764
  20
1.64617
  30
0.0
  70
0
  0
VERTEX
  8
a
  10
3.97676
  20
1.64698
  30
0.0
  70
0
  0
VERTEX
  8
a
  10
3.96535
  20
1.6466
  30
0.0
  70
0
  0
VERTEX
  8
a
  10
3.95297
  20
1.64409
  30
0.0
  70
0
  0
VERTEX
  8
a
  10
3.93534
  20
1.63011
  30
0.0
  70
0
  0
VERTEX
  8
a
  10
3.77424
  20
1.35106
  30
0.0
  70
0
  0
VERTEX
  8
a
  10
3.77094
  20
1.3288
  30
0.0
  70
0
  0
VERTEX
  8
a
  10
3.77495
  20
1.31683
  30
0.0
  70
0
  0
VERTEX
  8
a
  10
3.78033
  20
1.30675
  30
0.0
  70
0
  0
VERTEX
  8
a
  10
3.78647
  20
1.29774
  30
0.0
  70
0
  0
VERTEX
  8
a
  10
3.79315
  20
1.28945
  30
0.0
  70
0
  0
VERTEX
  8
a
  10
3.80765
  20
1.27445
  30
0.0
  70
0
  0
VERTEX
  8
a
  10
3.8233
  20
1.261
  30
0.0
  70
0
  0
VERTEX
  8
a
  10
3.83985
  20
1.24874
  30
0.0
  70
0
  0
VERTEX
  8
a
  10
3.85713
  20
1.23747
  30
0.0
  70
0
  0
VERTEX
  8
a
  10
3.88841
  20
1.21053
  30
0.0
  70
0
  0
VERTEX
  8
a
  10
3.91538
  20
1.17786
  30
0.0
  70
0
  0
VERTEX
  8
a
  10
3.94012
  20
1.14236
  30
0.0
  70
0
  0
VERTEX
  8
a
  10
3.96294
  20
1.10454
  30
0.0
  70
0
  0
VERTEX
  8
a
  10
3.984
  20
1.06468
  30
0.0
  70
0
  0
VERTEX
  8
a
  10
4.00335
  20
1.02297
  30
0.0
  70
0
  0
VERTEX
  8
a
  10
4.02104
  20
0.97956
  30
0.0
  70
0
  0
VERTEX
  8
a
  10
4.03709
  20
0.93455
  30
0.0
  70
0
  0
VERTEX
  8
a
  10
4.0515
  20
0.88804
  30
0.0
  70
0
  0
VERTEX
  8
a
  10
4.06426
  20
0.84011
  30
0.0
  70
0
  0
VERTEX
  8
a
  10
4.07536
  20
0.79086
  30
0.0
  70
0
  0
VERTEX
  8
a
  10
4.08258
  20
0.75308
  30
0.0
  70
0
  0
VERTEX
  8
a
  10
3.95881
  20
0.6293
  30
0.0
  70
0
  0
VERTEX
  8
a
  10
3.92103
  20
0.63653
  30
0.0
  70
0
  0
VERTEX
  8
a
  10
3.87177
  20
0.64763
  30
0.0
  70
0
  0
VERTEX
  8
a
  10
3.82385
  20
0.66039
  30
0.0
  70
0
  0
VERTEX
  8
a
  10
3.77734
  20
0.67479
  30
0.0
  70
0
  0
VERTEX
  8
a
  10
3.73233
  20
0.69084
  30
0.0
  70
0
  0
VERTEX
  8
a
  10
3.68891
  20
0.70853
  30
0.0
  70
0
  0
VERTEX
  8
a
  10
3.6472
  20
0.72789
  30
0.0
  70
0
  0
VERTEX
  8
a
  10
3.60734
  20
0.74894
  30
0.0
  70
0
  0
VERTEX
  8
a
  10
3.56952
  20
0.77177
  30
0.0
  70
0
  0
VERTEX
  8
a
  10
3.53402
  20
0.79651
  30
0.0
  70
0
  0
VERTEX
  8
a
  10
3.50136
  20
0.82347
  30
0.0
  70
0
  0
VERTEX
  8
a
  10
3.47442
  20
0.85476
  30
0.0
  70
0
  0
VERTEX
  8
a
  10
3.46315
  20
0.87204
  30
0.0
  70
0
  0
VERTEX
  8
a
  10
3.45089
  20
0.88858
  30
0.0
  70
0
  0
VERTEX
  8
a
  10
3.43743
  20
0.90423
  30
0.0
  70
0
  0
VERTEX
  8
a
  10
3.42243
  20
0.91874
  30
0.0
  70
0
  0
VERTEX
  8
a
  10
3.41415
  20
0.92541
  30
0.0
  70
0
  0
VERTEX
  8
a
  10
3.40513
  20
0.93156
  30
0.0
  70
0
  0
VERTEX
  8
a
  10
3.39506
  20
0.93693
  30
0.0
  70
0
  0
VERTEX
  8
a
  10
3.38308
  20
0.94095
  30
0.0
  70
0
  0
VERTEX
  8
a
  10
3.36082
  20
0.93765
  30
0.0
  70
0
  0
VERTEX
  8
a
  10
3.08178
  20
0.77654
  30
0.0
  70
0
  0
VERTEX
  8
a
  10
3.06779
  20
0.75891
  30
0.0
  70
0
  0
VERTEX
  8
a
  10
3.06529
  20
0.74654
  30
0.0
  70
0
  0
VERTEX
  8
a
  10
3.0649
  20
0.73513
  30
0.0
  70
0
  0
VERTEX
  8
a
  10
3.06571
  20
0.72425
  30
0.0
  70
0
  0
VERTEX
  8
a
  10
3.06735
  20
0.71373
  30
0.0
  70
0
  0
VERTEX
  8
a
  10
3.07241
  20
0.69349
  30
0.0
  70
0
  0
VERTEX
  8
a
  10
3.07924
  20
0.67401
  30
0.0
  70
0
  0
VERTEX
  8
a
  10
3.08744
  20
0.65512
  30
0.0
  70
0
  0
VERTEX
  8
a
  10
3.09677
  20
0.63672
  30
0.0
  70
0
  0
VERTEX
  8
a
  10
3.11039
  20
0.59775
  30
0.0
  70
0
  0
VERTEX
  8
a
  10
3.11741
  20
0.55598
  30
0.0
  70
0
  0
VERTEX
  8
a
  10
3.12109
  20
0.51286
  30
0.0
  70
0
  0
VERTEX
  8
a
  10
3.12195
  20
0.4687
  30
0.0
  70
0
  0
VERTEX
  8
a
  10
3.12025
  20
0.42365
  30
0.0
  70
0
  0
VERTEX
  8
a
  10
3.11616
  20
0.37785
  30
0.0
  70
0
  0
VERTEX
  8
a
  10
3.10977
  20
0.33141
  30
0.0
  70
0
  0
VERTEX
  8
a
  10
3.10116
  20
0.2844
  30
0.0
  70
0
  0
VERTEX
  8
a
  10
3.09038
  20
0.23692
  30
0.0
  70
0
  0
VERTEX
  8
a
  10
3.07747
  20
0.18904
  30
0.0
  70
0
  0
VERTEX
  8
a
  10
3.06245
  20
0.14083
  30
0.0
  70
0
  0
VERTEX
  8
a
  10
3.04982
  20
0.1045
  30
0.0
  70
0
  0
VERTEX
  8
a
  10
2.88075
  20
0.0592
  30
0.0
  70
0
  0
VERTEX
  8
a
  10
2.85164
  20
0.08434
  30
0.0
  70
0
  0
VERTEX
  8
a
  10
2.81453
  20
0.11858
  30
0.0
  70
0
  0
VERTEX
  8
a
  10
2.77941
  20
0.15359
  30
0.0
  70
0
  0
VERTEX
  8
a
  10
2.74633
  20
0.18933
  30
0.0
  70
0
  0
VERTEX
  8
a
  10
2.71538
  20
0.22573
  30
0.0
  70
0
  0
VERTEX
  8
a
  10
2.68662
  20
0.26276
  30
0.0
  70
0
  0
VERTEX
  8
a
  10
2.66018
  20
0.30038
  30
0.0
  70
0
  0
VERTEX
  8
a
  10
2.63619
  20
0.33854
  30
0.0
  70
0
  0
VERTEX
  8
a
  10
2.61485
  20
0.37722
  30
0.0
  70
0
  0
VERTEX
  8
a
  10
2.59647
  20
0.41639
  30
0.0
  70
0
  0
VERTEX
  8
a
  10
2.58166
  20
0.45608
  30
0.0
  70
0
  0
VERTEX
  8
a
  10
2.57398
  20
0.49664
  30
0.0
  70
0
  0
VERTEX
  8
a
  10
2.57286
  20
0.51724
  30
0.0
  70
0
  0
VERTEX
  8
a
  10
2.57051
  20
0.5377
  30
0.0
  70
0
  0
VERTEX
  8
a
  10
2.56669
  20
0.55798
  30
0.0
  70
0
  0
VERTEX
  8
a
  10
2.56095
  20
0.57804
  30
0.0
  70
0
  0
VERTEX
  8
a
  10
2.55711
  20
0.58797
  30
0.0
  70
0
  0
VERTEX
  8
a
  10
2.55237
  20
0.59779
  30
0.0
  70
0
  0
VERTEX
  8
a
  10
2.54633
  20
0.60749
  30
0.0
  70
0
  0
VERTEX
  8
a
  10
2.53798
  20
0.61695
  30
0.0
  70
0
  0
VERTEX
  8
a
  10
2.51705
  20
0.62522
  30
0.0
  70
0
  0
VERTEX
  8
a
  10
2.19484
  20
0.62522
  30
0.0
  70
0
  0
VERTEX
  8
a
  10
2.17391
  20
0.61695
  30
0.0
  70
0
  0
VERTEX
  8
a
  10
2.16555
  20
0.60749
  30
0.0
  70
0
  0
VERTEX
  8
a
  10
2.15951
  20
0.59779
  30
0.0
  70
0
  0
VERTEX
  8
a
  10
2.15477
  20
0.58797
  30
0.0
  70
0
  0
VERTEX
  8
a
  10
2.15094
  20
0.57804
  30
0.0
  70
0
  0
VERTEX
  8
a
  10
2.1452
  20
0.55798
  30
0.0
  70
0
  0
VERTEX
  8
a
  10
2.14137
  20
0.5377
  30
0.0
  70
0
  0
VERTEX
  8
a
  10
2.13903
  20
0.51724
  30
0.0
  70
0
  0
VERTEX
  8
a
  10
2.13791
  20
0.49664
  30
0.0
  70
0
  0
VERTEX
  8
a
  10
2.13022
  20
0.45608
  30
0.0
  70
0
  0
VERTEX
  8
a
  10
2.11541
  20
0.41639
  30
0.0
  70
0
  0
VERTEX
  8
a
  10
2.09704
  20
0.37722
  30
0.0
  70
0
  0
VERTEX
  8
a
  10
2.0757
  20
0.33854
  30
0.0
  70
0
  0
VERTEX
  8
a
  10
2.05171
  20
0.30038
  30
0.0
  70
0
  0
VERTEX
  8
a
  10
2.02526
  20
0.26276
  30
0.0
  70
0
  0
VERTEX
  8
a
  10
1.99651
  20
0.22573
  30
0.0
  70
0
  0
VERTEX
  8
a
  10
1.96555
  20
0.18933
  30
0.0
  70
0
  0
VERTEX
  8
a
  10
1.93248
  20
0.15359
  30
0.0
  70
0
  0
VERTEX
  8
a
  10
1.89735
  20
0.11858
  30
0.0
  70
0
  0
VERTEX
  8
a
  10
1.86024
  20
0.08434
  30
0.0
  70
0
  0
VERTEX
  8
a
  10
1.83114
  20
0.0592
  30
0.0
  70
0
  0
VERTEX
  8
a
  10
1.66206
  20
0.1045
  30
0.0
  70
0
  0
VERTEX
  8
a
  10
1.64943
  20
0.14083
  30
0.0
  70
0
  0
VERTEX
  8
a
  10
1.63441
  20
0.18904
  30
0.0
  70
0
  0
VERTEX
  8
a
  10
1.6215
  20
0.23692
  30
0.0
  70
0
  0
VERTEX
  8
a
  10
1.61072
  20
0.2844
  30
0.0
  70
0
  0
VERTEX
  8
a
  10
1.60211
  20
0.33141
  30
0.0
  70
0
  0
VERTEX
  8
a
  10
1.59573
  20
0.37785
  30
0.0
  70
0
  0
VERTEX
  8
a
  10
1.59164
  20
0.42365
  30
0.0
  70
0
  0
VERTEX
  8
a
  10
1.58994
  20
0.4687
  30
0.0
  70
0
  0
VERTEX
  8
a
  10
1.5908
  20
0.51286
  30
0.0
  70
0
  0
VERTEX
  8
a
  10
1.59447
  20
0.55598
  30
0.0
  70
0
  0
VERTEX
  8
a
  10
1.60149
  20
0.59775
  30
0.0
  70
0
  0
VERTEX
  8
a
  10
1.61511
  20
0.63672
  30
0.0
  70
0
  0
VERTEX
  8
a
  10
1.62445
  20
0.65512
  30
0.0
  70
0
  0
VERTEX
  8
a
  10
1.63264
  20
0.67401
  30
0.0
  70
0
  0
VERTEX
  8
a
  10
1.63947
  20
0.69349
  30
0.0
  70
0
  0
VERTEX
  8
a
  10
1.64453
  20
0.71373
  30
0.0
  70
0
  0
VERTEX
  8
a
  10
1.64617
  20
0.72425
  30
0.0
  70
0
  0
VERTEX
  8
a
  10
1.64698
  20
0.73513
  30
0.0
  70
0
  0
VERTEX
  8
a
  10
1.6466
  20
0.74654
  30
0.0
  70
0
  0
VERTEX
  8
a
  10
1.64409
  20
0.75891
  30
0.0
  70
0
  0
VERTEX
  8
a
  10
1.63011
  20
0.77654
  30
0.0
  70
0
  0
VERTEX
  8
a
  10
1.35106
  20
0.93765
  30
0.0
  70
0
  0
VERTEX
  8
a
  10
1.3288
  20
0.94095
  30
0.0
  70
0
  0
VERTEX
  8
a
  10
1.31683
  20
0.93693
  30
0.0
  70
0
  0
VERTEX
  8
a
  10
1.30675
  20
0.93156
  30
0.0
  70
0
  0
VERTEX
  8
a
  10
1.29774
  20
0.92541
  30
0.0
  70
0
  0
VERTEX
  8
a
  10
1.28945
  20
0.91874
  30
0.0
  70
0
  0
VERTEX
  8
a
  10
1.27445
  20
0.90423
  30
0.0
  70
0
  0
VERTEX
  8
a
  10
1.261
  20
0.88858
  30
0.0
  70
0
  0
VERTEX
  8
a
  10
1.24874
  20
0.87204
  30
0.0
  70
0
  0
VERTEX
  8
a
  10
1.23747
  20
0.85476
  30
0.0
  70
0
  0
VERTEX
  8
a
  10
1.21053
  20
0.82347
  30
0.0
  70
0
  0
VERTEX
  8
a
  10
1.17786
  20
0.79651
  30
0.0
  70
0
  0
VERTEX
  8
a
  10
1.14236
  20
0.77177
  30
0.0
  70
0
  0
VERTEX
  8
a
  10
1.10454
  20
0.74894
  30
0.0
  70
0
  0
VERTEX
  8
a
  10
1.06468
  20
0.72789
  30
0.0
  70
0
  0
VERTEX
  8
a
  10
1.02297
  20
0.70853
  30
0.0
  70
0
  0
VERTEX
  8
a
  10
0.97956
  20
0.69084
  30
0.0
  70
0
  0
VERTEX
  8
a
  10
0.93455
  20
0.67479
  30
0.0
  70
0
  0
VERTEX
  8
a
  10
0.88804
  20
0.66039
  30
0.0
  70
0
  0
VERTEX
  8
a
  10
0.84011
  20
0.64763
  30
0.0
  70
0
  0
VERTEX
  8
a
  10
0.79086
  20
0.63653
  30
0.0
  70
0
  0
VERTEX
  8
a
  10
0.75308
  20
0.6293
  30
0.0
  70
0
  0
VERTEX
  8
a
  10
0.6293
  20
0.75308
  30
0.0
  70
0
  0
VERTEX
  8
a
  10
0.63653
  20
0.79086
  30
0.0
  70
0
  0
VERTEX
  8
a
  10
0.64763
  20
0.84011
  30
0.0
  70
0
  0
VERTEX
  8
a
  10
0.66039
  20
0.88804
  30
0.0
  70
0
  0
VERTEX
  8
a
  10
0.67479
  20
0.93455
  30
0.0
  70
0
  0
VERTEX
  8
a
  10
0.69084
  20
0.97956
  30
0.0
  70
0
  0
VERTEX
  8
a
  10
0.70853
  20
1.02297
  30
0.0
  70
0
  0
VERTEX
  8
a
  10
0.72789
  20
1.06468
  30
0.0
  70
0
  0
VERTEX
  8
a
  10
0.74894
  20
1.10454
  30
0.0
  70
0
  0
VERTEX
  8
a
  10
0.77177
  20
1.14236
  30
0.0
  70
0
  0
VERTEX
  8
a
  10
0.79651
  20
1.17786
  30
0.0
  70
0
  0
VERTEX
  8
a
  10
0.82347
  20
1.21053
  30
0.0
  70
0
  0
VERTEX
  8
a
  10
0.85476
  20
1.23747
  30
0.0
  70
0
  0
VERTEX
  8
a
  10
0.87204
  20
1.24874
  30
0.0
  70
0
  0
VERTEX
  8
a
  10
0.88858
  20
1.261
  30
0.0
  70
0
  0
VERTEX
  8
a
  10
0.90423
  20
1.27445
  30
0.0
  70
0
  0
VERTEX
  8
a
  10
0.91874
  20
1.28945
  30
0.0
  70
0
  0
VERTEX
  8
a
  10
0.92541
  20
1.29774
  30
0.0
  70
0
  0
VERTEX
  8
a
  10
0.93156
  20
1.30675
  30
0.0
  70
0
  0
VERTEX
  8
a
  10
0.93693
  20
1.31683
  30
0.0
  70
0
  0
VERTEX
  8
a
  10
0.94095
  20
1.3288
  30
0.0
  70
0
  0
VERTEX
  8
a
  10
0.93765
  20
1.35106
  30
0.0
  70
0
  0
VERTEX
  8
a
  10
0.77654
  20
1.63011
  30
0.0
  70
0
  0
VERTEX
  8
a
  10
0.75891
  20
1.64409
  30
0.0
  70
0
  0
VERTEX
  8
a
  10
0.74654
  20
1.6466
  30
0.0
  70
0
  0
VERTEX
  8
a
  10
0.73513
  20
1.64698
  30
0.0
  70
0
  0
VERTEX
  8
a
  10
0.72425
  20
1.64617
  30
0.0
  70
0
  0
VERTEX
  8
a
  10
0.71373
  20
1.64453
  30
0.0
  70
0
  0
VERTEX
  8
a
  10
0.69349
  20
1.63947
  30
0.0
  70
0
  0
VERTEX
  8
a
  10
0.67401
  20
1.63264
  30
0.0
  70
0
  0
VERTEX
  8
a
  10
0.65512
  20
1.62445
  30
0.0
  70
0
  0
VERTEX
  8
a
  10
0.63672
  20
1.61511
  30
0.0
  70
0
  0
VERTEX
  8
a
  10
0.59775
  20
1.60149
  30
0.0
  70
0
  0
VERTEX
  8
a
  10
0.55598
  20
1.59447
  30
0.0
  70
0
  0
VERTEX
  8
a
  10
0.51286
  20
1.5908
  30
0.0
  70
0
  0
VERTEX
  8
a
  10
0.4687
  20
1.58994
  30
0.0
  70
0
  0
VERTEX
  8
a
  10
0.42365
  20
1.59164
  30
0.0
  70
0
  0
VERTEX
  8
a
  10
0.37785
  20
1.59573
  30
0.0
  70
0
  0
VERTEX
  8
a
  10
0.33141
  20
1.60211
  30
0.0
  70
0
  0
VERTEX
  8
a
  10
0.2844
  20
1.61072
  30
0.0
  70
0
  0
VERTEX
  8
a
  10
0.23692
  20
1.6215
  30
0.0
  70
0
  0
VERTEX
  8
a
  10
0.18904
  20
1.63441
  30
0.0
  70
0
  0
VERTEX
  8
a
  10
0.14083
  20
1.64943
  30
0.0
  70
0
  0
VERTEX
  8
a
  10
0.1045
  20
1.66206
  30
0.0
  70
0
  0
VERTEX
  8
a
  10
0.0592
  20
1.83114
  30
0.0
  70
0
  0
VERTEX
  8
a
  10
0.08434
  20
1.86024
  30
0.0
  70
0
  0
VERTEX
  8
a
  10
0.11858
  20
1.89735
  30
0.0
  70
0
  0
VERTEX
  8
a
  10
0.15359
  20
1.93248
  30
0.0
  70
0
  0
VERTEX
  8
a
  10
0.18933
  20
1.96555
  30
0.0
  70
0
  0
VERTEX
  8
a
  10
0.22573
  20
1.99651
  30
0.0
  70
0
  0
VERTEX
  8
a
  10
0.26276
  20
2.02526
  30
0.0
  70
0
  0
VERTEX
  8
a
  10
0.30038
  20
2.05171
  30
0.0
  70
0
  0
VERTEX
  8
a
  10
0.33854
  20
2.0757
  30
0.0
  70
0
  0
VERTEX
  8
a
  10
0.37722
  20
2.09704
  30
0.0
  70
0
  0
VERTEX
  8
a
  10
0.41639
  20
2.11541
  30
0.0
  70
0
  0
VERTEX
  8
a
  10
0.45608
  20
2.13022
  30
0.0
  70
0
  0
VERTEX
  8
a
  10
0.49664
  20
2.13791
  30
0.0
  70
0
  0
VERTEX
  8
a
  10
0.51724
  20
2.13903
  30
0.0
  70
0
  0
VERTEX
  8
a
  10
0.5377
  20
2.14137
  30
0.0
  70
0
  0
VERTEX
  8
a
  10
0.55798
  20
2.1452
  30
0.0
  70
0
  0
VERTEX
  8
a
  10
0.57804
  20
2.15094
  30
0.0
  70
0
  0
VERTEX
  8
a
  10
0.58797
  20
2.15477
  30
0.0
  70
0
  0
VERTEX
  8
a
  10
0.59779
  20
2.15951
  30
0.0
  70
0
  0
VERTEX
  8
a
  10
0.60749
  20
2.16555
  30
0.0
  70
0
  0
VERTEX
  8
a
  10
0.61695
  20
2.17391
  30
0.0
  70
0
  0
VERTEX
  8
a
  10
0.62522
  20
2.19484
  30
0.0
  70
0
  0
SEQEND
  0
CIRCLE
  8
a
  10
2.35594
  20
2.35594
  30
0.0
  40
0.5
 0
LINE
 8
c
 10
0.67697
 20
2.80582
 30
0
 11
0.08028
 21
2.96571
 31
 0
 0
LINE
 8
c
 10
1.12685
 20
3.58504
 30
0
 11
0.69004
 21
4.02185
 31
 0
 0
LINE
 8
c
 10
1.90606
 20
4.03492
 30
0
 11
1.74618
 21
4.63161
 31
 0
 0
LINE
 8
c
 10
2.80582
 20
4.03492
 30
0
 11
2.96571
 21
4.63161
 31
 0
 0
LINE
 8
c
 10
3.58504
 20
3.58504
 30
0
 11
4.02185
 21
4.02185
 31
 0
 0
LINE
 8
c
 10
4.03492
 20
2.80582
 30
0
 11
4.63161
 21
2.96571
 31
 0
 0
LINE
 8
c
 10
4.03492
 20
1.90606
 30
0
 11
4.63161
 21
1.74618
 31
 0
 0
LINE
 8
c
 10
3.58504
 20
1.12685
 30
0
 11
4.02185
 21
0.69004
 31
 0
 0
LINE
 8
c
 10
2.80582
 20
0.67697
 30
0
 11
2.96571
 21
0.08028
 31
 0
 0
LINE
 8
c
 10
1.90606
 20
0.67697
 30
0
 11
1.74618
 21
0.08028
 31
 0
 0
LINE
 8
c
 10
1.12685
 20
1.12685
 30
0
 11
0.69004
 21
0.69004
 31
 0
 0
LINE
 8
c
 10
0.67697
 20
1.90606
 30
0
 11
0.08028
 21
1.74618
 31
 0
  0
CIRCLE
  8
c
  10
2.35594
  20
2.35594
  30
0.0
  40
2
 0
LINE
 8
a
 10
1.57063
 20
2.35594
 30
0
 11
3.14126
 21
2.35594
 31
 0
 0
LINE
 8
a
 10
2.35594
 20
1.57063
 30
0
 11
2.35594
 21
3.14126
 31
 0
  0
TEXT
  8
labels
  10
0.0
  20
0.0
  30
0.0
  40
0.1
  1
G2:Toothspacing=1.05  Teeth=12  Spur gear  Angle=20.0  Addendum=.3
  41
1.0
  7
ARIAL
  0
ENDSEC
  0
EOF
