  999
DXF file created by gear template generator. 2019-07-05T13:34:20
  999
G1:Toothspacing=1.05  Teeth=-36  Spur gear  Angle=20.0  Addendum=.3
  0
SECTION
  2
HEADER
  9
$MEASUREMENT
  70
1
  0
ENDSEC
  0
SECTION
  2
TABLES
  0
TABLE
  2
LTYPE
  70
1
  0
LTYPE
  2
Continuous
  3
_
  70
0
  72
65
  73
0
  40
0.0
  0
ENDTAB
  0
TABLE
  2
LAYER
  70
4
  0
LAYER
  2
profile
  70
0
  62
7
  6
Continuous
  0
LAYER
  2
construction
  70
0
  62
5
  6
Continuous
  0
LAYER
  2
grid
  70
0
  62
3
  6
Continuous
  0
LAYER
  2
labels
  70
0
  62
1
  6
Continuous
  0
ENDTAB
  0
TABLE
  2
STYLE
  70
1
  0
STYLE
  2
ARIAL
  3
Arial.ttf
  70
0
  40
0.0
  41
1.0
  50
0.0
  71
0
  42
1.0
  0
ENDTAB
  0
ENDSEC
  0
SECTION
  2
ENTITIES
 0
LINE
 8
b
 10
0.0472
 20
0
 30
0
 11
0.0472
 21
14.0944
 31
 0
 0
LINE
 8
b
 10
1.0472
 20
0
 30
0
 11
1.0472
 21
14.0944
 31
 0
 0
LINE
 8
b
 10
2.0472
 20
0
 30
0
 11
2.0472
 21
14.0944
 31
 0
 0
LINE
 8
b
 10
3.0472
 20
0
 30
0
 11
3.0472
 21
14.0944
 31
 0
 0
LINE
 8
b
 10
4.0472
 20
0
 30
0
 11
4.0472
 21
14.0944
 31
 0
 0
LINE
 8
b
 10
5.0472
 20
0
 30
0
 11
5.0472
 21
14.0944
 31
 0
 0
LINE
 8
b
 10
6.0472
 20
0
 30
0
 11
6.0472
 21
14.0944
 31
 0
 0
LINE
 8
b
 10
7.0472
 20
0
 30
0
 11
7.0472
 21
14.0944
 31
 0
 0
LINE
 8
b
 10
8.0472
 20
0
 30
0
 11
8.0472
 21
14.0944
 31
 0
 0
LINE
 8
b
 10
9.0472
 20
0
 30
0
 11
9.0472
 21
14.0944
 31
 0
 0
LINE
 8
b
 10
10.0472
 20
0
 30
0
 11
10.0472
 21
14.0944
 31
 0
 0
LINE
 8
b
 10
11.0472
 20
0
 30
0
 11
11.0472
 21
14.0944
 31
 0
 0
LINE
 8
b
 10
12.0472
 20
0
 30
0
 11
12.0472
 21
14.0944
 31
 0
 0
LINE
 8
b
 10
13.0472
 20
0
 30
0
 11
13.0472
 21
14.0944
 31
 0
 0
LINE
 8
b
 10
14.0472
 20
0
 30
0
 11
14.0472
 21
14.0944
 31
 0
 0
LINE
 8
b
 10
0
 20
0.0472
 30
0
 11
14.0944
 21
0.0472
 31
 0
 0
LINE
 8
b
 10
0
 20
1.0472
 30
0
 11
14.0944
 21
1.0472
 31
 0
 0
LINE
 8
b
 10
0
 20
2.0472
 30
0
 11
14.0944
 21
2.0472
 31
 0
 0
LINE
 8
b
 10
0
 20
3.0472
 30
0
 11
14.0944
 21
3.0472
 31
 0
 0
LINE
 8
b
 10
0
 20
4.0472
 30
0
 11
14.0944
 21
4.0472
 31
 0
 0
LINE
 8
b
 10
0
 20
5.0472
 30
0
 11
14.0944
 21
5.0472
 31
 0
 0
LINE
 8
b
 10
0
 20
6.0472
 30
0
 11
14.0944
 21
6.0472
 31
 0
 0
LINE
 8
b
 10
0
 20
7.0472
 30
0
 11
14.0944
 21
7.0472
 31
 0
 0
LINE
 8
b
 10
0
 20
8.0472
 30
0
 11
14.0944
 21
8.0472
 31
 0
 0
LINE
 8
b
 10
0
 20
9.0472
 30
0
 11
14.0944
 21
9.0472
 31
 0
 0
LINE
 8
b
 10
0
 20
10.0472
 30
0
 11
14.0944
 21
10.0472
 31
 0
 0
LINE
 8
b
 10
0
 20
11.0472
 30
0
 11
14.0944
 21
11.0472
 31
 0
 0
LINE
 8
b
 10
0
 20
12.0472
 30
0
 11
14.0944
 21
12.0472
 31
 0
 0
LINE
 8
b
 10
0
 20
13.0472
 30
0
 11
14.0944
 21
13.0472
 31
 0
 0
LINE
 8
b
 10
0
 20
14.0472
 30
0
 11
14.0944
 21
14.0472
 31
 0
  0
POLYLINE
  8
a
  66
1
  10
0.0
  20
0.0
  70
1
  0
VERTEX
  8
a
  10
1.31174
  20
7.22471
  30
0.0
  70
0
  0
VERTEX
  8
a
  10
1.2964
  20
7.22822
  30
0.0
  70
0
  0
VERTEX
  8
a
  10
1.28107
  20
7.23196
  30
0.0
  70
0
  0
VERTEX
  8
a
  10
1.26574
  20
7.2359
  30
0.0
  70
0
  0
VERTEX
  8
a
  10
1.23512
  20
7.24437
  30
0.0
  70
0
  0
VERTEX
  8
a
  10
1.20454
  20
7.25358
  30
0.0
  70
0
  0
VERTEX
  8
a
  10
1.17399
  20
7.26347
  30
0.0
  70
0
  0
VERTEX
  8
a
  10
1.113
  20
7.28516
  30
0.0
  70
0
  0
VERTEX
  8
a
  10
1.05218
  20
7.30922
  30
0.0
  70
0
  0
VERTEX
  8
a
  10
0.99154
  20
7.33548
  30
0.0
  70
0
  0
VERTEX
  8
a
  10
0.9311
  20
7.36383
  30
0.0
  70
0
  0
VERTEX
  8
a
  10
0.87087
  20
7.39417
  30
0.0
  70
0
  0
VERTEX
  8
a
  10
0.81088
  20
7.42642
  30
0.0
  70
0
  0
VERTEX
  8
a
  10
0.75114
  20
7.46053
  30
0.0
  70
0
  0
VERTEX
  8
a
  10
0.70651
  20
7.48729
  30
0.0
  70
0
  0
VERTEX
  8
a
  10
0.72642
  20
7.71484
  30
0.0
  70
0
  0
VERTEX
  8
a
  10
0.77502
  20
7.73345
  30
0.0
  70
0
  0
VERTEX
  8
a
  10
0.83977
  20
7.75666
  30
0.0
  70
0
  0
VERTEX
  8
a
  10
0.90445
  20
7.77801
  30
0.0
  70
0
  0
VERTEX
  8
a
  10
0.96903
  20
7.79743
  30
0.0
  70
0
  0
VERTEX
  8
a
  10
1.03348
  20
7.81485
  30
0.0
  70
0
  0
VERTEX
  8
a
  10
1.09776
  20
7.83018
  30
0.0
  70
0
  0
VERTEX
  8
a
  10
1.16183
  20
7.84331
  30
0.0
  70
0
  0
VERTEX
  8
a
  10
1.22566
  20
7.85409
  30
0.0
  70
0
  0
VERTEX
  8
a
  10
1.25746
  20
7.85852
  30
0.0
  70
0
  0
VERTEX
  8
a
  10
1.28918
  20
7.86228
  30
0.0
  70
0
  0
VERTEX
  8
a
  10
1.32081
  20
7.8653
  30
0.0
  70
0
  0
VERTEX
  8
a
  10
1.33659
  20
7.86652
  30
0.0
  70
0
  0
VERTEX
  8
a
  10
1.35233
  20
7.86754
  30
0.0
  70
0
  0
VERTEX
  8
a
  10
1.36805
  20
7.86834
  30
0.0
  70
0
  0
VERTEX
  8
a
  10
1.4297
  20
8.21796
  30
0.0
  70
0
  0
VERTEX
  8
a
  10
1.4152
  20
8.22409
  30
0.0
  70
0
  0
VERTEX
  8
a
  10
1.40075
  20
8.23043
  30
0.0
  70
0
  0
VERTEX
  8
a
  10
1.38635
  20
8.23697
  30
0.0
  70
0
  0
VERTEX
  8
a
  10
1.35766
  20
8.25063
  30
0.0
  70
0
  0
VERTEX
  8
a
  10
1.32914
  20
8.26501
  30
0.0
  70
0
  0
VERTEX
  8
a
  10
1.30077
  20
8.28005
  30
0.0
  70
0
  0
VERTEX
  8
a
  10
1.24448
  20
8.31201
  30
0.0
  70
0
  0
VERTEX
  8
a
  10
1.18876
  20
8.34626
  30
0.0
  70
0
  0
VERTEX
  8
a
  10
1.1336
  20
8.38265
  30
0.0
  70
0
  0
VERTEX
  8
a
  10
1.079
  20
8.42107
  30
0.0
  70
0
  0
VERTEX
  8
a
  10
1.02496
  20
8.4614
  30
0.0
  70
0
  0
VERTEX
  8
a
  10
0.97147
  20
8.50359
  30
0.0
  70
0
  0
VERTEX
  8
a
  10
0.91856
  20
8.54755
  30
0.0
  70
0
  0
VERTEX
  8
a
  10
0.87926
  20
8.58165
  30
0.0
  70
0
  0
VERTEX
  8
a
  10
0.93838
  20
8.80229
  30
0.0
  70
0
  0
VERTEX
  8
a
  10
0.98947
  20
8.81217
  30
0.0
  70
0
  0
VERTEX
  8
a
  10
1.05727
  20
8.82379
  30
0.0
  70
0
  0
VERTEX
  8
a
  10
1.12468
  20
8.83358
  30
0.0
  70
0
  0
VERTEX
  8
a
  10
1.19165
  20
8.84149
  30
0.0
  70
0
  0
VERTEX
  8
a
  10
1.25814
  20
8.84746
  30
0.0
  70
0
  0
VERTEX
  8
a
  10
1.32411
  20
8.8514
  30
0.0
  70
0
  0
VERTEX
  8
a
  10
1.38949
  20
8.8532
  30
0.0
  70
0
  0
VERTEX
  8
a
  10
1.45421
  20
8.85273
  30
0.0
  70
0
  0
VERTEX
  8
a
  10
1.48631
  20
8.85157
  30
0.0
  70
0
  0
VERTEX
  8
a
  10
1.5182
  20
8.84976
  30
0.0
  70
0
  0
VERTEX
  8
a
  10
1.54987
  20
8.84725
  30
0.0
  70
0
  0
VERTEX
  8
a
  10
1.56562
  20
8.84571
  30
0.0
  70
0
  0
VERTEX
  8
a
  10
1.5813
  20
8.84398
  30
0.0
  70
0
  0
VERTEX
  8
a
  10
1.59692
  20
8.84203
  30
0.0
  70
0
  0
VERTEX
  8
a
  10
1.71835
  20
9.17564
  30
0.0
  70
0
  0
VERTEX
  8
a
  10
1.70513
  20
9.18419
  30
0.0
  70
0
  0
VERTEX
  8
a
  10
1.692
  20
9.19295
  30
0.0
  70
0
  0
VERTEX
  8
a
  10
1.67895
  20
9.20189
  30
0.0
  70
0
  0
VERTEX
  8
a
  10
1.65307
  20
9.22033
  30
0.0
  70
0
  0
VERTEX
  8
a
  10
1.62748
  20
9.23944
  30
0.0
  70
0
  0
VERTEX
  8
a
  10
1.60215
  20
9.25918
  30
0.0
  70
0
  0
VERTEX
  8
a
  10
1.55226
  20
9.30042
  30
0.0
  70
0
  0
VERTEX
  8
a
  10
1.50334
  20
9.34383
  30
0.0
  70
0
  0
VERTEX
  8
a
  10
1.45534
  20
9.38925
  30
0.0
  70
0
  0
VERTEX
  8
a
  10
1.40824
  20
9.43656
  30
0.0
  70
0
  0
VERTEX
  8
a
  10
1.36202
  20
9.48567
  30
0.0
  70
0
  0
VERTEX
  8
a
  10
1.31668
  20
9.5365
  30
0.0
  70
0
  0
VERTEX
  8
a
  10
1.2722
  20
9.58898
  30
0.0
  70
0
  0
VERTEX
  8
a
  10
1.23942
  20
9.62939
  30
0.0
  70
0
  0
VERTEX
  8
a
  10
1.33595
  20
9.83641
  30
0.0
  70
0
  0
VERTEX
  8
a
  10
1.38799
  20
9.83727
  30
0.0
  70
0
  0
VERTEX
  8
a
  10
1.45678
  20
9.83694
  30
0.0
  70
0
  0
VERTEX
  8
a
  10
1.52486
  20
9.83487
  30
0.0
  70
0
  0
VERTEX
  8
a
  10
1.59219
  20
9.83104
  30
0.0
  70
0
  0
VERTEX
  8
a
  10
1.6587
  20
9.82537
  30
0.0
  70
0
  0
VERTEX
  8
a
  10
1.72435
  20
9.81779
  30
0.0
  70
0
  0
VERTEX
  8
a
  10
1.78905
  20
9.80822
  30
0.0
  70
0
  0
VERTEX
  8
a
  10
1.85271
  20
9.79651
  30
0.0
  70
0
  0
VERTEX
  8
a
  10
1.88411
  20
9.7898
  30
0.0
  70
0
  0
VERTEX
  8
a
  10
1.91521
  20
9.78248
  30
0.0
  70
0
  0
VERTEX
  8
a
  10
1.94596
  20
9.7745
  30
0.0
  70
0
  0
VERTEX
  8
a
  10
1.9612
  20
9.77026
  30
0.0
  70
0
  0
VERTEX
  8
a
  10
1.97635
  20
9.76582
  30
0.0
  70
0
  0
VERTEX
  8
a
  10
1.99139
  20
9.7612
  30
0.0
  70
0
  0
VERTEX
  8
a
  10
2.1689
  20
10.06865
  30
0.0
  70
0
  0
VERTEX
  8
a
  10
2.15737
  20
10.07937
  30
0.0
  70
0
  0
VERTEX
  8
a
  10
2.14596
  20
10.09027
  30
0.0
  70
0
  0
VERTEX
  8
a
  10
2.13466
  20
10.10134
  30
0.0
  70
0
  0
VERTEX
  8
a
  10
2.11238
  20
10.12399
  30
0.0
  70
0
  0
VERTEX
  8
a
  10
2.09049
  20
10.14726
  30
0.0
  70
0
  0
VERTEX
  8
a
  10
2.06898
  20
10.1711
  30
0.0
  70
0
  0
VERTEX
  8
a
  10
2.02701
  20
10.22038
  30
0.0
  70
0
  0
VERTEX
  8
a
  10
1.98637
  20
10.27162
  30
0.0
  70
0
  0
VERTEX
  8
a
  10
1.94699
  20
10.32469
  30
0.0
  70
0
  0
VERTEX
  8
a
  10
1.90882
  20
10.37946
  30
0.0
  70
0
  0
VERTEX
  8
a
  10
1.87183
  20
10.43585
  30
0.0
  70
0
  0
VERTEX
  8
a
  10
1.836
  20
10.49378
  30
0.0
  70
0
  0
VERTEX
  8
a
  10
1.80132
  20
10.55318
  30
0.0
  70
0
  0
VERTEX
  8
a
  10
1.77605
  20
10.59867
  30
0.0
  70
0
  0
VERTEX
  8
a
  10
1.90706
  20
10.78578
  30
0.0
  70
0
  0
VERTEX
  8
a
  10
1.95845
  20
10.7776
  30
0.0
  70
0
  0
VERTEX
  8
a
  10
2.02614
  20
10.76532
  30
0.0
  70
0
  0
VERTEX
  8
a
  10
2.09283
  20
10.75147
  30
0.0
  70
0
  0
VERTEX
  8
a
  10
2.15847
  20
10.736
  30
0.0
  70
0
  0
VERTEX
  8
a
  10
2.22299
  20
10.71886
  30
0.0
  70
0
  0
VERTEX
  8
a
  10
2.28633
  20
10.7
  30
0.0
  70
0
  0
VERTEX
  8
a
  10
2.34838
  20
10.67934
  30
0.0
  70
0
  0
VERTEX
  8
a
  10
2.40904
  20
10.65675
  30
0.0
  70
0
  0
VERTEX
  8
a
  10
2.4388
  20
10.64469
  30
0.0
  70
0
  0
VERTEX
  8
a
  10
2.46815
  20
10.63208
  30
0.0
  70
0
  0
VERTEX
  8
a
  10
2.49705
  20
10.61889
  30
0.0
  70
0
  0
VERTEX
  8
a
  10
2.51133
  20
10.61206
  30
0.0
  70
0
  0
VERTEX
  8
a
  10
2.52547
  20
10.60507
  30
0.0
  70
0
  0
VERTEX
  8
a
  10
2.53948
  20
10.5979
  30
0.0
  70
0
  0
VERTEX
  8
a
  10
2.76769
  20
10.86986
  30
0.0
  70
0
  0
VERTEX
  8
a
  10
2.75819
  20
10.88241
  30
0.0
  70
0
  0
VERTEX
  8
a
  10
2.74885
  20
10.89513
  30
0.0
  70
0
  0
VERTEX
  8
a
  10
2.73964
  20
10.908
  30
0.0
  70
0
  0
VERTEX
  8
a
  10
2.72163
  20
10.93417
  30
0.0
  70
0
  0
VERTEX
  8
a
  10
2.70412
  20
10.96088
  30
0.0
  70
0
  0
VERTEX
  8
a
  10
2.68707
  20
10.9881
  30
0.0
  70
0
  0
VERTEX
  8
a
  10
2.6543
  20
11.04391
  30
0.0
  70
0
  0
VERTEX
  8
a
  10
2.62317
  20
11.10144
  30
0.0
  70
0
  0
VERTEX
  8
a
  10
2.5936
  20
11.16054
  30
0.0
  70
0
  0
VERTEX
  8
a
  10
2.56552
  20
11.2211
  30
0.0
  70
0
  0
VERTEX
  8
a
  10
2.53889
  20
11.28306
  30
0.0
  70
0
  0
VERTEX
  8
a
  10
2.51366
  20
11.34633
  30
0.0
  70
0
  0
VERTEX
  8
a
  10
2.48982
  20
11.41086
  30
0.0
  70
0
  0
VERTEX
  8
a
  10
2.47283
  20
11.46004
  30
0.0
  70
0
  0
VERTEX
  8
a
  10
2.63435
  20
11.62156
  30
0.0
  70
0
  0
VERTEX
  8
a
  10
2.68354
  20
11.60457
  30
0.0
  70
0
  0
VERTEX
  8
a
  10
2.74807
  20
11.58073
  30
0.0
  70
0
  0
VERTEX
  8
a
  10
2.81134
  20
11.55551
  30
0.0
  70
0
  0
VERTEX
  8
a
  10
2.87329
  20
11.52887
  30
0.0
  70
0
  0
VERTEX
  8
a
  10
2.93386
  20
11.5008
  30
0.0
  70
0
  0
VERTEX
  8
a
  10
2.99296
  20
11.47123
  30
0.0
  70
0
  0
VERTEX
  8
a
  10
3.05048
  20
11.4401
  30
0.0
  70
0
  0
VERTEX
  8
a
  10
3.1063
  20
11.40732
  30
0.0
  70
0
  0
VERTEX
  8
a
  10
3.13351
  20
11.39028
  30
0.0
  70
0
  0
VERTEX
  8
a
  10
3.16022
  20
11.37276
  30
0.0
  70
0
  0
VERTEX
  8
a
  10
3.1864
  20
11.35475
  30
0.0
  70
0
  0
VERTEX
  8
a
  10
3.19927
  20
11.34555
  30
0.0
  70
0
  0
VERTEX
  8
a
  10
3.21199
  20
11.3362
  30
0.0
  70
0
  0
VERTEX
  8
a
  10
3.22454
  20
11.32671
  30
0.0
  70
0
  0
VERTEX
  8
a
  10
3.4965
  20
11.55491
  30
0.0
  70
0
  0
VERTEX
  8
a
  10
3.48933
  20
11.56892
  30
0.0
  70
0
  0
VERTEX
  8
a
  10
3.48233
  20
11.58307
  30
0.0
  70
0
  0
VERTEX
  8
a
  10
3.4755
  20
11.59734
  30
0.0
  70
0
  0
VERTEX
  8
a
  10
3.46231
  20
11.62625
  30
0.0
  70
0
  0
VERTEX
  8
a
  10
3.4497
  20
11.65559
  30
0.0
  70
0
  0
VERTEX
  8
a
  10
3.43764
  20
11.68535
  30
0.0
  70
0
  0
VERTEX
  8
a
  10
3.41506
  20
11.74601
  30
0.0
  70
0
  0
VERTEX
  8
a
  10
3.39439
  20
11.80807
  30
0.0
  70
0
  0
VERTEX
  8
a
  10
3.37553
  20
11.8714
  30
0.0
  70
0
  0
VERTEX
  8
a
  10
3.3584
  20
11.93593
  30
0.0
  70
0
  0
VERTEX
  8
a
  10
3.34293
  20
12.00157
  30
0.0
  70
0
  0
VERTEX
  8
a
  10
3.32907
  20
12.06826
  30
0.0
  70
0
  0
VERTEX
  8
a
  10
3.3168
  20
12.13594
  30
0.0
  70
0
  0
VERTEX
  8
a
  10
3.30861
  20
12.18733
  30
0.0
  70
0
  0
VERTEX
  8
a
  10
3.49572
  20
12.31835
  30
0.0
  70
0
  0
VERTEX
  8
a
  10
3.54121
  20
12.29308
  30
0.0
  70
0
  0
VERTEX
  8
a
  10
3.60062
  20
12.25839
  30
0.0
  70
0
  0
VERTEX
  8
a
  10
3.65855
  20
12.22257
  30
0.0
  70
0
  0
VERTEX
  8
a
  10
3.71494
  20
12.18558
  30
0.0
  70
0
  0
VERTEX
  8
a
  10
3.76971
  20
12.14741
  30
0.0
  70
0
  0
VERTEX
  8
a
  10
3.82277
  20
12.10803
  30
0.0
  70
0
  0
VERTEX
  8
a
  10
3.87402
  20
12.06738
  30
0.0
  70
0
  0
VERTEX
  8
a
  10
3.9233
  20
12.02541
  30
0.0
  70
0
  0
VERTEX
  8
a
  10
3.94714
  20
12.0039
  30
0.0
  70
0
  0
VERTEX
  8
a
  10
3.9704
  20
11.98201
  30
0.0
  70
0
  0
VERTEX
  8
a
  10
3.99305
  20
11.95973
  30
0.0
  70
0
  0
VERTEX
  8
a
  10
4.00413
  20
11.94843
  30
0.0
  70
0
  0
VERTEX
  8
a
  10
4.01503
  20
11.93702
  30
0.0
  70
0
  0
VERTEX
  8
a
  10
4.02574
  20
11.92549
  30
0.0
  70
0
  0
VERTEX
  8
a
  10
4.3332
  20
12.103
  30
0.0
  70
0
  0
VERTEX
  8
a
  10
4.32857
  20
12.11804
  30
0.0
  70
0
  0
VERTEX
  8
a
  10
4.32414
  20
12.13319
  30
0.0
  70
0
  0
VERTEX
  8
a
  10
4.31989
  20
12.14843
  30
0.0
  70
0
  0
VERTEX
  8
a
  10
4.31192
  20
12.17919
  30
0.0
  70
0
  0
VERTEX
  8
a
  10
4.3046
  20
12.21028
  30
0.0
  70
0
  0
VERTEX
  8
a
  10
4.29789
  20
12.24168
  30
0.0
  70
0
  0
VERTEX
  8
a
  10
4.28618
  20
12.30534
  30
0.0
  70
0
  0
VERTEX
  8
a
  10
4.2766
  20
12.37004
  30
0.0
  70
0
  0
VERTEX
  8
a
  10
4.26903
  20
12.43569
  30
0.0
  70
0
  0
VERTEX
  8
a
  10
4.26336
  20
12.50221
  30
0.0
  70
0
  0
VERTEX
  8
a
  10
4.25952
  20
12.56954
  30
0.0
  70
0
  0
VERTEX
  8
a
  10
4.25746
  20
12.63762
  30
0.0
  70
0
  0
VERTEX
  8
a
  10
4.25712
  20
12.70641
  30
0.0
  70
0
  0
VERTEX
  8
a
  10
4.25798
  20
12.75844
  30
0.0
  70
0
  0
VERTEX
  8
a
  10
4.465
  20
12.85497
  30
0.0
  70
0
  0
VERTEX
  8
a
  10
4.50541
  20
12.82219
  30
0.0
  70
0
  0
VERTEX
  8
a
  10
4.5579
  20
12.77772
  30
0.0
  70
0
  0
VERTEX
  8
a
  10
4.60872
  20
12.73237
  30
0.0
  70
0
  0
VERTEX
  8
a
  10
4.65783
  20
12.68616
  30
0.0
  70
0
  0
VERTEX
  8
a
  10
4.70514
  20
12.63906
  30
0.0
  70
0
  0
VERTEX
  8
a
  10
4.75056
  20
12.59106
  30
0.0
  70
0
  0
VERTEX
  8
a
  10
4.79397
  20
12.54213
  30
0.0
  70
0
  0
VERTEX
  8
a
  10
4.83521
  20
12.49224
  30
0.0
  70
0
  0
VERTEX
  8
a
  10
4.85496
  20
12.46692
  30
0.0
  70
0
  0
VERTEX
  8
a
  10
4.87407
  20
12.44132
  30
0.0
  70
0
  0
VERTEX
  8
a
  10
4.8925
  20
12.41545
  30
0.0
  70
0
  0
VERTEX
  8
a
  10
4.90145
  20
12.40239
  30
0.0
  70
0
  0
VERTEX
  8
a
  10
4.9102
  20
12.38926
  30
0.0
  70
0
  0
VERTEX
  8
a
  10
4.91875
  20
12.37605
  30
0.0
  70
0
  0
VERTEX
  8
a
  10
5.25236
  20
12.49747
  30
0.0
  70
0
  0
VERTEX
  8
a
  10
5.25042
  20
12.51309
  30
0.0
  70
0
  0
VERTEX
  8
a
  10
5.24868
  20
12.52878
  30
0.0
  70
0
  0
VERTEX
  8
a
  10
5.24715
  20
12.54453
  30
0.0
  70
0
  0
VERTEX
  8
a
  10
5.24463
  20
12.5762
  30
0.0
  70
0
  0
VERTEX
  8
a
  10
5.24282
  20
12.60809
  30
0.0
  70
0
  0
VERTEX
  8
a
  10
5.24167
  20
12.64018
  30
0.0
  70
0
  0
VERTEX
  8
a
  10
5.24119
  20
12.70491
  30
0.0
  70
0
  0
VERTEX
  8
a
  10
5.243
  20
12.77029
  30
0.0
  70
0
  0
VERTEX
  8
a
  10
5.24694
  20
12.83625
  30
0.0
  70
0
  0
VERTEX
  8
a
  10
5.2529
  20
12.90274
  30
0.0
  70
0
  0
VERTEX
  8
a
  10
5.26082
  20
12.96972
  30
0.0
  70
0
  0
VERTEX
  8
a
  10
5.27061
  20
13.03712
  30
0.0
  70
0
  0
VERTEX
  8
a
  10
5.28222
  20
13.10493
  30
0.0
  70
0
  0
VERTEX
  8
a
  10
5.29211
  20
13.15602
  30
0.0
  70
0
  0
VERTEX
  8
a
  10
5.51274
  20
13.21513
  30
0.0
  70
0
  0
VERTEX
  8
a
  10
5.54685
  20
13.17583
  30
0.0
  70
0
  0
VERTEX
  8
a
  10
5.59081
  20
13.12292
  30
0.0
  70
0
  0
VERTEX
  8
a
  10
5.63299
  20
13.06944
  30
0.0
  70
0
  0
VERTEX
  8
a
  10
5.67333
  20
13.0154
  30
0.0
  70
0
  0
VERTEX
  8
a
  10
5.71174
  20
12.9608
  30
0.0
  70
0
  0
VERTEX
  8
a
  10
5.74814
  20
12.90564
  30
0.0
  70
0
  0
VERTEX
  8
a
  10
5.78239
  20
12.84992
  30
0.0
  70
0
  0
VERTEX
  8
a
  10
5.81434
  20
12.79363
  30
0.0
  70
0
  0
VERTEX
  8
a
  10
5.82939
  20
12.76526
  30
0.0
  70
0
  0
VERTEX
  8
a
  10
5.84376
  20
12.73673
  30
0.0
  70
0
  0
VERTEX
  8
a
  10
5.85742
  20
12.70805
  30
0.0
  70
0
  0
VERTEX
  8
a
  10
5.86397
  20
12.69364
  30
0.0
  70
0
  0
VERTEX
  8
a
  10
5.87031
  20
12.67919
  30
0.0
  70
0
  0
VERTEX
  8
a
  10
5.87643
  20
12.66469
  30
0.0
  70
0
  0
VERTEX
  8
a
  10
6.22606
  20
12.72634
  30
0.0
  70
0
  0
VERTEX
  8
a
  10
6.22686
  20
12.74206
  30
0.0
  70
0
  0
VERTEX
  8
a
  10
6.22787
  20
12.75781
  30
0.0
  70
0
  0
VERTEX
  8
a
  10
6.22909
  20
12.77358
  30
0.0
  70
0
  0
VERTEX
  8
a
  10
6.23212
  20
12.80521
  30
0.0
  70
0
  0
VERTEX
  8
a
  10
6.23587
  20
12.83693
  30
0.0
  70
0
  0
VERTEX
  8
a
  10
6.24031
  20
12.86874
  30
0.0
  70
0
  0
VERTEX
  8
a
  10
6.25108
  20
12.93256
  30
0.0
  70
0
  0
VERTEX
  8
a
  10
6.26421
  20
12.99664
  30
0.0
  70
0
  0
VERTEX
  8
a
  10
6.27955
  20
13.06092
  30
0.0
  70
0
  0
VERTEX
  8
a
  10
6.29697
  20
13.12536
  30
0.0
  70
0
  0
VERTEX
  8
a
  10
6.31639
  20
13.18994
  30
0.0
  70
0
  0
VERTEX
  8
a
  10
6.33774
  20
13.25462
  30
0.0
  70
0
  0
VERTEX
  8
a
  10
6.36095
  20
13.31938
  30
0.0
  70
0
  0
VERTEX
  8
a
  10
6.37956
  20
13.36798
  30
0.0
  70
0
  0
VERTEX
  8
a
  10
6.6071
  20
13.38789
  30
0.0
  70
0
  0
VERTEX
  8
a
  10
6.63387
  20
13.34326
  30
0.0
  70
0
  0
VERTEX
  8
a
  10
6.66797
  20
13.28352
  30
0.0
  70
0
  0
VERTEX
  8
a
  10
6.70023
  20
13.22352
  30
0.0
  70
0
  0
VERTEX
  8
a
  10
6.73057
  20
13.1633
  30
0.0
  70
0
  0
VERTEX
  8
a
  10
6.75892
  20
13.10285
  30
0.0
  70
0
  0
VERTEX
  8
a
  10
6.78518
  20
13.04222
  30
0.0
  70
0
  0
VERTEX
  8
a
  10
6.80924
  20
12.9814
  30
0.0
  70
0
  0
VERTEX
  8
a
  10
6.83093
  20
12.92041
  30
0.0
  70
0
  0
VERTEX
  8
a
  10
6.84082
  20
12.88986
  30
0.0
  70
0
  0
VERTEX
  8
a
  10
6.85002
  20
12.85927
  30
0.0
  70
0
  0
VERTEX
  8
a
  10
6.8585
  20
12.82865
  30
0.0
  70
0
  0
VERTEX
  8
a
  10
6.86244
  20
12.81333
  30
0.0
  70
0
  0
VERTEX
  8
a
  10
6.86617
  20
12.79799
  30
0.0
  70
0
  0
VERTEX
  8
a
  10
6.86969
  20
12.78265
  30
0.0
  70
0
  0
VERTEX
  8
a
  10
7.22471
  20
12.78265
  30
0.0
  70
0
  0
VERTEX
  8
a
  10
7.22822
  20
12.79799
  30
0.0
  70
0
  0
VERTEX
  8
a
  10
7.23196
  20
12.81333
  30
0.0
  70
0
  0
VERTEX
  8
a
  10
7.2359
  20
12.82865
  30
0.0
  70
0
  0
VERTEX
  8
a
  10
7.24437
  20
12.85927
  30
0.0
  70
0
  0
VERTEX
  8
a
  10
7.25358
  20
12.88986
  30
0.0
  70
0
  0
VERTEX
  8
a
  10
7.26347
  20
12.92041
  30
0.0
  70
0
  0
VERTEX
  8
a
  10
7.28516
  20
12.9814
  30
0.0
  70
0
  0
VERTEX
  8
a
  10
7.30922
  20
13.04222
  30
0.0
  70
0
  0
VERTEX
  8
a
  10
7.33548
  20
13.10285
  30
0.0
  70
0
  0
VERTEX
  8
a
  10
7.36383
  20
13.1633
  30
0.0
  70
0
  0
VERTEX
  8
a
  10
7.39417
  20
13.22352
  30
0.0
  70
0
  0
VERTEX
  8
a
  10
7.42642
  20
13.28352
  30
0.0
  70
0
  0
VERTEX
  8
a
  10
7.46053
  20
13.34326
  30
0.0
  70
0
  0
VERTEX
  8
a
  10
7.48729
  20
13.38789
  30
0.0
  70
0
  0
VERTEX
  8
a
  10
7.71484
  20
13.36798
  30
0.0
  70
0
  0
VERTEX
  8
a
  10
7.73345
  20
13.31938
  30
0.0
  70
0
  0
VERTEX
  8
a
  10
7.75666
  20
13.25462
  30
0.0
  70
0
  0
VERTEX
  8
a
  10
7.77801
  20
13.18994
  30
0.0
  70
0
  0
VERTEX
  8
a
  10
7.79743
  20
13.12536
  30
0.0
  70
0
  0
VERTEX
  8
a
  10
7.81485
  20
13.06092
  30
0.0
  70
0
  0
VERTEX
  8
a
  10
7.83018
  20
12.99664
  30
0.0
  70
0
  0
VERTEX
  8
a
  10
7.84331
  20
12.93256
  30
0.0
  70
0
  0
VERTEX
  8
a
  10
7.85409
  20
12.86874
  30
0.0
  70
0
  0
VERTEX
  8
a
  10
7.85852
  20
12.83693
  30
0.0
  70
0
  0
VERTEX
  8
a
  10
7.86228
  20
12.80521
  30
0.0
  70
0
  0
VERTEX
  8
a
  10
7.8653
  20
12.77358
  30
0.0
  70
0
  0
VERTEX
  8
a
  10
7.86652
  20
12.75781
  30
0.0
  70
0
  0
VERTEX
  8
a
  10
7.86754
  20
12.74206
  30
0.0
  70
0
  0
VERTEX
  8
a
  10
7.86834
  20
12.72634
  30
0.0
  70
0
  0
VERTEX
  8
a
  10
8.21796
  20
12.66469
  30
0.0
  70
0
  0
VERTEX
  8
a
  10
8.22409
  20
12.67919
  30
0.0
  70
0
  0
VERTEX
  8
a
  10
8.23043
  20
12.69364
  30
0.0
  70
0
  0
VERTEX
  8
a
  10
8.23697
  20
12.70805
  30
0.0
  70
0
  0
VERTEX
  8
a
  10
8.25063
  20
12.73673
  30
0.0
  70
0
  0
VERTEX
  8
a
  10
8.26501
  20
12.76526
  30
0.0
  70
0
  0
VERTEX
  8
a
  10
8.28005
  20
12.79363
  30
0.0
  70
0
  0
VERTEX
  8
a
  10
8.31201
  20
12.84992
  30
0.0
  70
0
  0
VERTEX
  8
a
  10
8.34626
  20
12.90564
  30
0.0
  70
0
  0
VERTEX
  8
a
  10
8.38265
  20
12.9608
  30
0.0
  70
0
  0
VERTEX
  8
a
  10
8.42107
  20
13.0154
  30
0.0
  70
0
  0
VERTEX
  8
a
  10
8.4614
  20
13.06944
  30
0.0
  70
0
  0
VERTEX
  8
a
  10
8.50359
  20
13.12292
  30
0.0
  70
0
  0
VERTEX
  8
a
  10
8.54755
  20
13.17583
  30
0.0
  70
0
  0
VERTEX
  8
a
  10
8.58165
  20
13.21513
  30
0.0
  70
0
  0
VERTEX
  8
a
  10
8.80229
  20
13.15602
  30
0.0
  70
0
  0
VERTEX
  8
a
  10
8.81217
  20
13.10493
  30
0.0
  70
0
  0
VERTEX
  8
a
  10
8.82379
  20
13.03712
  30
0.0
  70
0
  0
VERTEX
  8
a
  10
8.83358
  20
12.96972
  30
0.0
  70
0
  0
VERTEX
  8
a
  10
8.84149
  20
12.90274
  30
0.0
  70
0
  0
VERTEX
  8
a
  10
8.84746
  20
12.83625
  30
0.0
  70
0
  0
VERTEX
  8
a
  10
8.8514
  20
12.77029
  30
0.0
  70
0
  0
VERTEX
  8
a
  10
8.8532
  20
12.70491
  30
0.0
  70
0
  0
VERTEX
  8
a
  10
8.85273
  20
12.64018
  30
0.0
  70
0
  0
VERTEX
  8
a
  10
8.85157
  20
12.60809
  30
0.0
  70
0
  0
VERTEX
  8
a
  10
8.84976
  20
12.5762
  30
0.0
  70
0
  0
VERTEX
  8
a
  10
8.84725
  20
12.54453
  30
0.0
  70
0
  0
VERTEX
  8
a
  10
8.84571
  20
12.52878
  30
0.0
  70
0
  0
VERTEX
  8
a
  10
8.84398
  20
12.51309
  30
0.0
  70
0
  0
VERTEX
  8
a
  10
8.84203
  20
12.49747
  30
0.0
  70
0
  0
VERTEX
  8
a
  10
9.17564
  20
12.37605
  30
0.0
  70
0
  0
VERTEX
  8
a
  10
9.18419
  20
12.38926
  30
0.0
  70
0
  0
VERTEX
  8
a
  10
9.19295
  20
12.40239
  30
0.0
  70
0
  0
VERTEX
  8
a
  10
9.20189
  20
12.41545
  30
0.0
  70
0
  0
VERTEX
  8
a
  10
9.22033
  20
12.44132
  30
0.0
  70
0
  0
VERTEX
  8
a
  10
9.23944
  20
12.46692
  30
0.0
  70
0
  0
VERTEX
  8
a
  10
9.25918
  20
12.49224
  30
0.0
  70
0
  0
VERTEX
  8
a
  10
9.30042
  20
12.54213
  30
0.0
  70
0
  0
VERTEX
  8
a
  10
9.34383
  20
12.59106
  30
0.0
  70
0
  0
VERTEX
  8
a
  10
9.38925
  20
12.63906
  30
0.0
  70
0
  0
VERTEX
  8
a
  10
9.43656
  20
12.68616
  30
0.0
  70
0
  0
VERTEX
  8
a
  10
9.48567
  20
12.73237
  30
0.0
  70
0
  0
VERTEX
  8
a
  10
9.5365
  20
12.77772
  30
0.0
  70
0
  0
VERTEX
  8
a
  10
9.58898
  20
12.82219
  30
0.0
  70
0
  0
VERTEX
  8
a
  10
9.62939
  20
12.85497
  30
0.0
  70
0
  0
VERTEX
  8
a
  10
9.83641
  20
12.75844
  30
0.0
  70
0
  0
VERTEX
  8
a
  10
9.83727
  20
12.70641
  30
0.0
  70
0
  0
VERTEX
  8
a
  10
9.83694
  20
12.63762
  30
0.0
  70
0
  0
VERTEX
  8
a
  10
9.83487
  20
12.56954
  30
0.0
  70
0
  0
VERTEX
  8
a
  10
9.83104
  20
12.50221
  30
0.0
  70
0
  0
VERTEX
  8
a
  10
9.82537
  20
12.43569
  30
0.0
  70
0
  0
VERTEX
  8
a
  10
9.81779
  20
12.37004
  30
0.0
  70
0
  0
VERTEX
  8
a
  10
9.80822
  20
12.30534
  30
0.0
  70
0
  0
VERTEX
  8
a
  10
9.79651
  20
12.24168
  30
0.0
  70
0
  0
VERTEX
  8
a
  10
9.7898
  20
12.21028
  30
0.0
  70
0
  0
VERTEX
  8
a
  10
9.78248
  20
12.17919
  30
0.0
  70
0
  0
VERTEX
  8
a
  10
9.7745
  20
12.14843
  30
0.0
  70
0
  0
VERTEX
  8
a
  10
9.77026
  20
12.13319
  30
0.0
  70
0
  0
VERTEX
  8
a
  10
9.76582
  20
12.11804
  30
0.0
  70
0
  0
VERTEX
  8
a
  10
9.7612
  20
12.103
  30
0.0
  70
0
  0
VERTEX
  8
a
  10
10.06865
  20
11.92549
  30
0.0
  70
0
  0
VERTEX
  8
a
  10
10.07937
  20
11.93702
  30
0.0
  70
0
  0
VERTEX
  8
a
  10
10.09027
  20
11.94843
  30
0.0
  70
0
  0
VERTEX
  8
a
  10
10.10134
  20
11.95973
  30
0.0
  70
0
  0
VERTEX
  8
a
  10
10.12399
  20
11.98201
  30
0.0
  70
0
  0
VERTEX
  8
a
  10
10.14726
  20
12.0039
  30
0.0
  70
0
  0
VERTEX
  8
a
  10
10.1711
  20
12.02541
  30
0.0
  70
0
  0
VERTEX
  8
a
  10
10.22038
  20
12.06738
  30
0.0
  70
0
  0
VERTEX
  8
a
  10
10.27162
  20
12.10803
  30
0.0
  70
0
  0
VERTEX
  8
a
  10
10.32469
  20
12.14741
  30
0.0
  70
0
  0
VERTEX
  8
a
  10
10.37946
  20
12.18558
  30
0.0
  70
0
  0
VERTEX
  8
a
  10
10.43585
  20
12.22257
  30
0.0
  70
0
  0
VERTEX
  8
a
  10
10.49378
  20
12.25839
  30
0.0
  70
0
  0
VERTEX
  8
a
  10
10.55318
  20
12.29308
  30
0.0
  70
0
  0
VERTEX
  8
a
  10
10.59867
  20
12.31835
  30
0.0
  70
0
  0
VERTEX
  8
a
  10
10.78578
  20
12.18733
  30
0.0
  70
0
  0
VERTEX
  8
a
  10
10.7776
  20
12.13594
  30
0.0
  70
0
  0
VERTEX
  8
a
  10
10.76532
  20
12.06826
  30
0.0
  70
0
  0
VERTEX
  8
a
  10
10.75147
  20
12.00157
  30
0.0
  70
0
  0
VERTEX
  8
a
  10
10.736
  20
11.93593
  30
0.0
  70
0
  0
VERTEX
  8
a
  10
10.71886
  20
11.8714
  30
0.0
  70
0
  0
VERTEX
  8
a
  10
10.7
  20
11.80807
  30
0.0
  70
0
  0
VERTEX
  8
a
  10
10.67934
  20
11.74601
  30
0.0
  70
0
  0
VERTEX
  8
a
  10
10.65675
  20
11.68535
  30
0.0
  70
0
  0
VERTEX
  8
a
  10
10.64469
  20
11.65559
  30
0.0
  70
0
  0
VERTEX
  8
a
  10
10.63208
  20
11.62625
  30
0.0
  70
0
  0
VERTEX
  8
a
  10
10.61889
  20
11.59734
  30
0.0
  70
0
  0
VERTEX
  8
a
  10
10.61206
  20
11.58307
  30
0.0
  70
0
  0
VERTEX
  8
a
  10
10.60507
  20
11.56892
  30
0.0
  70
0
  0
VERTEX
  8
a
  10
10.5979
  20
11.55491
  30
0.0
  70
0
  0
VERTEX
  8
a
  10
10.86986
  20
11.32671
  30
0.0
  70
0
  0
VERTEX
  8
a
  10
10.88241
  20
11.3362
  30
0.0
  70
0
  0
VERTEX
  8
a
  10
10.89513
  20
11.34555
  30
0.0
  70
0
  0
VERTEX
  8
a
  10
10.908
  20
11.35475
  30
0.0
  70
0
  0
VERTEX
  8
a
  10
10.93417
  20
11.37276
  30
0.0
  70
0
  0
VERTEX
  8
a
  10
10.96088
  20
11.39028
  30
0.0
  70
0
  0
VERTEX
  8
a
  10
10.9881
  20
11.40732
  30
0.0
  70
0
  0
VERTEX
  8
a
  10
11.04391
  20
11.4401
  30
0.0
  70
0
  0
VERTEX
  8
a
  10
11.10144
  20
11.47123
  30
0.0
  70
0
  0
VERTEX
  8
a
  10
11.16054
  20
11.5008
  30
0.0
  70
0
  0
VERTEX
  8
a
  10
11.2211
  20
11.52887
  30
0.0
  70
0
  0
VERTEX
  8
a
  10
11.28306
  20
11.55551
  30
0.0
  70
0
  0
VERTEX
  8
a
  10
11.34633
  20
11.58073
  30
0.0
  70
0
  0
VERTEX
  8
a
  10
11.41086
  20
11.60457
  30
0.0
  70
0
  0
VERTEX
  8
a
  10
11.46004
  20
11.62156
  30
0.0
  70
0
  0
VERTEX
  8
a
  10
11.62156
  20
11.46004
  30
0.0
  70
0
  0
VERTEX
  8
a
  10
11.60457
  20
11.41086
  30
0.0
  70
0
  0
VERTEX
  8
a
  10
11.58073
  20
11.34633
  30
0.0
  70
0
  0
VERTEX
  8
a
  10
11.55551
  20
11.28306
  30
0.0
  70
0
  0
VERTEX
  8
a
  10
11.52887
  20
11.2211
  30
0.0
  70
0
  0
VERTEX
  8
a
  10
11.5008
  20
11.16054
  30
0.0
  70
0
  0
VERTEX
  8
a
  10
11.47123
  20
11.10144
  30
0.0
  70
0
  0
VERTEX
  8
a
  10
11.4401
  20
11.04391
  30
0.0
  70
0
  0
VERTEX
  8
a
  10
11.40732
  20
10.9881
  30
0.0
  70
0
  0
VERTEX
  8
a
  10
11.39028
  20
10.96088
  30
0.0
  70
0
  0
VERTEX
  8
a
  10
11.37276
  20
10.93417
  30
0.0
  70
0
  0
VERTEX
  8
a
  10
11.35475
  20
10.908
  30
0.0
  70
0
  0
VERTEX
  8
a
  10
11.34555
  20
10.89513
  30
0.0
  70
0
  0
VERTEX
  8
a
  10
11.3362
  20
10.88241
  30
0.0
  70
0
  0
VERTEX
  8
a
  10
11.32671
  20
10.86986
  30
0.0
  70
0
  0
VERTEX
  8
a
  10
11.55491
  20
10.5979
  30
0.0
  70
0
  0
VERTEX
  8
a
  10
11.56892
  20
10.60507
  30
0.0
  70
0
  0
VERTEX
  8
a
  10
11.58307
  20
10.61206
  30
0.0
  70
0
  0
VERTEX
  8
a
  10
11.59734
  20
10.61889
  30
0.0
  70
0
  0
VERTEX
  8
a
  10
11.62625
  20
10.63208
  30
0.0
  70
0
  0
VERTEX
  8
a
  10
11.65559
  20
10.64469
  30
0.0
  70
0
  0
VERTEX
  8
a
  10
11.68535
  20
10.65675
  30
0.0
  70
0
  0
VERTEX
  8
a
  10
11.74601
  20
10.67934
  30
0.0
  70
0
  0
VERTEX
  8
a
  10
11.80807
  20
10.7
  30
0.0
  70
0
  0
VERTEX
  8
a
  10
11.8714
  20
10.71886
  30
0.0
  70
0
  0
VERTEX
  8
a
  10
11.93593
  20
10.736
  30
0.0
  70
0
  0
VERTEX
  8
a
  10
12.00157
  20
10.75147
  30
0.0
  70
0
  0
VERTEX
  8
a
  10
12.06826
  20
10.76532
  30
0.0
  70
0
  0
VERTEX
  8
a
  10
12.13594
  20
10.7776
  30
0.0
  70
0
  0
VERTEX
  8
a
  10
12.18733
  20
10.78578
  30
0.0
  70
0
  0
VERTEX
  8
a
  10
12.31835
  20
10.59867
  30
0.0
  70
0
  0
VERTEX
  8
a
  10
12.29308
  20
10.55318
  30
0.0
  70
0
  0
VERTEX
  8
a
  10
12.25839
  20
10.49378
  30
0.0
  70
0
  0
VERTEX
  8
a
  10
12.22257
  20
10.43585
  30
0.0
  70
0
  0
VERTEX
  8
a
  10
12.18558
  20
10.37946
  30
0.0
  70
0
  0
VERTEX
  8
a
  10
12.14741
  20
10.32469
  30
0.0
  70
0
  0
VERTEX
  8
a
  10
12.10803
  20
10.27162
  30
0.0
  70
0
  0
VERTEX
  8
a
  10
12.06738
  20
10.22038
  30
0.0
  70
0
  0
VERTEX
  8
a
  10
12.02541
  20
10.1711
  30
0.0
  70
0
  0
VERTEX
  8
a
  10
12.0039
  20
10.14726
  30
0.0
  70
0
  0
VERTEX
  8
a
  10
11.98201
  20
10.12399
  30
0.0
  70
0
  0
VERTEX
  8
a
  10
11.95973
  20
10.10134
  30
0.0
  70
0
  0
VERTEX
  8
a
  10
11.94843
  20
10.09027
  30
0.0
  70
0
  0
VERTEX
  8
a
  10
11.93702
  20
10.07937
  30
0.0
  70
0
  0
VERTEX
  8
a
  10
11.92549
  20
10.06865
  30
0.0
  70
0
  0
VERTEX
  8
a
  10
12.103
  20
9.7612
  30
0.0
  70
0
  0
VERTEX
  8
a
  10
12.11804
  20
9.76582
  30
0.0
  70
0
  0
VERTEX
  8
a
  10
12.13319
  20
9.77026
  30
0.0
  70
0
  0
VERTEX
  8
a
  10
12.14843
  20
9.7745
  30
0.0
  70
0
  0
VERTEX
  8
a
  10
12.17919
  20
9.78248
  30
0.0
  70
0
  0
VERTEX
  8
a
  10
12.21028
  20
9.7898
  30
0.0
  70
0
  0
VERTEX
  8
a
  10
12.24168
  20
9.79651
  30
0.0
  70
0
  0
VERTEX
  8
a
  10
12.30534
  20
9.80822
  30
0.0
  70
0
  0
VERTEX
  8
a
  10
12.37004
  20
9.81779
  30
0.0
  70
0
  0
VERTEX
  8
a
  10
12.43569
  20
9.82537
  30
0.0
  70
0
  0
VERTEX
  8
a
  10
12.50221
  20
9.83104
  30
0.0
  70
0
  0
VERTEX
  8
a
  10
12.56954
  20
9.83487
  30
0.0
  70
0
  0
VERTEX
  8
a
  10
12.63762
  20
9.83694
  30
0.0
  70
0
  0
VERTEX
  8
a
  10
12.70641
  20
9.83727
  30
0.0
  70
0
  0
VERTEX
  8
a
  10
12.75844
  20
9.83641
  30
0.0
  70
0
  0
VERTEX
  8
a
  10
12.85497
  20
9.62939
  30
0.0
  70
0
  0
VERTEX
  8
a
  10
12.82219
  20
9.58898
  30
0.0
  70
0
  0
VERTEX
  8
a
  10
12.77772
  20
9.5365
  30
0.0
  70
0
  0
VERTEX
  8
a
  10
12.73237
  20
9.48567
  30
0.0
  70
0
  0
VERTEX
  8
a
  10
12.68616
  20
9.43656
  30
0.0
  70
0
  0
VERTEX
  8
a
  10
12.63906
  20
9.38925
  30
0.0
  70
0
  0
VERTEX
  8
a
  10
12.59106
  20
9.34383
  30
0.0
  70
0
  0
VERTEX
  8
a
  10
12.54213
  20
9.30042
  30
0.0
  70
0
  0
VERTEX
  8
a
  10
12.49224
  20
9.25918
  30
0.0
  70
0
  0
VERTEX
  8
a
  10
12.46692
  20
9.23944
  30
0.0
  70
0
  0
VERTEX
  8
a
  10
12.44132
  20
9.22033
  30
0.0
  70
0
  0
VERTEX
  8
a
  10
12.41545
  20
9.20189
  30
0.0
  70
0
  0
VERTEX
  8
a
  10
12.40239
  20
9.19295
  30
0.0
  70
0
  0
VERTEX
  8
a
  10
12.38926
  20
9.18419
  30
0.0
  70
0
  0
VERTEX
  8
a
  10
12.37605
  20
9.17564
  30
0.0
  70
0
  0
VERTEX
  8
a
  10
12.49747
  20
8.84203
  30
0.0
  70
0
  0
VERTEX
  8
a
  10
12.51309
  20
8.84398
  30
0.0
  70
0
  0
VERTEX
  8
a
  10
12.52878
  20
8.84571
  30
0.0
  70
0
  0
VERTEX
  8
a
  10
12.54453
  20
8.84725
  30
0.0
  70
0
  0
VERTEX
  8
a
  10
12.5762
  20
8.84976
  30
0.0
  70
0
  0
VERTEX
  8
a
  10
12.60809
  20
8.85157
  30
0.0
  70
0
  0
VERTEX
  8
a
  10
12.64018
  20
8.85273
  30
0.0
  70
0
  0
VERTEX
  8
a
  10
12.70491
  20
8.8532
  30
0.0
  70
0
  0
VERTEX
  8
a
  10
12.77029
  20
8.8514
  30
0.0
  70
0
  0
VERTEX
  8
a
  10
12.83625
  20
8.84746
  30
0.0
  70
0
  0
VERTEX
  8
a
  10
12.90274
  20
8.84149
  30
0.0
  70
0
  0
VERTEX
  8
a
  10
12.96972
  20
8.83358
  30
0.0
  70
0
  0
VERTEX
  8
a
  10
13.03712
  20
8.82379
  30
0.0
  70
0
  0
VERTEX
  8
a
  10
13.10493
  20
8.81217
  30
0.0
  70
0
  0
VERTEX
  8
a
  10
13.15602
  20
8.80229
  30
0.0
  70
0
  0
VERTEX
  8
a
  10
13.21513
  20
8.58165
  30
0.0
  70
0
  0
VERTEX
  8
a
  10
13.17583
  20
8.54755
  30
0.0
  70
0
  0
VERTEX
  8
a
  10
13.12292
  20
8.50359
  30
0.0
  70
0
  0
VERTEX
  8
a
  10
13.06944
  20
8.4614
  30
0.0
  70
0
  0
VERTEX
  8
a
  10
13.0154
  20
8.42107
  30
0.0
  70
0
  0
VERTEX
  8
a
  10
12.9608
  20
8.38265
  30
0.0
  70
0
  0
VERTEX
  8
a
  10
12.90564
  20
8.34626
  30
0.0
  70
0
  0
VERTEX
  8
a
  10
12.84992
  20
8.31201
  30
0.0
  70
0
  0
VERTEX
  8
a
  10
12.79363
  20
8.28005
  30
0.0
  70
0
  0
VERTEX
  8
a
  10
12.76526
  20
8.26501
  30
0.0
  70
0
  0
VERTEX
  8
a
  10
12.73673
  20
8.25063
  30
0.0
  70
0
  0
VERTEX
  8
a
  10
12.70805
  20
8.23697
  30
0.0
  70
0
  0
VERTEX
  8
a
  10
12.69364
  20
8.23043
  30
0.0
  70
0
  0
VERTEX
  8
a
  10
12.67919
  20
8.22409
  30
0.0
  70
0
  0
VERTEX
  8
a
  10
12.66469
  20
8.21796
  30
0.0
  70
0
  0
VERTEX
  8
a
  10
12.72634
  20
7.86834
  30
0.0
  70
0
  0
VERTEX
  8
a
  10
12.74206
  20
7.86754
  30
0.0
  70
0
  0
VERTEX
  8
a
  10
12.75781
  20
7.86652
  30
0.0
  70
0
  0
VERTEX
  8
a
  10
12.77358
  20
7.8653
  30
0.0
  70
0
  0
VERTEX
  8
a
  10
12.80521
  20
7.86228
  30
0.0
  70
0
  0
VERTEX
  8
a
  10
12.83693
  20
7.85852
  30
0.0
  70
0
  0
VERTEX
  8
a
  10
12.86874
  20
7.85409
  30
0.0
  70
0
  0
VERTEX
  8
a
  10
12.93256
  20
7.84331
  30
0.0
  70
0
  0
VERTEX
  8
a
  10
12.99664
  20
7.83018
  30
0.0
  70
0
  0
VERTEX
  8
a
  10
13.06092
  20
7.81485
  30
0.0
  70
0
  0
VERTEX
  8
a
  10
13.12536
  20
7.79743
  30
0.0
  70
0
  0
VERTEX
  8
a
  10
13.18994
  20
7.77801
  30
0.0
  70
0
  0
VERTEX
  8
a
  10
13.25462
  20
7.75666
  30
0.0
  70
0
  0
VERTEX
  8
a
  10
13.31938
  20
7.73345
  30
0.0
  70
0
  0
VERTEX
  8
a
  10
13.36798
  20
7.71484
  30
0.0
  70
0
  0
VERTEX
  8
a
  10
13.38789
  20
7.48729
  30
0.0
  70
0
  0
VERTEX
  8
a
  10
13.34326
  20
7.46053
  30
0.0
  70
0
  0
VERTEX
  8
a
  10
13.28352
  20
7.42642
  30
0.0
  70
0
  0
VERTEX
  8
a
  10
13.22352
  20
7.39417
  30
0.0
  70
0
  0
VERTEX
  8
a
  10
13.1633
  20
7.36383
  30
0.0
  70
0
  0
VERTEX
  8
a
  10
13.10285
  20
7.33548
  30
0.0
  70
0
  0
VERTEX
  8
a
  10
13.04222
  20
7.30922
  30
0.0
  70
0
  0
VERTEX
  8
a
  10
12.9814
  20
7.28516
  30
0.0
  70
0
  0
VERTEX
  8
a
  10
12.92041
  20
7.26347
  30
0.0
  70
0
  0
VERTEX
  8
a
  10
12.88986
  20
7.25358
  30
0.0
  70
0
  0
VERTEX
  8
a
  10
12.85927
  20
7.24437
  30
0.0
  70
0
  0
VERTEX
  8
a
  10
12.82865
  20
7.2359
  30
0.0
  70
0
  0
VERTEX
  8
a
  10
12.81333
  20
7.23196
  30
0.0
  70
0
  0
VERTEX
  8
a
  10
12.79799
  20
7.22822
  30
0.0
  70
0
  0
VERTEX
  8
a
  10
12.78265
  20
7.22471
  30
0.0
  70
0
  0
VERTEX
  8
a
  10
12.78265
  20
6.86969
  30
0.0
  70
0
  0
VERTEX
  8
a
  10
12.79799
  20
6.86617
  30
0.0
  70
0
  0
VERTEX
  8
a
  10
12.81333
  20
6.86244
  30
0.0
  70
0
  0
VERTEX
  8
a
  10
12.82865
  20
6.8585
  30
0.0
  70
0
  0
VERTEX
  8
a
  10
12.85927
  20
6.85002
  30
0.0
  70
0
  0
VERTEX
  8
a
  10
12.88986
  20
6.84082
  30
0.0
  70
0
  0
VERTEX
  8
a
  10
12.92041
  20
6.83093
  30
0.0
  70
0
  0
VERTEX
  8
a
  10
12.9814
  20
6.80924
  30
0.0
  70
0
  0
VERTEX
  8
a
  10
13.04222
  20
6.78518
  30
0.0
  70
0
  0
VERTEX
  8
a
  10
13.10285
  20
6.75892
  30
0.0
  70
0
  0
VERTEX
  8
a
  10
13.1633
  20
6.73057
  30
0.0
  70
0
  0
VERTEX
  8
a
  10
13.22352
  20
6.70023
  30
0.0
  70
0
  0
VERTEX
  8
a
  10
13.28352
  20
6.66797
  30
0.0
  70
0
  0
VERTEX
  8
a
  10
13.34326
  20
6.63387
  30
0.0
  70
0
  0
VERTEX
  8
a
  10
13.38789
  20
6.6071
  30
0.0
  70
0
  0
VERTEX
  8
a
  10
13.36798
  20
6.37956
  30
0.0
  70
0
  0
VERTEX
  8
a
  10
13.31938
  20
6.36095
  30
0.0
  70
0
  0
VERTEX
  8
a
  10
13.25462
  20
6.33774
  30
0.0
  70
0
  0
VERTEX
  8
a
  10
13.18994
  20
6.31639
  30
0.0
  70
0
  0
VERTEX
  8
a
  10
13.12536
  20
6.29697
  30
0.0
  70
0
  0
VERTEX
  8
a
  10
13.06092
  20
6.27955
  30
0.0
  70
0
  0
VERTEX
  8
a
  10
12.99664
  20
6.26421
  30
0.0
  70
0
  0
VERTEX
  8
a
  10
12.93256
  20
6.25108
  30
0.0
  70
0
  0
VERTEX
  8
a
  10
12.86874
  20
6.24031
  30
0.0
  70
0
  0
VERTEX
  8
a
  10
12.83693
  20
6.23587
  30
0.0
  70
0
  0
VERTEX
  8
a
  10
12.80521
  20
6.23212
  30
0.0
  70
0
  0
VERTEX
  8
a
  10
12.77358
  20
6.22909
  30
0.0
  70
0
  0
VERTEX
  8
a
  10
12.75781
  20
6.22787
  30
0.0
  70
0
  0
VERTEX
  8
a
  10
12.74206
  20
6.22686
  30
0.0
  70
0
  0
VERTEX
  8
a
  10
12.72634
  20
6.22606
  30
0.0
  70
0
  0
VERTEX
  8
a
  10
12.66469
  20
5.87643
  30
0.0
  70
0
  0
VERTEX
  8
a
  10
12.67919
  20
5.87031
  30
0.0
  70
0
  0
VERTEX
  8
a
  10
12.69364
  20
5.86397
  30
0.0
  70
0
  0
VERTEX
  8
a
  10
12.70805
  20
5.85742
  30
0.0
  70
0
  0
VERTEX
  8
a
  10
12.73673
  20
5.84376
  30
0.0
  70
0
  0
VERTEX
  8
a
  10
12.76526
  20
5.82939
  30
0.0
  70
0
  0
VERTEX
  8
a
  10
12.79363
  20
5.81434
  30
0.0
  70
0
  0
VERTEX
  8
a
  10
12.84992
  20
5.78239
  30
0.0
  70
0
  0
VERTEX
  8
a
  10
12.90564
  20
5.74814
  30
0.0
  70
0
  0
VERTEX
  8
a
  10
12.9608
  20
5.71174
  30
0.0
  70
0
  0
VERTEX
  8
a
  10
13.0154
  20
5.67333
  30
0.0
  70
0
  0
VERTEX
  8
a
  10
13.06944
  20
5.63299
  30
0.0
  70
0
  0
VERTEX
  8
a
  10
13.12292
  20
5.59081
  30
0.0
  70
0
  0
VERTEX
  8
a
  10
13.17583
  20
5.54685
  30
0.0
  70
0
  0
VERTEX
  8
a
  10
13.21513
  20
5.51274
  30
0.0
  70
0
  0
VERTEX
  8
a
  10
13.15602
  20
5.29211
  30
0.0
  70
0
  0
VERTEX
  8
a
  10
13.10493
  20
5.28222
  30
0.0
  70
0
  0
VERTEX
  8
a
  10
13.03712
  20
5.27061
  30
0.0
  70
0
  0
VERTEX
  8
a
  10
12.96972
  20
5.26082
  30
0.0
  70
0
  0
VERTEX
  8
a
  10
12.90274
  20
5.2529
  30
0.0
  70
0
  0
VERTEX
  8
a
  10
12.83625
  20
5.24694
  30
0.0
  70
0
  0
VERTEX
  8
a
  10
12.77029
  20
5.243
  30
0.0
  70
0
  0
VERTEX
  8
a
  10
12.70491
  20
5.24119
  30
0.0
  70
0
  0
VERTEX
  8
a
  10
12.64018
  20
5.24167
  30
0.0
  70
0
  0
VERTEX
  8
a
  10
12.60809
  20
5.24282
  30
0.0
  70
0
  0
VERTEX
  8
a
  10
12.5762
  20
5.24463
  30
0.0
  70
0
  0
VERTEX
  8
a
  10
12.54453
  20
5.24715
  30
0.0
  70
0
  0
VERTEX
  8
a
  10
12.52878
  20
5.24868
  30
0.0
  70
0
  0
VERTEX
  8
a
  10
12.51309
  20
5.25042
  30
0.0
  70
0
  0
VERTEX
  8
a
  10
12.49747
  20
5.25236
  30
0.0
  70
0
  0
VERTEX
  8
a
  10
12.37605
  20
4.91875
  30
0.0
  70
0
  0
VERTEX
  8
a
  10
12.38926
  20
4.9102
  30
0.0
  70
0
  0
VERTEX
  8
a
  10
12.40239
  20
4.90145
  30
0.0
  70
0
  0
VERTEX
  8
a
  10
12.41545
  20
4.8925
  30
0.0
  70
0
  0
VERTEX
  8
a
  10
12.44132
  20
4.87407
  30
0.0
  70
0
  0
VERTEX
  8
a
  10
12.46692
  20
4.85496
  30
0.0
  70
0
  0
VERTEX
  8
a
  10
12.49224
  20
4.83521
  30
0.0
  70
0
  0
VERTEX
  8
a
  10
12.54213
  20
4.79397
  30
0.0
  70
0
  0
VERTEX
  8
a
  10
12.59106
  20
4.75056
  30
0.0
  70
0
  0
VERTEX
  8
a
  10
12.63906
  20
4.70514
  30
0.0
  70
0
  0
VERTEX
  8
a
  10
12.68616
  20
4.65783
  30
0.0
  70
0
  0
VERTEX
  8
a
  10
12.73237
  20
4.60872
  30
0.0
  70
0
  0
VERTEX
  8
a
  10
12.77772
  20
4.5579
  30
0.0
  70
0
  0
VERTEX
  8
a
  10
12.82219
  20
4.50541
  30
0.0
  70
0
  0
VERTEX
  8
a
  10
12.85497
  20
4.465
  30
0.0
  70
0
  0
VERTEX
  8
a
  10
12.75844
  20
4.25798
  30
0.0
  70
0
  0
VERTEX
  8
a
  10
12.70641
  20
4.25712
  30
0.0
  70
0
  0
VERTEX
  8
a
  10
12.63762
  20
4.25746
  30
0.0
  70
0
  0
VERTEX
  8
a
  10
12.56954
  20
4.25952
  30
0.0
  70
0
  0
VERTEX
  8
a
  10
12.50221
  20
4.26336
  30
0.0
  70
0
  0
VERTEX
  8
a
  10
12.43569
  20
4.26903
  30
0.0
  70
0
  0
VERTEX
  8
a
  10
12.37004
  20
4.2766
  30
0.0
  70
0
  0
VERTEX
  8
a
  10
12.30534
  20
4.28618
  30
0.0
  70
0
  0
VERTEX
  8
a
  10
12.24168
  20
4.29789
  30
0.0
  70
0
  0
VERTEX
  8
a
  10
12.21028
  20
4.3046
  30
0.0
  70
0
  0
VERTEX
  8
a
  10
12.17919
  20
4.31192
  30
0.0
  70
0
  0
VERTEX
  8
a
  10
12.14843
  20
4.31989
  30
0.0
  70
0
  0
VERTEX
  8
a
  10
12.13319
  20
4.32414
  30
0.0
  70
0
  0
VERTEX
  8
a
  10
12.11804
  20
4.32857
  30
0.0
  70
0
  0
VERTEX
  8
a
  10
12.103
  20
4.3332
  30
0.0
  70
0
  0
VERTEX
  8
a
  10
11.92549
  20
4.02574
  30
0.0
  70
0
  0
VERTEX
  8
a
  10
11.93702
  20
4.01503
  30
0.0
  70
0
  0
VERTEX
  8
a
  10
11.94843
  20
4.00413
  30
0.0
  70
0
  0
VERTEX
  8
a
  10
11.95973
  20
3.99305
  30
0.0
  70
0
  0
VERTEX
  8
a
  10
11.98201
  20
3.9704
  30
0.0
  70
0
  0
VERTEX
  8
a
  10
12.0039
  20
3.94714
  30
0.0
  70
0
  0
VERTEX
  8
a
  10
12.02541
  20
3.9233
  30
0.0
  70
0
  0
VERTEX
  8
a
  10
12.06738
  20
3.87402
  30
0.0
  70
0
  0
VERTEX
  8
a
  10
12.10803
  20
3.82277
  30
0.0
  70
0
  0
VERTEX
  8
a
  10
12.14741
  20
3.76971
  30
0.0
  70
0
  0
VERTEX
  8
a
  10
12.18558
  20
3.71494
  30
0.0
  70
0
  0
VERTEX
  8
a
  10
12.22257
  20
3.65855
  30
0.0
  70
0
  0
VERTEX
  8
a
  10
12.25839
  20
3.60062
  30
0.0
  70
0
  0
VERTEX
  8
a
  10
12.29308
  20
3.54121
  30
0.0
  70
0
  0
VERTEX
  8
a
  10
12.31835
  20
3.49572
  30
0.0
  70
0
  0
VERTEX
  8
a
  10
12.18733
  20
3.30861
  30
0.0
  70
0
  0
VERTEX
  8
a
  10
12.13594
  20
3.3168
  30
0.0
  70
0
  0
VERTEX
  8
a
  10
12.06826
  20
3.32907
  30
0.0
  70
0
  0
VERTEX
  8
a
  10
12.00157
  20
3.34293
  30
0.0
  70
0
  0
VERTEX
  8
a
  10
11.93593
  20
3.3584
  30
0.0
  70
0
  0
VERTEX
  8
a
  10
11.8714
  20
3.37553
  30
0.0
  70
0
  0
VERTEX
  8
a
  10
11.80807
  20
3.39439
  30
0.0
  70
0
  0
VERTEX
  8
a
  10
11.74601
  20
3.41506
  30
0.0
  70
0
  0
VERTEX
  8
a
  10
11.68535
  20
3.43764
  30
0.0
  70
0
  0
VERTEX
  8
a
  10
11.65559
  20
3.4497
  30
0.0
  70
0
  0
VERTEX
  8
a
  10
11.62625
  20
3.46231
  30
0.0
  70
0
  0
VERTEX
  8
a
  10
11.59734
  20
3.4755
  30
0.0
  70
0
  0
VERTEX
  8
a
  10
11.58307
  20
3.48233
  30
0.0
  70
0
  0
VERTEX
  8
a
  10
11.56892
  20
3.48933
  30
0.0
  70
0
  0
VERTEX
  8
a
  10
11.55491
  20
3.4965
  30
0.0
  70
0
  0
VERTEX
  8
a
  10
11.32671
  20
3.22454
  30
0.0
  70
0
  0
VERTEX
  8
a
  10
11.3362
  20
3.21199
  30
0.0
  70
0
  0
VERTEX
  8
a
  10
11.34555
  20
3.19927
  30
0.0
  70
0
  0
VERTEX
  8
a
  10
11.35475
  20
3.1864
  30
0.0
  70
0
  0
VERTEX
  8
a
  10
11.37276
  20
3.16022
  30
0.0
  70
0
  0
VERTEX
  8
a
  10
11.39028
  20
3.13351
  30
0.0
  70
0
  0
VERTEX
  8
a
  10
11.40732
  20
3.1063
  30
0.0
  70
0
  0
VERTEX
  8
a
  10
11.4401
  20
3.05048
  30
0.0
  70
0
  0
VERTEX
  8
a
  10
11.47123
  20
2.99296
  30
0.0
  70
0
  0
VERTEX
  8
a
  10
11.5008
  20
2.93386
  30
0.0
  70
0
  0
VERTEX
  8
a
  10
11.52887
  20
2.87329
  30
0.0
  70
0
  0
VERTEX
  8
a
  10
11.55551
  20
2.81134
  30
0.0
  70
0
  0
VERTEX
  8
a
  10
11.58073
  20
2.74807
  30
0.0
  70
0
  0
VERTEX
  8
a
  10
11.60457
  20
2.68354
  30
0.0
  70
0
  0
VERTEX
  8
a
  10
11.62156
  20
2.63435
  30
0.0
  70
0
  0
VERTEX
  8
a
  10
11.46004
  20
2.47283
  30
0.0
  70
0
  0
VERTEX
  8
a
  10
11.41086
  20
2.48982
  30
0.0
  70
0
  0
VERTEX
  8
a
  10
11.34633
  20
2.51366
  30
0.0
  70
0
  0
VERTEX
  8
a
  10
11.28306
  20
2.53889
  30
0.0
  70
0
  0
VERTEX
  8
a
  10
11.2211
  20
2.56552
  30
0.0
  70
0
  0
VERTEX
  8
a
  10
11.16054
  20
2.5936
  30
0.0
  70
0
  0
VERTEX
  8
a
  10
11.10144
  20
2.62317
  30
0.0
  70
0
  0
VERTEX
  8
a
  10
11.04391
  20
2.6543
  30
0.0
  70
0
  0
VERTEX
  8
a
  10
10.9881
  20
2.68707
  30
0.0
  70
0
  0
VERTEX
  8
a
  10
10.96088
  20
2.70412
  30
0.0
  70
0
  0
VERTEX
  8
a
  10
10.93417
  20
2.72163
  30
0.0
  70
0
  0
VERTEX
  8
a
  10
10.908
  20
2.73964
  30
0.0
  70
0
  0
VERTEX
  8
a
  10
10.89513
  20
2.74885
  30
0.0
  70
0
  0
VERTEX
  8
a
  10
10.88241
  20
2.75819
  30
0.0
  70
0
  0
VERTEX
  8
a
  10
10.86986
  20
2.76769
  30
0.0
  70
0
  0
VERTEX
  8
a
  10
10.5979
  20
2.53948
  30
0.0
  70
0
  0
VERTEX
  8
a
  10
10.60507
  20
2.52547
  30
0.0
  70
0
  0
VERTEX
  8
a
  10
10.61206
  20
2.51133
  30
0.0
  70
0
  0
VERTEX
  8
a
  10
10.61889
  20
2.49705
  30
0.0
  70
0
  0
VERTEX
  8
a
  10
10.63208
  20
2.46815
  30
0.0
  70
0
  0
VERTEX
  8
a
  10
10.64469
  20
2.4388
  30
0.0
  70
0
  0
VERTEX
  8
a
  10
10.65675
  20
2.40904
  30
0.0
  70
0
  0
VERTEX
  8
a
  10
10.67934
  20
2.34838
  30
0.0
  70
0
  0
VERTEX
  8
a
  10
10.7
  20
2.28633
  30
0.0
  70
0
  0
VERTEX
  8
a
  10
10.71886
  20
2.22299
  30
0.0
  70
0
  0
VERTEX
  8
a
  10
10.736
  20
2.15847
  30
0.0
  70
0
  0
VERTEX
  8
a
  10
10.75147
  20
2.09283
  30
0.0
  70
0
  0
VERTEX
  8
a
  10
10.76532
  20
2.02614
  30
0.0
  70
0
  0
VERTEX
  8
a
  10
10.7776
  20
1.95845
  30
0.0
  70
0
  0
VERTEX
  8
a
  10
10.78578
  20
1.90706
  30
0.0
  70
0
  0
VERTEX
  8
a
  10
10.59867
  20
1.77605
  30
0.0
  70
0
  0
VERTEX
  8
a
  10
10.55318
  20
1.80132
  30
0.0
  70
0
  0
VERTEX
  8
a
  10
10.49378
  20
1.836
  30
0.0
  70
0
  0
VERTEX
  8
a
  10
10.43585
  20
1.87183
  30
0.0
  70
0
  0
VERTEX
  8
a
  10
10.37946
  20
1.90882
  30
0.0
  70
0
  0
VERTEX
  8
a
  10
10.32469
  20
1.94699
  30
0.0
  70
0
  0
VERTEX
  8
a
  10
10.27162
  20
1.98637
  30
0.0
  70
0
  0
VERTEX
  8
a
  10
10.22038
  20
2.02701
  30
0.0
  70
0
  0
VERTEX
  8
a
  10
10.1711
  20
2.06898
  30
0.0
  70
0
  0
VERTEX
  8
a
  10
10.14726
  20
2.09049
  30
0.0
  70
0
  0
VERTEX
  8
a
  10
10.12399
  20
2.11238
  30
0.0
  70
0
  0
VERTEX
  8
a
  10
10.10134
  20
2.13466
  30
0.0
  70
0
  0
VERTEX
  8
a
  10
10.09027
  20
2.14596
  30
0.0
  70
0
  0
VERTEX
  8
a
  10
10.07937
  20
2.15737
  30
0.0
  70
0
  0
VERTEX
  8
a
  10
10.06865
  20
2.1689
  30
0.0
  70
0
  0
VERTEX
  8
a
  10
9.7612
  20
1.99139
  30
0.0
  70
0
  0
VERTEX
  8
a
  10
9.76582
  20
1.97635
  30
0.0
  70
0
  0
VERTEX
  8
a
  10
9.77026
  20
1.9612
  30
0.0
  70
0
  0
VERTEX
  8
a
  10
9.7745
  20
1.94596
  30
0.0
  70
0
  0
VERTEX
  8
a
  10
9.78248
  20
1.91521
  30
0.0
  70
0
  0
VERTEX
  8
a
  10
9.7898
  20
1.88411
  30
0.0
  70
0
  0
VERTEX
  8
a
  10
9.79651
  20
1.85271
  30
0.0
  70
0
  0
VERTEX
  8
a
  10
9.80822
  20
1.78905
  30
0.0
  70
0
  0
VERTEX
  8
a
  10
9.81779
  20
1.72435
  30
0.0
  70
0
  0
VERTEX
  8
a
  10
9.82537
  20
1.6587
  30
0.0
  70
0
  0
VERTEX
  8
a
  10
9.83104
  20
1.59219
  30
0.0
  70
0
  0
VERTEX
  8
a
  10
9.83487
  20
1.52486
  30
0.0
  70
0
  0
VERTEX
  8
a
  10
9.83694
  20
1.45678
  30
0.0
  70
0
  0
VERTEX
  8
a
  10
9.83727
  20
1.38799
  30
0.0
  70
0
  0
VERTEX
  8
a
  10
9.83641
  20
1.33595
  30
0.0
  70
0
  0
VERTEX
  8
a
  10
9.62939
  20
1.23942
  30
0.0
  70
0
  0
VERTEX
  8
a
  10
9.58898
  20
1.2722
  30
0.0
  70
0
  0
VERTEX
  8
a
  10
9.5365
  20
1.31668
  30
0.0
  70
0
  0
VERTEX
  8
a
  10
9.48567
  20
1.36202
  30
0.0
  70
0
  0
VERTEX
  8
a
  10
9.43656
  20
1.40824
  30
0.0
  70
0
  0
VERTEX
  8
a
  10
9.38925
  20
1.45534
  30
0.0
  70
0
  0
VERTEX
  8
a
  10
9.34383
  20
1.50334
  30
0.0
  70
0
  0
VERTEX
  8
a
  10
9.30042
  20
1.55226
  30
0.0
  70
0
  0
VERTEX
  8
a
  10
9.25918
  20
1.60215
  30
0.0
  70
0
  0
VERTEX
  8
a
  10
9.23944
  20
1.62748
  30
0.0
  70
0
  0
VERTEX
  8
a
  10
9.22033
  20
1.65307
  30
0.0
  70
0
  0
VERTEX
  8
a
  10
9.20189
  20
1.67895
  30
0.0
  70
0
  0
VERTEX
  8
a
  10
9.19295
  20
1.692
  30
0.0
  70
0
  0
VERTEX
  8
a
  10
9.18419
  20
1.70513
  30
0.0
  70
0
  0
VERTEX
  8
a
  10
9.17564
  20
1.71835
  30
0.0
  70
0
  0
VERTEX
  8
a
  10
8.84203
  20
1.59692
  30
0.0
  70
0
  0
VERTEX
  8
a
  10
8.84398
  20
1.5813
  30
0.0
  70
0
  0
VERTEX
  8
a
  10
8.84571
  20
1.56562
  30
0.0
  70
0
  0
VERTEX
  8
a
  10
8.84725
  20
1.54987
  30
0.0
  70
0
  0
VERTEX
  8
a
  10
8.84976
  20
1.5182
  30
0.0
  70
0
  0
VERTEX
  8
a
  10
8.85157
  20
1.48631
  30
0.0
  70
0
  0
VERTEX
  8
a
  10
8.85273
  20
1.45421
  30
0.0
  70
0
  0
VERTEX
  8
a
  10
8.8532
  20
1.38949
  30
0.0
  70
0
  0
VERTEX
  8
a
  10
8.8514
  20
1.32411
  30
0.0
  70
0
  0
VERTEX
  8
a
  10
8.84746
  20
1.25814
  30
0.0
  70
0
  0
VERTEX
  8
a
  10
8.84149
  20
1.19165
  30
0.0
  70
0
  0
VERTEX
  8
a
  10
8.83358
  20
1.12468
  30
0.0
  70
0
  0
VERTEX
  8
a
  10
8.82379
  20
1.05727
  30
0.0
  70
0
  0
VERTEX
  8
a
  10
8.81217
  20
0.98947
  30
0.0
  70
0
  0
VERTEX
  8
a
  10
8.80229
  20
0.93838
  30
0.0
  70
0
  0
VERTEX
  8
a
  10
8.58165
  20
0.87926
  30
0.0
  70
0
  0
VERTEX
  8
a
  10
8.54755
  20
0.91856
  30
0.0
  70
0
  0
VERTEX
  8
a
  10
8.50359
  20
0.97147
  30
0.0
  70
0
  0
VERTEX
  8
a
  10
8.4614
  20
1.02496
  30
0.0
  70
0
  0
VERTEX
  8
a
  10
8.42107
  20
1.079
  30
0.0
  70
0
  0
VERTEX
  8
a
  10
8.38265
  20
1.1336
  30
0.0
  70
0
  0
VERTEX
  8
a
  10
8.34626
  20
1.18876
  30
0.0
  70
0
  0
VERTEX
  8
a
  10
8.31201
  20
1.24448
  30
0.0
  70
0
  0
VERTEX
  8
a
  10
8.28005
  20
1.30077
  30
0.0
  70
0
  0
VERTEX
  8
a
  10
8.26501
  20
1.32914
  30
0.0
  70
0
  0
VERTEX
  8
a
  10
8.25063
  20
1.35766
  30
0.0
  70
0
  0
VERTEX
  8
a
  10
8.23697
  20
1.38635
  30
0.0
  70
0
  0
VERTEX
  8
a
  10
8.23043
  20
1.40075
  30
0.0
  70
0
  0
VERTEX
  8
a
  10
8.22409
  20
1.4152
  30
0.0
  70
0
  0
VERTEX
  8
a
  10
8.21796
  20
1.4297
  30
0.0
  70
0
  0
VERTEX
  8
a
  10
7.86834
  20
1.36805
  30
0.0
  70
0
  0
VERTEX
  8
a
  10
7.86754
  20
1.35233
  30
0.0
  70
0
  0
VERTEX
  8
a
  10
7.86652
  20
1.33659
  30
0.0
  70
0
  0
VERTEX
  8
a
  10
7.8653
  20
1.32081
  30
0.0
  70
0
  0
VERTEX
  8
a
  10
7.86228
  20
1.28918
  30
0.0
  70
0
  0
VERTEX
  8
a
  10
7.85852
  20
1.25746
  30
0.0
  70
0
  0
VERTEX
  8
a
  10
7.85409
  20
1.22566
  30
0.0
  70
0
  0
VERTEX
  8
a
  10
7.84331
  20
1.16183
  30
0.0
  70
0
  0
VERTEX
  8
a
  10
7.83018
  20
1.09776
  30
0.0
  70
0
  0
VERTEX
  8
a
  10
7.81485
  20
1.03348
  30
0.0
  70
0
  0
VERTEX
  8
a
  10
7.79743
  20
0.96903
  30
0.0
  70
0
  0
VERTEX
  8
a
  10
7.77801
  20
0.90445
  30
0.0
  70
0
  0
VERTEX
  8
a
  10
7.75666
  20
0.83977
  30
0.0
  70
0
  0
VERTEX
  8
a
  10
7.73345
  20
0.77502
  30
0.0
  70
0
  0
VERTEX
  8
a
  10
7.71484
  20
0.72642
  30
0.0
  70
0
  0
VERTEX
  8
a
  10
7.48729
  20
0.70651
  30
0.0
  70
0
  0
VERTEX
  8
a
  10
7.46053
  20
0.75114
  30
0.0
  70
0
  0
VERTEX
  8
a
  10
7.42642
  20
0.81088
  30
0.0
  70
0
  0
VERTEX
  8
a
  10
7.39417
  20
0.87087
  30
0.0
  70
0
  0
VERTEX
  8
a
  10
7.36383
  20
0.9311
  30
0.0
  70
0
  0
VERTEX
  8
a
  10
7.33548
  20
0.99154
  30
0.0
  70
0
  0
VERTEX
  8
a
  10
7.30922
  20
1.05218
  30
0.0
  70
0
  0
VERTEX
  8
a
  10
7.28516
  20
1.113
  30
0.0
  70
0
  0
VERTEX
  8
a
  10
7.26347
  20
1.17399
  30
0.0
  70
0
  0
VERTEX
  8
a
  10
7.25358
  20
1.20454
  30
0.0
  70
0
  0
VERTEX
  8
a
  10
7.24437
  20
1.23512
  30
0.0
  70
0
  0
VERTEX
  8
a
  10
7.2359
  20
1.26574
  30
0.0
  70
0
  0
VERTEX
  8
a
  10
7.23196
  20
1.28107
  30
0.0
  70
0
  0
VERTEX
  8
a
  10
7.22822
  20
1.2964
  30
0.0
  70
0
  0
VERTEX
  8
a
  10
7.22471
  20
1.31174
  30
0.0
  70
0
  0
VERTEX
  8
a
  10
6.86969
  20
1.31174
  30
0.0
  70
0
  0
VERTEX
  8
a
  10
6.86617
  20
1.2964
  30
0.0
  70
0
  0
VERTEX
  8
a
  10
6.86244
  20
1.28107
  30
0.0
  70
0
  0
VERTEX
  8
a
  10
6.8585
  20
1.26574
  30
0.0
  70
0
  0
VERTEX
  8
a
  10
6.85002
  20
1.23512
  30
0.0
  70
0
  0
VERTEX
  8
a
  10
6.84082
  20
1.20454
  30
0.0
  70
0
  0
VERTEX
  8
a
  10
6.83093
  20
1.17399
  30
0.0
  70
0
  0
VERTEX
  8
a
  10
6.80924
  20
1.113
  30
0.0
  70
0
  0
VERTEX
  8
a
  10
6.78518
  20
1.05218
  30
0.0
  70
0
  0
VERTEX
  8
a
  10
6.75892
  20
0.99154
  30
0.0
  70
0
  0
VERTEX
  8
a
  10
6.73057
  20
0.9311
  30
0.0
  70
0
  0
VERTEX
  8
a
  10
6.70023
  20
0.87087
  30
0.0
  70
0
  0
VERTEX
  8
a
  10
6.66797
  20
0.81088
  30
0.0
  70
0
  0
VERTEX
  8
a
  10
6.63387
  20
0.75114
  30
0.0
  70
0
  0
VERTEX
  8
a
  10
6.6071
  20
0.70651
  30
0.0
  70
0
  0
VERTEX
  8
a
  10
6.37956
  20
0.72642
  30
0.0
  70
0
  0
VERTEX
  8
a
  10
6.36095
  20
0.77502
  30
0.0
  70
0
  0
VERTEX
  8
a
  10
6.33774
  20
0.83977
  30
0.0
  70
0
  0
VERTEX
  8
a
  10
6.31639
  20
0.90445
  30
0.0
  70
0
  0
VERTEX
  8
a
  10
6.29697
  20
0.96903
  30
0.0
  70
0
  0
VERTEX
  8
a
  10
6.27955
  20
1.03348
  30
0.0
  70
0
  0
VERTEX
  8
a
  10
6.26421
  20
1.09776
  30
0.0
  70
0
  0
VERTEX
  8
a
  10
6.25108
  20
1.16183
  30
0.0
  70
0
  0
VERTEX
  8
a
  10
6.24031
  20
1.22566
  30
0.0
  70
0
  0
VERTEX
  8
a
  10
6.23587
  20
1.25746
  30
0.0
  70
0
  0
VERTEX
  8
a
  10
6.23212
  20
1.28918
  30
0.0
  70
0
  0
VERTEX
  8
a
  10
6.22909
  20
1.32081
  30
0.0
  70
0
  0
VERTEX
  8
a
  10
6.22787
  20
1.33659
  30
0.0
  70
0
  0
VERTEX
  8
a
  10
6.22686
  20
1.35233
  30
0.0
  70
0
  0
VERTEX
  8
a
  10
6.22606
  20
1.36805
  30
0.0
  70
0
  0
VERTEX
  8
a
  10
5.87643
  20
1.4297
  30
0.0
  70
0
  0
VERTEX
  8
a
  10
5.87031
  20
1.4152
  30
0.0
  70
0
  0
VERTEX
  8
a
  10
5.86397
  20
1.40075
  30
0.0
  70
0
  0
VERTEX
  8
a
  10
5.85742
  20
1.38635
  30
0.0
  70
0
  0
VERTEX
  8
a
  10
5.84376
  20
1.35766
  30
0.0
  70
0
  0
VERTEX
  8
a
  10
5.82939
  20
1.32914
  30
0.0
  70
0
  0
VERTEX
  8
a
  10
5.81434
  20
1.30077
  30
0.0
  70
0
  0
VERTEX
  8
a
  10
5.78239
  20
1.24448
  30
0.0
  70
0
  0
VERTEX
  8
a
  10
5.74814
  20
1.18876
  30
0.0
  70
0
  0
VERTEX
  8
a
  10
5.71174
  20
1.1336
  30
0.0
  70
0
  0
VERTEX
  8
a
  10
5.67333
  20
1.079
  30
0.0
  70
0
  0
VERTEX
  8
a
  10
5.63299
  20
1.02496
  30
0.0
  70
0
  0
VERTEX
  8
a
  10
5.59081
  20
0.97147
  30
0.0
  70
0
  0
VERTEX
  8
a
  10
5.54685
  20
0.91856
  30
0.0
  70
0
  0
VERTEX
  8
a
  10
5.51274
  20
0.87926
  30
0.0
  70
0
  0
VERTEX
  8
a
  10
5.29211
  20
0.93838
  30
0.0
  70
0
  0
VERTEX
  8
a
  10
5.28222
  20
0.98947
  30
0.0
  70
0
  0
VERTEX
  8
a
  10
5.27061
  20
1.05727
  30
0.0
  70
0
  0
VERTEX
  8
a
  10
5.26082
  20
1.12468
  30
0.0
  70
0
  0
VERTEX
  8
a
  10
5.2529
  20
1.19165
  30
0.0
  70
0
  0
VERTEX
  8
a
  10
5.24694
  20
1.25814
  30
0.0
  70
0
  0
VERTEX
  8
a
  10
5.243
  20
1.32411
  30
0.0
  70
0
  0
VERTEX
  8
a
  10
5.24119
  20
1.38949
  30
0.0
  70
0
  0
VERTEX
  8
a
  10
5.24167
  20
1.45421
  30
0.0
  70
0
  0
VERTEX
  8
a
  10
5.24282
  20
1.48631
  30
0.0
  70
0
  0
VERTEX
  8
a
  10
5.24463
  20
1.5182
  30
0.0
  70
0
  0
VERTEX
  8
a
  10
5.24715
  20
1.54987
  30
0.0
  70
0
  0
VERTEX
  8
a
  10
5.24868
  20
1.56562
  30
0.0
  70
0
  0
VERTEX
  8
a
  10
5.25042
  20
1.5813
  30
0.0
  70
0
  0
VERTEX
  8
a
  10
5.25236
  20
1.59692
  30
0.0
  70
0
  0
VERTEX
  8
a
  10
4.91875
  20
1.71835
  30
0.0
  70
0
  0
VERTEX
  8
a
  10
4.9102
  20
1.70513
  30
0.0
  70
0
  0
VERTEX
  8
a
  10
4.90145
  20
1.692
  30
0.0
  70
0
  0
VERTEX
  8
a
  10
4.8925
  20
1.67895
  30
0.0
  70
0
  0
VERTEX
  8
a
  10
4.87407
  20
1.65307
  30
0.0
  70
0
  0
VERTEX
  8
a
  10
4.85496
  20
1.62748
  30
0.0
  70
0
  0
VERTEX
  8
a
  10
4.83521
  20
1.60215
  30
0.0
  70
0
  0
VERTEX
  8
a
  10
4.79397
  20
1.55226
  30
0.0
  70
0
  0
VERTEX
  8
a
  10
4.75056
  20
1.50334
  30
0.0
  70
0
  0
VERTEX
  8
a
  10
4.70514
  20
1.45534
  30
0.0
  70
0
  0
VERTEX
  8
a
  10
4.65783
  20
1.40824
  30
0.0
  70
0
  0
VERTEX
  8
a
  10
4.60872
  20
1.36202
  30
0.0
  70
0
  0
VERTEX
  8
a
  10
4.5579
  20
1.31668
  30
0.0
  70
0
  0
VERTEX
  8
a
  10
4.50541
  20
1.2722
  30
0.0
  70
0
  0
VERTEX
  8
a
  10
4.465
  20
1.23942
  30
0.0
  70
0
  0
VERTEX
  8
a
  10
4.25798
  20
1.33595
  30
0.0
  70
0
  0
VERTEX
  8
a
  10
4.25712
  20
1.38799
  30
0.0
  70
0
  0
VERTEX
  8
a
  10
4.25746
  20
1.45678
  30
0.0
  70
0
  0
VERTEX
  8
a
  10
4.25952
  20
1.52486
  30
0.0
  70
0
  0
VERTEX
  8
a
  10
4.26336
  20
1.59219
  30
0.0
  70
0
  0
VERTEX
  8
a
  10
4.26903
  20
1.6587
  30
0.0
  70
0
  0
VERTEX
  8
a
  10
4.2766
  20
1.72435
  30
0.0
  70
0
  0
VERTEX
  8
a
  10
4.28618
  20
1.78905
  30
0.0
  70
0
  0
VERTEX
  8
a
  10
4.29789
  20
1.85271
  30
0.0
  70
0
  0
VERTEX
  8
a
  10
4.3046
  20
1.88411
  30
0.0
  70
0
  0
VERTEX
  8
a
  10
4.31192
  20
1.91521
  30
0.0
  70
0
  0
VERTEX
  8
a
  10
4.31989
  20
1.94596
  30
0.0
  70
0
  0
VERTEX
  8
a
  10
4.32414
  20
1.9612
  30
0.0
  70
0
  0
VERTEX
  8
a
  10
4.32857
  20
1.97635
  30
0.0
  70
0
  0
VERTEX
  8
a
  10
4.3332
  20
1.99139
  30
0.0
  70
0
  0
VERTEX
  8
a
  10
4.02574
  20
2.1689
  30
0.0
  70
0
  0
VERTEX
  8
a
  10
4.01503
  20
2.15737
  30
0.0
  70
0
  0
VERTEX
  8
a
  10
4.00413
  20
2.14596
  30
0.0
  70
0
  0
VERTEX
  8
a
  10
3.99305
  20
2.13466
  30
0.0
  70
0
  0
VERTEX
  8
a
  10
3.9704
  20
2.11238
  30
0.0
  70
0
  0
VERTEX
  8
a
  10
3.94714
  20
2.09049
  30
0.0
  70
0
  0
VERTEX
  8
a
  10
3.9233
  20
2.06898
  30
0.0
  70
0
  0
VERTEX
  8
a
  10
3.87402
  20
2.02701
  30
0.0
  70
0
  0
VERTEX
  8
a
  10
3.82277
  20
1.98637
  30
0.0
  70
0
  0
VERTEX
  8
a
  10
3.76971
  20
1.94699
  30
0.0
  70
0
  0
VERTEX
  8
a
  10
3.71494
  20
1.90882
  30
0.0
  70
0
  0
VERTEX
  8
a
  10
3.65855
  20
1.87183
  30
0.0
  70
0
  0
VERTEX
  8
a
  10
3.60062
  20
1.836
  30
0.0
  70
0
  0
VERTEX
  8
a
  10
3.54121
  20
1.80132
  30
0.0
  70
0
  0
VERTEX
  8
a
  10
3.49572
  20
1.77605
  30
0.0
  70
0
  0
VERTEX
  8
a
  10
3.30861
  20
1.90706
  30
0.0
  70
0
  0
VERTEX
  8
a
  10
3.3168
  20
1.95845
  30
0.0
  70
0
  0
VERTEX
  8
a
  10
3.32907
  20
2.02614
  30
0.0
  70
0
  0
VERTEX
  8
a
  10
3.34293
  20
2.09283
  30
0.0
  70
0
  0
VERTEX
  8
a
  10
3.3584
  20
2.15847
  30
0.0
  70
0
  0
VERTEX
  8
a
  10
3.37553
  20
2.22299
  30
0.0
  70
0
  0
VERTEX
  8
a
  10
3.39439
  20
2.28633
  30
0.0
  70
0
  0
VERTEX
  8
a
  10
3.41506
  20
2.34838
  30
0.0
  70
0
  0
VERTEX
  8
a
  10
3.43764
  20
2.40904
  30
0.0
  70
0
  0
VERTEX
  8
a
  10
3.4497
  20
2.4388
  30
0.0
  70
0
  0
VERTEX
  8
a
  10
3.46231
  20
2.46815
  30
0.0
  70
0
  0
VERTEX
  8
a
  10
3.4755
  20
2.49705
  30
0.0
  70
0
  0
VERTEX
  8
a
  10
3.48233
  20
2.51133
  30
0.0
  70
0
  0
VERTEX
  8
a
  10
3.48933
  20
2.52547
  30
0.0
  70
0
  0
VERTEX
  8
a
  10
3.4965
  20
2.53948
  30
0.0
  70
0
  0
VERTEX
  8
a
  10
3.22454
  20
2.76769
  30
0.0
  70
0
  0
VERTEX
  8
a
  10
3.21199
  20
2.75819
  30
0.0
  70
0
  0
VERTEX
  8
a
  10
3.19927
  20
2.74885
  30
0.0
  70
0
  0
VERTEX
  8
a
  10
3.1864
  20
2.73964
  30
0.0
  70
0
  0
VERTEX
  8
a
  10
3.16022
  20
2.72163
  30
0.0
  70
0
  0
VERTEX
  8
a
  10
3.13351
  20
2.70412
  30
0.0
  70
0
  0
VERTEX
  8
a
  10
3.1063
  20
2.68707
  30
0.0
  70
0
  0
VERTEX
  8
a
  10
3.05048
  20
2.6543
  30
0.0
  70
0
  0
VERTEX
  8
a
  10
2.99296
  20
2.62317
  30
0.0
  70
0
  0
VERTEX
  8
a
  10
2.93386
  20
2.5936
  30
0.0
  70
0
  0
VERTEX
  8
a
  10
2.87329
  20
2.56552
  30
0.0
  70
0
  0
VERTEX
  8
a
  10
2.81134
  20
2.53889
  30
0.0
  70
0
  0
VERTEX
  8
a
  10
2.74807
  20
2.51366
  30
0.0
  70
0
  0
VERTEX
  8
a
  10
2.68354
  20
2.48982
  30
0.0
  70
0
  0
VERTEX
  8
a
  10
2.63435
  20
2.47283
  30
0.0
  70
0
  0
VERTEX
  8
a
  10
2.47283
  20
2.63435
  30
0.0
  70
0
  0
VERTEX
  8
a
  10
2.48982
  20
2.68354
  30
0.0
  70
0
  0
VERTEX
  8
a
  10
2.51366
  20
2.74807
  30
0.0
  70
0
  0
VERTEX
  8
a
  10
2.53889
  20
2.81134
  30
0.0
  70
0
  0
VERTEX
  8
a
  10
2.56552
  20
2.87329
  30
0.0
  70
0
  0
VERTEX
  8
a
  10
2.5936
  20
2.93386
  30
0.0
  70
0
  0
VERTEX
  8
a
  10
2.62317
  20
2.99296
  30
0.0
  70
0
  0
VERTEX
  8
a
  10
2.6543
  20
3.05048
  30
0.0
  70
0
  0
VERTEX
  8
a
  10
2.68707
  20
3.1063
  30
0.0
  70
0
  0
VERTEX
  8
a
  10
2.70412
  20
3.13351
  30
0.0
  70
0
  0
VERTEX
  8
a
  10
2.72163
  20
3.16022
  30
0.0
  70
0
  0
VERTEX
  8
a
  10
2.73964
  20
3.1864
  30
0.0
  70
0
  0
VERTEX
  8
a
  10
2.74885
  20
3.19927
  30
0.0
  70
0
  0
VERTEX
  8
a
  10
2.75819
  20
3.21199
  30
0.0
  70
0
  0
VERTEX
  8
a
  10
2.76769
  20
3.22454
  30
0.0
  70
0
  0
VERTEX
  8
a
  10
2.53948
  20
3.4965
  30
0.0
  70
0
  0
VERTEX
  8
a
  10
2.52547
  20
3.48933
  30
0.0
  70
0
  0
VERTEX
  8
a
  10
2.51133
  20
3.48233
  30
0.0
  70
0
  0
VERTEX
  8
a
  10
2.49705
  20
3.4755
  30
0.0
  70
0
  0
VERTEX
  8
a
  10
2.46815
  20
3.46231
  30
0.0
  70
0
  0
VERTEX
  8
a
  10
2.4388
  20
3.4497
  30
0.0
  70
0
  0
VERTEX
  8
a
  10
2.40904
  20
3.43764
  30
0.0
  70
0
  0
VERTEX
  8
a
  10
2.34838
  20
3.41506
  30
0.0
  70
0
  0
VERTEX
  8
a
  10
2.28633
  20
3.39439
  30
0.0
  70
0
  0
VERTEX
  8
a
  10
2.22299
  20
3.37553
  30
0.0
  70
0
  0
VERTEX
  8
a
  10
2.15847
  20
3.3584
  30
0.0
  70
0
  0
VERTEX
  8
a
  10
2.09283
  20
3.34293
  30
0.0
  70
0
  0
VERTEX
  8
a
  10
2.02614
  20
3.32907
  30
0.0
  70
0
  0
VERTEX
  8
a
  10
1.95845
  20
3.3168
  30
0.0
  70
0
  0
VERTEX
  8
a
  10
1.90706
  20
3.30861
  30
0.0
  70
0
  0
VERTEX
  8
a
  10
1.77605
  20
3.49572
  30
0.0
  70
0
  0
VERTEX
  8
a
  10
1.80132
  20
3.54121
  30
0.0
  70
0
  0
VERTEX
  8
a
  10
1.836
  20
3.60062
  30
0.0
  70
0
  0
VERTEX
  8
a
  10
1.87183
  20
3.65855
  30
0.0
  70
0
  0
VERTEX
  8
a
  10
1.90882
  20
3.71494
  30
0.0
  70
0
  0
VERTEX
  8
a
  10
1.94699
  20
3.76971
  30
0.0
  70
0
  0
VERTEX
  8
a
  10
1.98637
  20
3.82277
  30
0.0
  70
0
  0
VERTEX
  8
a
  10
2.02701
  20
3.87402
  30
0.0
  70
0
  0
VERTEX
  8
a
  10
2.06898
  20
3.9233
  30
0.0
  70
0
  0
VERTEX
  8
a
  10
2.09049
  20
3.94714
  30
0.0
  70
0
  0
VERTEX
  8
a
  10
2.11238
  20
3.9704
  30
0.0
  70
0
  0
VERTEX
  8
a
  10
2.13466
  20
3.99305
  30
0.0
  70
0
  0
VERTEX
  8
a
  10
2.14596
  20
4.00413
  30
0.0
  70
0
  0
VERTEX
  8
a
  10
2.15737
  20
4.01503
  30
0.0
  70
0
  0
VERTEX
  8
a
  10
2.1689
  20
4.02574
  30
0.0
  70
0
  0
VERTEX
  8
a
  10
1.99139
  20
4.3332
  30
0.0
  70
0
  0
VERTEX
  8
a
  10
1.97635
  20
4.32857
  30
0.0
  70
0
  0
VERTEX
  8
a
  10
1.9612
  20
4.32414
  30
0.0
  70
0
  0
VERTEX
  8
a
  10
1.94596
  20
4.31989
  30
0.0
  70
0
  0
VERTEX
  8
a
  10
1.91521
  20
4.31192
  30
0.0
  70
0
  0
VERTEX
  8
a
  10
1.88411
  20
4.3046
  30
0.0
  70
0
  0
VERTEX
  8
a
  10
1.85271
  20
4.29789
  30
0.0
  70
0
  0
VERTEX
  8
a
  10
1.78905
  20
4.28618
  30
0.0
  70
0
  0
VERTEX
  8
a
  10
1.72435
  20
4.2766
  30
0.0
  70
0
  0
VERTEX
  8
a
  10
1.6587
  20
4.26903
  30
0.0
  70
0
  0
VERTEX
  8
a
  10
1.59219
  20
4.26336
  30
0.0
  70
0
  0
VERTEX
  8
a
  10
1.52486
  20
4.25952
  30
0.0
  70
0
  0
VERTEX
  8
a
  10
1.45678
  20
4.25746
  30
0.0
  70
0
  0
VERTEX
  8
a
  10
1.38799
  20
4.25712
  30
0.0
  70
0
  0
VERTEX
  8
a
  10
1.33595
  20
4.25798
  30
0.0
  70
0
  0
VERTEX
  8
a
  10
1.23942
  20
4.465
  30
0.0
  70
0
  0
VERTEX
  8
a
  10
1.2722
  20
4.50541
  30
0.0
  70
0
  0
VERTEX
  8
a
  10
1.31668
  20
4.5579
  30
0.0
  70
0
  0
VERTEX
  8
a
  10
1.36202
  20
4.60872
  30
0.0
  70
0
  0
VERTEX
  8
a
  10
1.40824
  20
4.65783
  30
0.0
  70
0
  0
VERTEX
  8
a
  10
1.45534
  20
4.70514
  30
0.0
  70
0
  0
VERTEX
  8
a
  10
1.50334
  20
4.75056
  30
0.0
  70
0
  0
VERTEX
  8
a
  10
1.55226
  20
4.79397
  30
0.0
  70
0
  0
VERTEX
  8
a
  10
1.60215
  20
4.83521
  30
0.0
  70
0
  0
VERTEX
  8
a
  10
1.62748
  20
4.85496
  30
0.0
  70
0
  0
VERTEX
  8
a
  10
1.65307
  20
4.87407
  30
0.0
  70
0
  0
VERTEX
  8
a
  10
1.67895
  20
4.8925
  30
0.0
  70
0
  0
VERTEX
  8
a
  10
1.692
  20
4.90145
  30
0.0
  70
0
  0
VERTEX
  8
a
  10
1.70513
  20
4.9102
  30
0.0
  70
0
  0
VERTEX
  8
a
  10
1.71835
  20
4.91875
  30
0.0
  70
0
  0
VERTEX
  8
a
  10
1.59692
  20
5.25236
  30
0.0
  70
0
  0
VERTEX
  8
a
  10
1.5813
  20
5.25042
  30
0.0
  70
0
  0
VERTEX
  8
a
  10
1.56562
  20
5.24868
  30
0.0
  70
0
  0
VERTEX
  8
a
  10
1.54987
  20
5.24715
  30
0.0
  70
0
  0
VERTEX
  8
a
  10
1.5182
  20
5.24463
  30
0.0
  70
0
  0
VERTEX
  8
a
  10
1.48631
  20
5.24282
  30
0.0
  70
0
  0
VERTEX
  8
a
  10
1.45421
  20
5.24167
  30
0.0
  70
0
  0
VERTEX
  8
a
  10
1.38949
  20
5.24119
  30
0.0
  70
0
  0
VERTEX
  8
a
  10
1.32411
  20
5.243
  30
0.0
  70
0
  0
VERTEX
  8
a
  10
1.25814
  20
5.24694
  30
0.0
  70
0
  0
VERTEX
  8
a
  10
1.19165
  20
5.2529
  30
0.0
  70
0
  0
VERTEX
  8
a
  10
1.12468
  20
5.26082
  30
0.0
  70
0
  0
VERTEX
  8
a
  10
1.05727
  20
5.27061
  30
0.0
  70
0
  0
VERTEX
  8
a
  10
0.98947
  20
5.28222
  30
0.0
  70
0
  0
VERTEX
  8
a
  10
0.93838
  20
5.29211
  30
0.0
  70
0
  0
VERTEX
  8
a
  10
0.87926
  20
5.51274
  30
0.0
  70
0
  0
VERTEX
  8
a
  10
0.91856
  20
5.54685
  30
0.0
  70
0
  0
VERTEX
  8
a
  10
0.97147
  20
5.59081
  30
0.0
  70
0
  0
VERTEX
  8
a
  10
1.02496
  20
5.63299
  30
0.0
  70
0
  0
VERTEX
  8
a
  10
1.079
  20
5.67333
  30
0.0
  70
0
  0
VERTEX
  8
a
  10
1.1336
  20
5.71174
  30
0.0
  70
0
  0
VERTEX
  8
a
  10
1.18876
  20
5.74814
  30
0.0
  70
0
  0
VERTEX
  8
a
  10
1.24448
  20
5.78239
  30
0.0
  70
0
  0
VERTEX
  8
a
  10
1.30077
  20
5.81434
  30
0.0
  70
0
  0
VERTEX
  8
a
  10
1.32914
  20
5.82939
  30
0.0
  70
0
  0
VERTEX
  8
a
  10
1.35766
  20
5.84376
  30
0.0
  70
0
  0
VERTEX
  8
a
  10
1.38635
  20
5.85742
  30
0.0
  70
0
  0
VERTEX
  8
a
  10
1.40075
  20
5.86397
  30
0.0
  70
0
  0
VERTEX
  8
a
  10
1.4152
  20
5.87031
  30
0.0
  70
0
  0
VERTEX
  8
a
  10
1.4297
  20
5.87643
  30
0.0
  70
0
  0
VERTEX
  8
a
  10
1.36805
  20
6.22606
  30
0.0
  70
0
  0
VERTEX
  8
a
  10
1.35233
  20
6.22686
  30
0.0
  70
0
  0
VERTEX
  8
a
  10
1.33659
  20
6.22787
  30
0.0
  70
0
  0
VERTEX
  8
a
  10
1.32081
  20
6.22909
  30
0.0
  70
0
  0
VERTEX
  8
a
  10
1.28918
  20
6.23212
  30
0.0
  70
0
  0
VERTEX
  8
a
  10
1.25746
  20
6.23587
  30
0.0
  70
0
  0
VERTEX
  8
a
  10
1.22566
  20
6.24031
  30
0.0
  70
0
  0
VERTEX
  8
a
  10
1.16183
  20
6.25108
  30
0.0
  70
0
  0
VERTEX
  8
a
  10
1.09776
  20
6.26421
  30
0.0
  70
0
  0
VERTEX
  8
a
  10
1.03348
  20
6.27955
  30
0.0
  70
0
  0
VERTEX
  8
a
  10
0.96903
  20
6.29697
  30
0.0
  70
0
  0
VERTEX
  8
a
  10
0.90445
  20
6.31639
  30
0.0
  70
0
  0
VERTEX
  8
a
  10
0.83977
  20
6.33774
  30
0.0
  70
0
  0
VERTEX
  8
a
  10
0.77502
  20
6.36095
  30
0.0
  70
0
  0
VERTEX
  8
a
  10
0.72642
  20
6.37956
  30
0.0
  70
0
  0
VERTEX
  8
a
  10
0.70651
  20
6.6071
  30
0.0
  70
0
  0
VERTEX
  8
a
  10
0.75114
  20
6.63387
  30
0.0
  70
0
  0
VERTEX
  8
a
  10
0.81088
  20
6.66797
  30
0.0
  70
0
  0
VERTEX
  8
a
  10
0.87087
  20
6.70023
  30
0.0
  70
0
  0
VERTEX
  8
a
  10
0.9311
  20
6.73057
  30
0.0
  70
0
  0
VERTEX
  8
a
  10
0.99154
  20
6.75892
  30
0.0
  70
0
  0
VERTEX
  8
a
  10
1.05218
  20
6.78518
  30
0.0
  70
0
  0
VERTEX
  8
a
  10
1.113
  20
6.80924
  30
0.0
  70
0
  0
VERTEX
  8
a
  10
1.17399
  20
6.83093
  30
0.0
  70
0
  0
VERTEX
  8
a
  10
1.20454
  20
6.84082
  30
0.0
  70
0
  0
VERTEX
  8
a
  10
1.23512
  20
6.85002
  30
0.0
  70
0
  0
VERTEX
  8
a
  10
1.26574
  20
6.8585
  30
0.0
  70
0
  0
VERTEX
  8
a
  10
1.28107
  20
6.86244
  30
0.0
  70
0
  0
VERTEX
  8
a
  10
1.2964
  20
6.86617
  30
0.0
  70
0
  0
VERTEX
  8
a
  10
1.31174
  20
6.86969
  30
0.0
  70
0
  0
SEQEND
  0
CIRCLE
  8
a
  10
7.0472
  20
7.0472
  30
0.0
  40
7.0472
  0
CIRCLE
  8
a
  10
7.0472
  20
7.0472
  30
0.0
  40
0.5
 0
LINE
 8
c
 10
1.33083
 20
7.54731
 30
0
 11
0.71544
 21
7.60115
 31
 0
 0
LINE
 8
c
 10
1.50452
 20
8.53235
 30
0
 11
0.90783
 21
8.69224
 31
 0
 0
LINE
 8
c
 10
1.84662
 20
9.47227
 30
0
 11
1.28676
 21
9.73333
 31
 0
 0
LINE
 8
c
 10
2.34674
 20
10.33849
 30
0
 11
1.84071
 21
10.69282
 31
 0
 0
LINE
 8
c
 10
2.98968
 20
11.10472
 30
0
 11
2.55287
 21
11.54153
 31
 0
 0
LINE
 8
c
 10
3.7559
 20
11.74766
 30
0
 11
3.40158
 21
12.25368
 31
 0
 0
LINE
 8
c
 10
4.62213
 20
12.24777
 30
0
 11
4.36106
 21
12.80764
 31
 0
 0
LINE
 8
c
 10
5.56204
 20
12.58987
 30
0
 11
5.40216
 21
13.18657
 31
 0
 0
LINE
 8
c
 10
6.54708
 20
12.76356
 30
0
 11
6.49324
 21
13.37895
 31
 0
 0
LINE
 8
c
 10
7.54731
 20
12.76356
 30
0
 11
7.60115
 21
13.37895
 31
 0
 0
LINE
 8
c
 10
8.53235
 20
12.58987
 30
0
 11
8.69224
 21
13.18657
 31
 0
 0
LINE
 8
c
 10
9.47227
 20
12.24777
 30
0
 11
9.73333
 21
12.80764
 31
 0
 0
LINE
 8
c
 10
10.33849
 20
11.74766
 30
0
 11
10.69282
 21
12.25368
 31
 0
 0
LINE
 8
c
 10
11.10472
 20
11.10472
 30
0
 11
11.54153
 21
11.54153
 31
 0
 0
LINE
 8
c
 10
11.74766
 20
10.33849
 30
0
 11
12.25368
 21
10.69282
 31
 0
 0
LINE
 8
c
 10
12.24777
 20
9.47227
 30
0
 11
12.80764
 21
9.73333
 31
 0
 0
LINE
 8
c
 10
12.58987
 20
8.53235
 30
0
 11
13.18657
 21
8.69224
 31
 0
 0
LINE
 8
c
 10
12.76356
 20
7.54731
 30
0
 11
13.37895
 21
7.60115
 31
 0
 0
LINE
 8
c
 10
12.76356
 20
6.54708
 30
0
 11
13.37895
 21
6.49324
 31
 0
 0
LINE
 8
c
 10
12.58987
 20
5.56204
 30
0
 11
13.18657
 21
5.40216
 31
 0
 0
LINE
 8
c
 10
12.24777
 20
4.62213
 30
0
 11
12.80764
 21
4.36106
 31
 0
 0
LINE
 8
c
 10
11.74766
 20
3.7559
 30
0
 11
12.25368
 21
3.40158
 31
 0
 0
LINE
 8
c
 10
11.10472
 20
2.98968
 30
0
 11
11.54153
 21
2.55287
 31
 0
 0
LINE
 8
c
 10
10.33849
 20
2.34674
 30
0
 11
10.69282
 21
1.84071
 31
 0
 0
LINE
 8
c
 10
9.47227
 20
1.84662
 30
0
 11
9.73333
 21
1.28676
 31
 0
 0
LINE
 8
c
 10
8.53235
 20
1.50452
 30
0
 11
8.69224
 21
0.90783
 31
 0
 0
LINE
 8
c
 10
7.54731
 20
1.33083
 30
0
 11
7.60115
 21
0.71544
 31
 0
 0
LINE
 8
c
 10
6.54708
 20
1.33083
 30
0
 11
6.49324
 21
0.71544
 31
 0
 0
LINE
 8
c
 10
5.56204
 20
1.50452
 30
0
 11
5.40216
 21
0.90783
 31
 0
 0
LINE
 8
c
 10
4.62213
 20
1.84662
 30
0
 11
4.36106
 21
1.28676
 31
 0
 0
LINE
 8
c
 10
3.7559
 20
2.34674
 30
0
 11
3.40158
 21
1.84071
 31
 0
 0
LINE
 8
c
 10
2.98968
 20
2.98968
 30
0
 11
2.55287
 21
2.55287
 31
 0
 0
LINE
 8
c
 10
2.34674
 20
3.7559
 30
0
 11
1.84071
 21
3.40158
 31
 0
 0
LINE
 8
c
 10
1.84662
 20
4.62213
 30
0
 11
1.28676
 21
4.36106
 31
 0
 0
LINE
 8
c
 10
1.50452
 20
5.56204
 30
0
 11
0.90783
 21
5.40216
 31
 0
 0
LINE
 8
c
 10
1.33083
 20
6.54708
 30
0
 11
0.71544
 21
6.49324
 31
 0
  0
CIRCLE
  8
c
  10
7.0472
  20
7.0472
  30
0.0
  40
6
 0
LINE
 8
a
 10
4.92855
 20
7.0472
 30
0
 11
9.16584
 21
7.0472
 31
 0
 0
LINE
 8
a
 10
7.0472
 20
4.92855
 30
0
 11
7.0472
 21
9.16584
 31
 0
  0
TEXT
  8
labels
  10
0.0
  20
0.0
  30
0.0
  40
0.1
  1
G1:Toothspacing=1.05  Teeth=-36  Spur gear  Angle=20.0  Addendum=.3
  41
1.0
  7
ARIAL
  0
ENDSEC
  0
EOF
