solid pcb_holder
   facet normal 0.000000e+00 0.000000e+00 1.000000e+00
      outer loop
         vertex 8.391995e+00 5.500004e+00 1.000000e+01
         vertex 9.885322e+00 5.500004e+00 1.000000e+01
         vertex 9.420298e+00 7.794522e+00 1.000000e+01
      endloop
   endfacet
   facet normal 0.000000e+00 0.000000e+00 1.000000e+00
      outer loop
         vertex 1.579702e+00 7.794522e+00 1.000000e+01
         vertex 1.114674e+00 5.500004e+00 1.000000e+01
         vertex 2.608001e+00 5.500004e+00 1.000000e+01
      endloop
   endfacet
   facet normal 0.000000e+00 0.000000e+00 1.000000e+00
      outer loop
         vertex 5.098831e+00 8.497186e+00 1.000000e+01
         vertex 3.930591e+00 1.067926e+01 1.000000e+01
         vertex 4.724998e+00 8.342341e+00 1.000000e+01
      endloop
   endfacet
   facet normal 0.000000e+00 0.000000e+00 1.000000e+00
      outer loop
         vertex 4.724998e+00 8.342341e+00 1.000000e+01
         vertex 3.930591e+00 1.067926e+01 1.000000e+01
         vertex 3.360152e+00 1.037951e+01 1.000000e+01
      endloop
   endfacet
   facet normal 0.000000e+00 0.000000e+00 1.000000e+00
      outer loop
         vertex 4.724998e+00 8.342341e+00 1.000000e+01
         vertex 3.360152e+00 1.037951e+01 1.000000e+01
         vertex 4.403982e+00 8.096017e+00 1.000000e+01
      endloop
   endfacet
   facet normal 0.000000e+00 0.000000e+00 1.000000e+00
      outer loop
         vertex 4.157659e+00 7.775001e+00 1.000000e+01
         vertex 1.758151e+00 8.413717e+00 1.000000e+01
         vertex 4.002813e+00 7.401168e+00 1.000000e+01
      endloop
   endfacet
   facet normal 0.000000e+00 0.000000e+00 1.000000e+00
      outer loop
         vertex 4.002813e+00 7.401168e+00 1.000000e+01
         vertex 1.758151e+00 8.413717e+00 1.000000e+01
         vertex 1.579702e+00 7.794522e+00 1.000000e+01
      endloop
   endfacet
   facet normal 0.000000e+00 0.000000e+00 1.000000e+00
      outer loop
         vertex 4.002813e+00 7.401168e+00 1.000000e+01
         vertex 1.579702e+00 7.794522e+00 1.000000e+01
         vertex 3.950000e+00 6.999999e+00 1.000000e+01
      endloop
   endfacet
   facet normal 0.000000e+00 0.000000e+00 1.000000e+00
      outer loop
         vertex 3.950000e+00 6.999999e+00 1.000000e+01
         vertex 1.579702e+00 7.794522e+00 1.000000e+01
         vertex 2.608001e+00 5.500004e+00 1.000000e+01
      endloop
   endfacet
   facet normal 0.000000e+00 0.000000e+00 1.000000e+00
      outer loop
         vertex 3.950000e+00 6.999999e+00 1.000000e+01
         vertex 2.608001e+00 5.500004e+00 1.000000e+01
         vertex 4.002813e+00 6.598830e+00 1.000000e+01
      endloop
   endfacet
   facet normal 0.000000e+00 0.000000e+00 1.000000e+00
      outer loop
         vertex 3.360152e+00 1.037951e+01 1.000000e+01
         vertex 2.845250e+00 9.992041e+00 1.000000e+01
         vertex 4.403982e+00 8.096017e+00 1.000000e+01
      endloop
   endfacet
   facet normal 0.000000e+00 0.000000e+00 1.000000e+00
      outer loop
         vertex 4.403982e+00 8.096017e+00 1.000000e+01
         vertex 2.845250e+00 9.992041e+00 1.000000e+01
         vertex 2.399251e+00 9.526923e+00 1.000000e+01
      endloop
   endfacet
   facet normal 0.000000e+00 0.000000e+00 1.000000e+00
      outer loop
         vertex 4.403982e+00 8.096017e+00 1.000000e+01
         vertex 2.399251e+00 9.526923e+00 1.000000e+01
         vertex 4.157659e+00 7.775001e+00 1.000000e+01
      endloop
   endfacet
   facet normal 0.000000e+00 0.000000e+00 1.000000e+00
      outer loop
         vertex 4.157659e+00 7.775001e+00 1.000000e+01
         vertex 2.399251e+00 9.526923e+00 1.000000e+01
         vertex 2.033718e+00 8.996226e+00 1.000000e+01
      endloop
   endfacet
   facet normal 0.000000e+00 0.000000e+00 1.000000e+00
      outer loop
         vertex 4.157659e+00 7.775001e+00 1.000000e+01
         vertex 2.033718e+00 8.996226e+00 1.000000e+01
         vertex 1.758151e+00 8.413717e+00 1.000000e+01
      endloop
   endfacet
   facet normal -0.000000e+00 0.000000e+00 1.000000e+00
      outer loop
         vertex 6.274998e+00 8.342341e+00 1.000000e+01
         vertex 6.596014e+00 8.096017e+00 1.000000e+01
         vertex 8.154746e+00 9.992041e+00 1.000000e+01
      endloop
   endfacet
   facet normal 0.000000e+00 0.000000e+00 1.000000e+00
      outer loop
         vertex 8.154746e+00 9.992041e+00 1.000000e+01
         vertex 6.596014e+00 8.096017e+00 1.000000e+01
         vertex 8.600749e+00 9.526923e+00 1.000000e+01
      endloop
   endfacet
   facet normal 0.000000e+00 0.000000e+00 1.000000e+00
      outer loop
         vertex 8.600749e+00 9.526923e+00 1.000000e+01
         vertex 6.596014e+00 8.096017e+00 1.000000e+01
         vertex 6.842338e+00 7.775001e+00 1.000000e+01
      endloop
   endfacet
   facet normal 0.000000e+00 0.000000e+00 1.000000e+00
      outer loop
         vertex 8.600749e+00 9.526923e+00 1.000000e+01
         vertex 6.842338e+00 7.775001e+00 1.000000e+01
         vertex 8.966278e+00 8.996226e+00 1.000000e+01
      endloop
   endfacet
   facet normal 0.000000e+00 0.000000e+00 1.000000e+00
      outer loop
         vertex 8.154746e+00 9.992041e+00 1.000000e+01
         vertex 7.639844e+00 1.037951e+01 1.000000e+01
         vertex 6.274998e+00 8.342341e+00 1.000000e+01
      endloop
   endfacet
   facet normal 0.000000e+00 0.000000e+00 1.000000e+00
      outer loop
         vertex 6.274998e+00 8.342341e+00 1.000000e+01
         vertex 7.639844e+00 1.037951e+01 1.000000e+01
         vertex 7.069405e+00 1.067926e+01 1.000000e+01
      endloop
   endfacet
   facet normal 0.000000e+00 -0.000000e+00 1.000000e+00
      outer loop
         vertex 6.274998e+00 8.342341e+00 1.000000e+01
         vertex 7.069405e+00 1.067926e+01 1.000000e+01
         vertex 5.901169e+00 8.497186e+00 1.000000e+01
      endloop
   endfacet
   facet normal 0.000000e+00 0.000000e+00 1.000000e+00
      outer loop
         vertex 5.901169e+00 8.497186e+00 1.000000e+01
         vertex 7.069405e+00 1.067926e+01 1.000000e+01
         vertex 6.458238e+00 1.088353e+01 1.000000e+01
      endloop
   endfacet
   facet normal 0.000000e+00 -0.000000e+00 1.000000e+00
      outer loop
         vertex 5.901169e+00 8.497186e+00 1.000000e+01
         vertex 6.458238e+00 1.088353e+01 1.000000e+01
         vertex 5.500000e+00 8.550003e+00 1.000000e+01
      endloop
   endfacet
   facet normal 0.000000e+00 0.000000e+00 1.000000e+00
      outer loop
         vertex 8.966278e+00 8.996226e+00 1.000000e+01
         vertex 6.842338e+00 7.775001e+00 1.000000e+01
         vertex 9.241842e+00 8.413717e+00 1.000000e+01
      endloop
   endfacet
   facet normal 0.000000e+00 0.000000e+00 1.000000e+00
      outer loop
         vertex 9.241842e+00 8.413717e+00 1.000000e+01
         vertex 6.842338e+00 7.775001e+00 1.000000e+01
         vertex 6.997183e+00 7.401168e+00 1.000000e+01
      endloop
   endfacet
   facet normal 0.000000e+00 0.000000e+00 1.000000e+00
      outer loop
         vertex 9.241842e+00 8.413717e+00 1.000000e+01
         vertex 6.997183e+00 7.401168e+00 1.000000e+01
         vertex 9.420298e+00 7.794522e+00 1.000000e+01
      endloop
   endfacet
   facet normal 0.000000e+00 0.000000e+00 1.000000e+00
      outer loop
         vertex 9.420298e+00 7.794522e+00 1.000000e+01
         vertex 6.997183e+00 7.401168e+00 1.000000e+01
         vertex 7.050000e+00 6.999999e+00 1.000000e+01
      endloop
   endfacet
   facet normal 0.000000e+00 0.000000e+00 1.000000e+00
      outer loop
         vertex 9.420298e+00 7.794522e+00 1.000000e+01
         vertex 7.050000e+00 6.999999e+00 1.000000e+01
         vertex 8.391995e+00 5.500004e+00 1.000000e+01
      endloop
   endfacet
   facet normal 0.000000e+00 0.000000e+00 1.000000e+00
      outer loop
         vertex 7.050000e+00 6.999999e+00 1.000000e+01
         vertex 6.997183e+00 6.598830e+00 1.000000e+01
         vertex 8.391995e+00 5.500004e+00 1.000000e+01
      endloop
   endfacet
   facet normal 0.000000e+00 0.000000e+00 1.000000e+00
      outer loop
         vertex 8.391995e+00 5.500004e+00 1.000000e+01
         vertex 6.997183e+00 6.598830e+00 1.000000e+01
         vertex 6.842338e+00 6.225005e+00 1.000000e+01
      endloop
   endfacet
   facet normal 0.000000e+00 0.000000e+00 1.000000e+00
      outer loop
         vertex 8.391995e+00 5.500004e+00 1.000000e+01
         vertex 6.842338e+00 6.225005e+00 1.000000e+01
         vertex 8.391995e+00 3.000006e+00 1.000000e+01
      endloop
   endfacet
   facet normal 0.000000e+00 0.000000e+00 1.000000e+00
      outer loop
         vertex 8.391995e+00 3.000006e+00 1.000000e+01
         vertex 6.842338e+00 6.225005e+00 1.000000e+01
         vertex 6.596014e+00 5.903989e+00 1.000000e+01
      endloop
   endfacet
   facet normal 0.000000e+00 0.000000e+00 1.000000e+00
      outer loop
         vertex 8.391995e+00 3.000006e+00 1.000000e+01
         vertex 6.596014e+00 5.903989e+00 1.000000e+01
         vertex 6.274998e+00 5.657665e+00 1.000000e+01
      endloop
   endfacet
   facet normal 0.000000e+00 0.000000e+00 1.000000e+00
      outer loop
         vertex 5.098831e+00 5.502820e+00 1.000000e+01
         vertex 2.608001e+00 3.000006e+00 1.000000e+01
         vertex 5.500000e+00 5.450003e+00 1.000000e+01
      endloop
   endfacet
   facet normal 0.000000e+00 0.000000e+00 1.000000e+00
      outer loop
         vertex 5.500000e+00 5.450003e+00 1.000000e+01
         vertex 2.608001e+00 3.000006e+00 1.000000e+01
         vertex 8.391995e+00 3.000006e+00 1.000000e+01
      endloop
   endfacet
   facet normal -0.000000e+00 0.000000e+00 1.000000e+00
      outer loop
         vertex 5.500000e+00 5.450003e+00 1.000000e+01
         vertex 8.391995e+00 3.000006e+00 1.000000e+01
         vertex 5.901169e+00 5.502820e+00 1.000000e+01
      endloop
   endfacet
   facet normal -0.000000e+00 0.000000e+00 1.000000e+00
      outer loop
         vertex 5.901169e+00 5.502820e+00 1.000000e+01
         vertex 8.391995e+00 3.000006e+00 1.000000e+01
         vertex 6.274998e+00 5.657665e+00 1.000000e+01
      endloop
   endfacet
   facet normal 0.000000e+00 0.000000e+00 1.000000e+00
      outer loop
         vertex 5.098831e+00 5.502820e+00 1.000000e+01
         vertex 4.724998e+00 5.657665e+00 1.000000e+01
         vertex 2.608001e+00 3.000006e+00 1.000000e+01
      endloop
   endfacet
   facet normal 0.000000e+00 0.000000e+00 1.000000e+00
      outer loop
         vertex 2.608001e+00 3.000006e+00 1.000000e+01
         vertex 4.724998e+00 5.657665e+00 1.000000e+01
         vertex 4.403982e+00 5.903989e+00 1.000000e+01
      endloop
   endfacet
   facet normal 0.000000e+00 0.000000e+00 1.000000e+00
      outer loop
         vertex 2.608001e+00 3.000006e+00 1.000000e+01
         vertex 4.403982e+00 5.903989e+00 1.000000e+01
         vertex 2.608001e+00 5.500004e+00 1.000000e+01
      endloop
   endfacet
   facet normal 0.000000e+00 0.000000e+00 1.000000e+00
      outer loop
         vertex 2.608001e+00 5.500004e+00 1.000000e+01
         vertex 4.403982e+00 5.903989e+00 1.000000e+01
         vertex 4.157659e+00 6.225005e+00 1.000000e+01
      endloop
   endfacet
   facet normal 0.000000e+00 0.000000e+00 1.000000e+00
      outer loop
         vertex 2.608001e+00 5.500004e+00 1.000000e+01
         vertex 4.157659e+00 6.225005e+00 1.000000e+01
         vertex 4.002813e+00 6.598830e+00 1.000000e+01
      endloop
   endfacet
   facet normal 0.000000e+00 0.000000e+00 1.000000e+00
      outer loop
         vertex 6.458238e+00 1.088353e+01 1.000000e+01
         vertex 5.822200e+00 1.098701e+01 1.000000e+01
         vertex 5.500000e+00 8.550003e+00 1.000000e+01
      endloop
   endfacet
   facet normal 0.000000e+00 -0.000000e+00 1.000000e+00
      outer loop
         vertex 5.500000e+00 8.550003e+00 1.000000e+01
         vertex 5.822200e+00 1.098701e+01 1.000000e+01
         vertex 5.177800e+00 1.098701e+01 1.000000e+01
      endloop
   endfacet
   facet normal 0.000000e+00 0.000000e+00 1.000000e+00
      outer loop
         vertex 5.500000e+00 8.550003e+00 1.000000e+01
         vertex 5.177800e+00 1.098701e+01 1.000000e+01
         vertex 5.098831e+00 8.497186e+00 1.000000e+01
      endloop
   endfacet
   facet normal 0.000000e+00 -0.000000e+00 1.000000e+00
      outer loop
         vertex 5.098831e+00 8.497186e+00 1.000000e+01
         vertex 5.177800e+00 1.098701e+01 1.000000e+01
         vertex 4.541758e+00 1.088353e+01 1.000000e+01
      endloop
   endfacet
   facet normal 0.000000e+00 0.000000e+00 1.000000e+00
      outer loop
         vertex 5.098831e+00 8.497186e+00 1.000000e+01
         vertex 4.541758e+00 1.088353e+01 1.000000e+01
         vertex 3.930591e+00 1.067926e+01 1.000000e+01
      endloop
   endfacet
   facet normal 9.608888e-01 2.769346e-01 0.000000e+00
      outer loop
         vertex 9.420298e+00 7.794522e+00 1.000000e+01
         vertex 9.420298e+00 7.794522e+00 0.000000e+00
         vertex 9.241842e+00 8.413717e+00 0.000000e+00
      endloop
   endfacet
   facet normal 9.608888e-01 2.769346e-01 0.000000e+00
      outer loop
         vertex 9.420298e+00 7.794522e+00 1.000000e+01
         vertex 9.241842e+00 8.413717e+00 0.000000e+00
         vertex 9.241842e+00 8.413717e+00 1.000000e+01
      endloop
   endfacet
   facet normal 9.039549e-01 4.276278e-01 0.000000e+00
      outer loop
         vertex 9.241842e+00 8.413717e+00 1.000000e+01
         vertex 9.241842e+00 8.413717e+00 0.000000e+00
         vertex 8.966278e+00 8.996226e+00 0.000000e+00
      endloop
   endfacet
   facet normal 9.039549e-01 4.276278e-01 0.000000e+00
      outer loop
         vertex 9.241842e+00 8.413717e+00 1.000000e+01
         vertex 8.966278e+00 8.996226e+00 0.000000e+00
         vertex 8.966278e+00 8.996226e+00 1.000000e+01
      endloop
   endfacet
   facet normal 8.235528e-01 5.672396e-01 0.000000e+00
      outer loop
         vertex 8.966278e+00 8.996226e+00 1.000000e+01
         vertex 8.966278e+00 8.996226e+00 0.000000e+00
         vertex 8.600749e+00 9.526923e+00 0.000000e+00
      endloop
   endfacet
   facet normal 8.235528e-01 5.672396e-01 0.000000e+00
      outer loop
         vertex 8.966278e+00 8.996226e+00 1.000000e+01
         vertex 8.600749e+00 9.526923e+00 0.000000e+00
         vertex 8.600749e+00 9.526923e+00 1.000000e+01
      endloop
   endfacet
   facet normal 7.217824e-01 6.921200e-01 0.000000e+00
      outer loop
         vertex 8.600749e+00 9.526923e+00 1.000000e+01
         vertex 8.600749e+00 9.526923e+00 0.000000e+00
         vertex 8.154746e+00 9.992041e+00 0.000000e+00
      endloop
   endfacet
   facet normal 7.217824e-01 6.921200e-01 0.000000e+00
      outer loop
         vertex 8.600749e+00 9.526923e+00 1.000000e+01
         vertex 8.154746e+00 9.992041e+00 0.000000e+00
         vertex 8.154746e+00 9.992041e+00 1.000000e+01
      endloop
   endfacet
   facet normal 6.012812e-01 7.990375e-01 0.000000e+00
      outer loop
         vertex 8.154746e+00 9.992041e+00 1.000000e+01
         vertex 8.154746e+00 9.992041e+00 0.000000e+00
         vertex 7.639844e+00 1.037951e+01 0.000000e+00
      endloop
   endfacet
   facet normal 6.012812e-01 7.990375e-01 0.000000e+00
      outer loop
         vertex 8.154746e+00 9.992041e+00 1.000000e+01
         vertex 7.639844e+00 1.037951e+01 0.000000e+00
         vertex 7.639844e+00 1.037951e+01 1.000000e+01
      endloop
   endfacet
   facet normal 4.651640e-01 8.852245e-01 0.000000e+00
      outer loop
         vertex 7.639844e+00 1.037951e+01 1.000000e+01
         vertex 7.639844e+00 1.037951e+01 0.000000e+00
         vertex 7.069405e+00 1.067926e+01 0.000000e+00
      endloop
   endfacet
   facet normal 4.651640e-01 8.852245e-01 0.000000e+00
      outer loop
         vertex 7.639844e+00 1.037951e+01 1.000000e+01
         vertex 7.069405e+00 1.067926e+01 0.000000e+00
         vertex 7.069405e+00 1.067926e+01 1.000000e+01
      endloop
   endfacet
   facet normal 3.169856e-01 9.484304e-01 0.000000e+00
      outer loop
         vertex 7.069405e+00 1.067926e+01 1.000000e+01
         vertex 7.069405e+00 1.067926e+01 0.000000e+00
         vertex 6.458238e+00 1.088353e+01 0.000000e+00
      endloop
   endfacet
   facet normal 3.169856e-01 9.484304e-01 0.000000e+00
      outer loop
         vertex 7.069405e+00 1.067926e+01 1.000000e+01
         vertex 6.458238e+00 1.088353e+01 0.000000e+00
         vertex 6.458238e+00 1.088353e+01 1.000000e+01
      endloop
   endfacet
   facet normal 1.605851e-01 9.870220e-01 0.000000e+00
      outer loop
         vertex 6.458238e+00 1.088353e+01 1.000000e+01
         vertex 6.458238e+00 1.088353e+01 0.000000e+00
         vertex 5.822200e+00 1.098701e+01 0.000000e+00
      endloop
   endfacet
   facet normal 1.605851e-01 9.870220e-01 0.000000e+00
      outer loop
         vertex 6.458238e+00 1.088353e+01 1.000000e+01
         vertex 5.822200e+00 1.098701e+01 0.000000e+00
         vertex 5.822200e+00 1.098701e+01 1.000000e+01
      endloop
   endfacet
   facet normal 0.000000e+00 1.000000e+00 0.000000e+00
      outer loop
         vertex 5.822200e+00 1.098701e+01 1.000000e+01
         vertex 5.822200e+00 1.098701e+01 0.000000e+00
         vertex 5.177800e+00 1.098701e+01 0.000000e+00
      endloop
   endfacet
   facet normal 0.000000e+00 1.000000e+00 0.000000e+00
      outer loop
         vertex 5.822200e+00 1.098701e+01 1.000000e+01
         vertex 5.177800e+00 1.098701e+01 0.000000e+00
         vertex 5.177800e+00 1.098701e+01 1.000000e+01
      endloop
   endfacet
   facet normal -1.605842e-01 9.870221e-01 0.000000e+00
      outer loop
         vertex 5.177800e+00 1.098701e+01 1.000000e+01
         vertex 5.177800e+00 1.098701e+01 0.000000e+00
         vertex 4.541758e+00 1.088353e+01 0.000000e+00
      endloop
   endfacet
   facet normal -1.605842e-01 9.870221e-01 0.000000e+00
      outer loop
         vertex 5.177800e+00 1.098701e+01 1.000000e+01
         vertex 4.541758e+00 1.088353e+01 0.000000e+00
         vertex 4.541758e+00 1.088353e+01 1.000000e+01
      endloop
   endfacet
   facet normal -3.169856e-01 9.484304e-01 0.000000e+00
      outer loop
         vertex 4.541758e+00 1.088353e+01 1.000000e+01
         vertex 4.541758e+00 1.088353e+01 0.000000e+00
         vertex 3.930591e+00 1.067926e+01 0.000000e+00
      endloop
   endfacet
   facet normal -3.169856e-01 9.484304e-01 0.000000e+00
      outer loop
         vertex 4.541758e+00 1.088353e+01 1.000000e+01
         vertex 3.930591e+00 1.067926e+01 0.000000e+00
         vertex 3.930591e+00 1.067926e+01 1.000000e+01
      endloop
   endfacet
   facet normal -4.651640e-01 8.852245e-01 0.000000e+00
      outer loop
         vertex 3.930591e+00 1.067926e+01 1.000000e+01
         vertex 3.930591e+00 1.067926e+01 0.000000e+00
         vertex 3.360152e+00 1.037951e+01 0.000000e+00
      endloop
   endfacet
   facet normal -4.651640e-01 8.852245e-01 0.000000e+00
      outer loop
         vertex 3.930591e+00 1.067926e+01 1.000000e+01
         vertex 3.360152e+00 1.037951e+01 0.000000e+00
         vertex 3.360152e+00 1.037951e+01 1.000000e+01
      endloop
   endfacet
   facet normal -6.012812e-01 7.990375e-01 0.000000e+00
      outer loop
         vertex 3.360152e+00 1.037951e+01 1.000000e+01
         vertex 3.360152e+00 1.037951e+01 0.000000e+00
         vertex 2.845250e+00 9.992041e+00 0.000000e+00
      endloop
   endfacet
   facet normal -6.012812e-01 7.990375e-01 0.000000e+00
      outer loop
         vertex 3.360152e+00 1.037951e+01 1.000000e+01
         vertex 2.845250e+00 9.992041e+00 0.000000e+00
         vertex 2.845250e+00 9.992041e+00 1.000000e+01
      endloop
   endfacet
   facet normal -7.217853e-01 6.921170e-01 0.000000e+00
      outer loop
         vertex 2.845250e+00 9.992041e+00 1.000000e+01
         vertex 2.845250e+00 9.992041e+00 0.000000e+00
         vertex 2.399251e+00 9.526923e+00 0.000000e+00
      endloop
   endfacet
   facet normal -7.217853e-01 6.921170e-01 0.000000e+00
      outer loop
         vertex 2.845250e+00 9.992041e+00 1.000000e+01
         vertex 2.399251e+00 9.526923e+00 0.000000e+00
         vertex 2.399251e+00 9.526923e+00 1.000000e+01
      endloop
   endfacet
   facet normal -8.235501e-01 5.672436e-01 0.000000e+00
      outer loop
         vertex 2.399251e+00 9.526923e+00 1.000000e+01
         vertex 2.399251e+00 9.526923e+00 0.000000e+00
         vertex 2.033718e+00 8.996226e+00 0.000000e+00
      endloop
   endfacet
   facet normal -8.235501e-01 5.672436e-01 0.000000e+00
      outer loop
         vertex 2.399251e+00 9.526923e+00 1.000000e+01
         vertex 2.033718e+00 8.996226e+00 0.000000e+00
         vertex 2.033718e+00 8.996226e+00 1.000000e+01
      endloop
   endfacet
   facet normal -9.039527e-01 4.276325e-01 0.000000e+00
      outer loop
         vertex 2.033718e+00 8.996226e+00 1.000000e+01
         vertex 2.033718e+00 8.996226e+00 0.000000e+00
         vertex 1.758151e+00 8.413717e+00 0.000000e+00
      endloop
   endfacet
   facet normal -9.039527e-01 4.276325e-01 0.000000e+00
      outer loop
         vertex 2.033718e+00 8.996226e+00 1.000000e+01
         vertex 1.758151e+00 8.413717e+00 0.000000e+00
         vertex 1.758151e+00 8.413717e+00 1.000000e+01
      endloop
   endfacet
   facet normal -9.608918e-01 2.769240e-01 0.000000e+00
      outer loop
         vertex 1.758151e+00 8.413717e+00 1.000000e+01
         vertex 1.758151e+00 8.413717e+00 0.000000e+00
         vertex 1.579702e+00 7.794522e+00 0.000000e+00
      endloop
   endfacet
   facet normal -9.608918e-01 2.769240e-01 0.000000e+00
      outer loop
         vertex 1.758151e+00 8.413717e+00 1.000000e+01
         vertex 1.579702e+00 7.794522e+00 0.000000e+00
         vertex 1.579702e+00 7.794522e+00 1.000000e+01
      endloop
   endfacet
   facet normal 0.000000e+00 -0.000000e+00 -1.000000e+00
      outer loop
         vertex 4.403982e+00 5.903989e+00 0.000000e+00
         vertex 4.724998e+00 5.657665e+00 0.000000e+00
         vertex 0.000000e+00 0.000000e+00 0.000000e+00
      endloop
   endfacet
   facet normal 0.000000e+00 -0.000000e+00 -1.000000e+00
      outer loop
         vertex 1.579702e+00 7.794522e+00 0.000000e+00
         vertex 4.002813e+00 6.598830e+00 0.000000e+00
         vertex 0.000000e+00 0.000000e+00 0.000000e+00
      endloop
   endfacet
   facet normal 0.000000e+00 0.000000e+00 -1.000000e+00
      outer loop
         vertex 0.000000e+00 0.000000e+00 0.000000e+00
         vertex 4.002813e+00 6.598830e+00 0.000000e+00
         vertex 4.157659e+00 6.225005e+00 0.000000e+00
      endloop
   endfacet
   facet normal 0.000000e+00 0.000000e+00 -1.000000e+00
      outer loop
         vertex 0.000000e+00 0.000000e+00 0.000000e+00
         vertex 4.157659e+00 6.225005e+00 0.000000e+00
         vertex 4.403982e+00 5.903989e+00 0.000000e+00
      endloop
   endfacet
   facet normal 0.000000e+00 -0.000000e+00 -1.000000e+00
      outer loop
         vertex 4.724998e+00 5.657665e+00 0.000000e+00
         vertex 5.098831e+00 5.502820e+00 0.000000e+00
         vertex 0.000000e+00 0.000000e+00 0.000000e+00
      endloop
   endfacet
   facet normal 0.000000e+00 0.000000e+00 -1.000000e+00
      outer loop
         vertex 0.000000e+00 0.000000e+00 0.000000e+00
         vertex 5.098831e+00 5.502820e+00 0.000000e+00
         vertex 5.500000e+00 5.450003e+00 0.000000e+00
      endloop
   endfacet
   facet normal 0.000000e+00 0.000000e+00 -1.000000e+00
      outer loop
         vertex 0.000000e+00 0.000000e+00 0.000000e+00
         vertex 5.500000e+00 5.450003e+00 0.000000e+00
         vertex 1.100000e+01 0.000000e+00 0.000000e+00
      endloop
   endfacet
   facet normal 0.000000e+00 0.000000e+00 -1.000000e+00
      outer loop
         vertex 1.100000e+01 0.000000e+00 0.000000e+00
         vertex 5.500000e+00 5.450003e+00 0.000000e+00
         vertex 5.901169e+00 5.502820e+00 0.000000e+00
      endloop
   endfacet
   facet normal 0.000000e+00 0.000000e+00 -1.000000e+00
      outer loop
         vertex 1.100000e+01 0.000000e+00 0.000000e+00
         vertex 5.901169e+00 5.502820e+00 0.000000e+00
         vertex 6.274998e+00 5.657665e+00 0.000000e+00
      endloop
   endfacet
   facet normal 0.000000e+00 0.000000e+00 -1.000000e+00
      outer loop
         vertex 6.274998e+00 5.657665e+00 0.000000e+00
         vertex 6.596014e+00 5.903989e+00 0.000000e+00
         vertex 1.100000e+01 0.000000e+00 0.000000e+00
      endloop
   endfacet
   facet normal 0.000000e+00 0.000000e+00 -1.000000e+00
      outer loop
         vertex 1.100000e+01 0.000000e+00 0.000000e+00
         vertex 6.596014e+00 5.903989e+00 0.000000e+00
         vertex 6.842338e+00 6.225005e+00 0.000000e+00
      endloop
   endfacet
   facet normal 0.000000e+00 0.000000e+00 -1.000000e+00
      outer loop
         vertex 1.100000e+01 0.000000e+00 0.000000e+00
         vertex 6.842338e+00 6.225005e+00 0.000000e+00
         vertex 9.420298e+00 7.794522e+00 0.000000e+00
      endloop
   endfacet
   facet normal 0.000000e+00 0.000000e+00 -1.000000e+00
      outer loop
         vertex 9.420298e+00 7.794522e+00 0.000000e+00
         vertex 6.842338e+00 6.225005e+00 0.000000e+00
         vertex 6.997183e+00 6.598830e+00 0.000000e+00
      endloop
   endfacet
   facet normal 0.000000e+00 0.000000e+00 -1.000000e+00
      outer loop
         vertex 6.997183e+00 6.598830e+00 0.000000e+00
         vertex 7.050000e+00 6.999999e+00 0.000000e+00
         vertex 9.420298e+00 7.794522e+00 0.000000e+00
      endloop
   endfacet
   facet normal 0.000000e+00 0.000000e+00 -1.000000e+00
      outer loop
         vertex 9.420298e+00 7.794522e+00 0.000000e+00
         vertex 7.050000e+00 6.999999e+00 0.000000e+00
         vertex 6.997183e+00 7.401168e+00 0.000000e+00
      endloop
   endfacet
   facet normal -0.000000e+00 0.000000e+00 -1.000000e+00
      outer loop
         vertex 9.420298e+00 7.794522e+00 0.000000e+00
         vertex 6.997183e+00 7.401168e+00 0.000000e+00
         vertex 9.241842e+00 8.413717e+00 0.000000e+00
      endloop
   endfacet
   facet normal 0.000000e+00 0.000000e+00 -1.000000e+00
      outer loop
         vertex 9.241842e+00 8.413717e+00 0.000000e+00
         vertex 6.997183e+00 7.401168e+00 0.000000e+00
         vertex 6.842338e+00 7.775001e+00 0.000000e+00
      endloop
   endfacet
   facet normal 0.000000e+00 0.000000e+00 -1.000000e+00
      outer loop
         vertex 5.901169e+00 8.497186e+00 0.000000e+00
         vertex 7.069405e+00 1.067926e+01 0.000000e+00
         vertex 6.274998e+00 8.342341e+00 0.000000e+00
      endloop
   endfacet
   facet normal 0.000000e+00 0.000000e+00 -1.000000e+00
      outer loop
         vertex 6.274998e+00 8.342341e+00 0.000000e+00
         vertex 7.069405e+00 1.067926e+01 0.000000e+00
         vertex 7.639844e+00 1.037951e+01 0.000000e+00
      endloop
   endfacet
   facet normal 0.000000e+00 0.000000e+00 -1.000000e+00
      outer loop
         vertex 6.274998e+00 8.342341e+00 0.000000e+00
         vertex 7.639844e+00 1.037951e+01 0.000000e+00
         vertex 6.596014e+00 8.096017e+00 0.000000e+00
      endloop
   endfacet
   facet normal 0.000000e+00 -0.000000e+00 -1.000000e+00
      outer loop
         vertex 7.639844e+00 1.037951e+01 0.000000e+00
         vertex 8.154746e+00 9.992041e+00 0.000000e+00
         vertex 6.596014e+00 8.096017e+00 0.000000e+00
      endloop
   endfacet
   facet normal 0.000000e+00 0.000000e+00 -1.000000e+00
      outer loop
         vertex 6.596014e+00 8.096017e+00 0.000000e+00
         vertex 8.154746e+00 9.992041e+00 0.000000e+00
         vertex 8.600749e+00 9.526923e+00 0.000000e+00
      endloop
   endfacet
   facet normal 0.000000e+00 0.000000e+00 -1.000000e+00
      outer loop
         vertex 6.596014e+00 8.096017e+00 0.000000e+00
         vertex 8.600749e+00 9.526923e+00 0.000000e+00
         vertex 6.842338e+00 7.775001e+00 0.000000e+00
      endloop
   endfacet
   facet normal 0.000000e+00 0.000000e+00 -1.000000e+00
      outer loop
         vertex 6.842338e+00 7.775001e+00 0.000000e+00
         vertex 8.600749e+00 9.526923e+00 0.000000e+00
         vertex 8.966278e+00 8.996226e+00 0.000000e+00
      endloop
   endfacet
   facet normal 0.000000e+00 0.000000e+00 -1.000000e+00
      outer loop
         vertex 6.842338e+00 7.775001e+00 0.000000e+00
         vertex 8.966278e+00 8.996226e+00 0.000000e+00
         vertex 9.241842e+00 8.413717e+00 0.000000e+00
      endloop
   endfacet
   facet normal -0.000000e+00 0.000000e+00 -1.000000e+00
      outer loop
         vertex 4.724998e+00 8.342341e+00 0.000000e+00
         vertex 4.403982e+00 8.096017e+00 0.000000e+00
         vertex 2.845250e+00 9.992041e+00 0.000000e+00
      endloop
   endfacet
   facet normal 0.000000e+00 -0.000000e+00 -1.000000e+00
      outer loop
         vertex 2.845250e+00 9.992041e+00 0.000000e+00
         vertex 4.403982e+00 8.096017e+00 0.000000e+00
         vertex 2.399251e+00 9.526923e+00 0.000000e+00
      endloop
   endfacet
   facet normal 0.000000e+00 0.000000e+00 -1.000000e+00
      outer loop
         vertex 2.399251e+00 9.526923e+00 0.000000e+00
         vertex 4.403982e+00 8.096017e+00 0.000000e+00
         vertex 4.157659e+00 7.775001e+00 0.000000e+00
      endloop
   endfacet
   facet normal 0.000000e+00 -0.000000e+00 -1.000000e+00
      outer loop
         vertex 2.399251e+00 9.526923e+00 0.000000e+00
         vertex 4.157659e+00 7.775001e+00 0.000000e+00
         vertex 2.033718e+00 8.996226e+00 0.000000e+00
      endloop
   endfacet
   facet normal 0.000000e+00 0.000000e+00 -1.000000e+00
      outer loop
         vertex 2.845250e+00 9.992041e+00 0.000000e+00
         vertex 3.360152e+00 1.037951e+01 0.000000e+00
         vertex 4.724998e+00 8.342341e+00 0.000000e+00
      endloop
   endfacet
   facet normal 0.000000e+00 0.000000e+00 -1.000000e+00
      outer loop
         vertex 4.724998e+00 8.342341e+00 0.000000e+00
         vertex 3.360152e+00 1.037951e+01 0.000000e+00
         vertex 3.930591e+00 1.067926e+01 0.000000e+00
      endloop
   endfacet
   facet normal 0.000000e+00 0.000000e+00 -1.000000e+00
      outer loop
         vertex 4.724998e+00 8.342341e+00 0.000000e+00
         vertex 3.930591e+00 1.067926e+01 0.000000e+00
         vertex 5.098831e+00 8.497186e+00 0.000000e+00
      endloop
   endfacet
   facet normal 0.000000e+00 0.000000e+00 -1.000000e+00
      outer loop
         vertex 5.098831e+00 8.497186e+00 0.000000e+00
         vertex 3.930591e+00 1.067926e+01 0.000000e+00
         vertex 4.541758e+00 1.088353e+01 0.000000e+00
      endloop
   endfacet
   facet normal 0.000000e+00 0.000000e+00 -1.000000e+00
      outer loop
         vertex 5.098831e+00 8.497186e+00 0.000000e+00
         vertex 4.541758e+00 1.088353e+01 0.000000e+00
         vertex 5.500000e+00 8.550003e+00 0.000000e+00
      endloop
   endfacet
   facet normal 0.000000e+00 -0.000000e+00 -1.000000e+00
      outer loop
         vertex 2.033718e+00 8.996226e+00 0.000000e+00
         vertex 4.157659e+00 7.775001e+00 0.000000e+00
         vertex 1.758151e+00 8.413717e+00 0.000000e+00
      endloop
   endfacet
   facet normal 0.000000e+00 0.000000e+00 -1.000000e+00
      outer loop
         vertex 1.758151e+00 8.413717e+00 0.000000e+00
         vertex 4.157659e+00 7.775001e+00 0.000000e+00
         vertex 4.002813e+00 7.401168e+00 0.000000e+00
      endloop
   endfacet
   facet normal 0.000000e+00 -0.000000e+00 -1.000000e+00
      outer loop
         vertex 1.758151e+00 8.413717e+00 0.000000e+00
         vertex 4.002813e+00 7.401168e+00 0.000000e+00
         vertex 1.579702e+00 7.794522e+00 0.000000e+00
      endloop
   endfacet
   facet normal 0.000000e+00 0.000000e+00 -1.000000e+00
      outer loop
         vertex 1.579702e+00 7.794522e+00 0.000000e+00
         vertex 4.002813e+00 7.401168e+00 0.000000e+00
         vertex 3.950000e+00 6.999999e+00 0.000000e+00
      endloop
   endfacet
   facet normal 0.000000e+00 0.000000e+00 -1.000000e+00
      outer loop
         vertex 1.579702e+00 7.794522e+00 0.000000e+00
         vertex 3.950000e+00 6.999999e+00 0.000000e+00
         vertex 4.002813e+00 6.598830e+00 0.000000e+00
      endloop
   endfacet
   facet normal 0.000000e+00 0.000000e+00 -1.000000e+00
      outer loop
         vertex 4.541758e+00 1.088353e+01 0.000000e+00
         vertex 5.177800e+00 1.098701e+01 0.000000e+00
         vertex 5.500000e+00 8.550003e+00 0.000000e+00
      endloop
   endfacet
   facet normal 0.000000e+00 0.000000e+00 -1.000000e+00
      outer loop
         vertex 5.500000e+00 8.550003e+00 0.000000e+00
         vertex 5.177800e+00 1.098701e+01 0.000000e+00
         vertex 5.822200e+00 1.098701e+01 0.000000e+00
      endloop
   endfacet
   facet normal 0.000000e+00 0.000000e+00 -1.000000e+00
      outer loop
         vertex 5.500000e+00 8.550003e+00 0.000000e+00
         vertex 5.822200e+00 1.098701e+01 0.000000e+00
         vertex 5.901169e+00 8.497186e+00 0.000000e+00
      endloop
   endfacet
   facet normal 0.000000e+00 0.000000e+00 -1.000000e+00
      outer loop
         vertex 5.901169e+00 8.497186e+00 0.000000e+00
         vertex 5.822200e+00 1.098701e+01 0.000000e+00
         vertex 6.458238e+00 1.088353e+01 0.000000e+00
      endloop
   endfacet
   facet normal 0.000000e+00 0.000000e+00 -1.000000e+00
      outer loop
         vertex 5.901169e+00 8.497186e+00 0.000000e+00
         vertex 6.458238e+00 1.088353e+01 0.000000e+00
         vertex 7.069405e+00 1.067926e+01 0.000000e+00
      endloop
   endfacet
   facet normal 9.914453e-01 -1.305226e-01 0.000000e+00
      outer loop
         vertex 3.950000e+00 6.999999e+00 1.000000e+01
         vertex 3.950000e+00 6.999999e+00 0.000000e+00
         vertex 4.002813e+00 7.401168e+00 1.000000e+01
      endloop
   endfacet
   facet normal 9.914453e-01 -1.305226e-01 0.000000e+00
      outer loop
         vertex 4.002813e+00 7.401168e+00 1.000000e+01
         vertex 3.950000e+00 6.999999e+00 0.000000e+00
         vertex 4.002813e+00 7.401168e+00 0.000000e+00
      endloop
   endfacet
   facet normal 9.238806e-01 -3.826808e-01 0.000000e+00
      outer loop
         vertex 4.002813e+00 7.401168e+00 1.000000e+01
         vertex 4.002813e+00 7.401168e+00 0.000000e+00
         vertex 4.157659e+00 7.775001e+00 1.000000e+01
      endloop
   endfacet
   facet normal 9.238806e-01 -3.826808e-01 0.000000e+00
      outer loop
         vertex 4.157659e+00 7.775001e+00 1.000000e+01
         vertex 4.002813e+00 7.401168e+00 0.000000e+00
         vertex 4.157659e+00 7.775001e+00 0.000000e+00
      endloop
   endfacet
   facet normal 7.933538e-01 -6.087608e-01 0.000000e+00
      outer loop
         vertex 4.157659e+00 7.775001e+00 1.000000e+01
         vertex 4.157659e+00 7.775001e+00 0.000000e+00
         vertex 4.403982e+00 8.096017e+00 1.000000e+01
      endloop
   endfacet
   facet normal 7.933538e-01 -6.087608e-01 0.000000e+00
      outer loop
         vertex 4.403982e+00 8.096017e+00 1.000000e+01
         vertex 4.157659e+00 7.775001e+00 0.000000e+00
         vertex 4.403982e+00 8.096017e+00 0.000000e+00
      endloop
   endfacet
   facet normal 6.087608e-01 -7.933538e-01 0.000000e+00
      outer loop
         vertex 4.403982e+00 8.096017e+00 1.000000e+01
         vertex 4.403982e+00 8.096017e+00 0.000000e+00
         vertex 4.724998e+00 8.342341e+00 1.000000e+01
      endloop
   endfacet
   facet normal 6.087608e-01 -7.933538e-01 0.000000e+00
      outer loop
         vertex 4.724998e+00 8.342341e+00 1.000000e+01
         vertex 4.403982e+00 8.096017e+00 0.000000e+00
         vertex 4.724998e+00 8.342341e+00 0.000000e+00
      endloop
   endfacet
   facet normal 3.826808e-01 -9.238806e-01 0.000000e+00
      outer loop
         vertex 4.724998e+00 8.342341e+00 1.000000e+01
         vertex 4.724998e+00 8.342341e+00 0.000000e+00
         vertex 5.098831e+00 8.497186e+00 1.000000e+01
      endloop
   endfacet
   facet normal 3.826808e-01 -9.238806e-01 0.000000e+00
      outer loop
         vertex 5.098831e+00 8.497186e+00 1.000000e+01
         vertex 4.724998e+00 8.342341e+00 0.000000e+00
         vertex 5.098831e+00 8.497186e+00 0.000000e+00
      endloop
   endfacet
   facet normal 1.305317e-01 -9.914441e-01 0.000000e+00
      outer loop
         vertex 5.098831e+00 8.497186e+00 1.000000e+01
         vertex 5.098831e+00 8.497186e+00 0.000000e+00
         vertex 5.500000e+00 8.550003e+00 1.000000e+01
      endloop
   endfacet
   facet normal 1.305317e-01 -9.914441e-01 0.000000e+00
      outer loop
         vertex 5.500000e+00 8.550003e+00 1.000000e+01
         vertex 5.098831e+00 8.497186e+00 0.000000e+00
         vertex 5.500000e+00 8.550003e+00 0.000000e+00
      endloop
   endfacet
   facet normal -1.305317e-01 -9.914441e-01 -0.000000e+00
      outer loop
         vertex 5.500000e+00 8.550003e+00 1.000000e+01
         vertex 5.500000e+00 8.550003e+00 0.000000e+00
         vertex 5.901169e+00 8.497186e+00 1.000000e+01
      endloop
   endfacet
   facet normal -1.305317e-01 -9.914441e-01 -0.000000e+00
      outer loop
         vertex 5.901169e+00 8.497186e+00 1.000000e+01
         vertex 5.500000e+00 8.550003e+00 0.000000e+00
         vertex 5.901169e+00 8.497186e+00 0.000000e+00
      endloop
   endfacet
   facet normal -3.826841e-01 -9.238793e-01 -0.000000e+00
      outer loop
         vertex 5.901169e+00 8.497186e+00 1.000000e+01
         vertex 5.901169e+00 8.497186e+00 0.000000e+00
         vertex 6.274998e+00 8.342341e+00 1.000000e+01
      endloop
   endfacet
   facet normal -3.826841e-01 -9.238793e-01 -0.000000e+00
      outer loop
         vertex 6.274998e+00 8.342341e+00 1.000000e+01
         vertex 5.901169e+00 8.497186e+00 0.000000e+00
         vertex 6.274998e+00 8.342341e+00 0.000000e+00
      endloop
   endfacet
   facet normal -6.087608e-01 -7.933538e-01 -0.000000e+00
      outer loop
         vertex 6.274998e+00 8.342341e+00 1.000000e+01
         vertex 6.274998e+00 8.342341e+00 0.000000e+00
         vertex 6.596014e+00 8.096017e+00 1.000000e+01
      endloop
   endfacet
   facet normal -6.087608e-01 -7.933538e-01 -0.000000e+00
      outer loop
         vertex 6.596014e+00 8.096017e+00 1.000000e+01
         vertex 6.274998e+00 8.342341e+00 0.000000e+00
         vertex 6.596014e+00 8.096017e+00 0.000000e+00
      endloop
   endfacet
   facet normal -7.933538e-01 -6.087608e-01 -0.000000e+00
      outer loop
         vertex 6.596014e+00 8.096017e+00 1.000000e+01
         vertex 6.596014e+00 8.096017e+00 0.000000e+00
         vertex 6.842338e+00 7.775001e+00 1.000000e+01
      endloop
   endfacet
   facet normal -7.933538e-01 -6.087608e-01 -0.000000e+00
      outer loop
         vertex 6.842338e+00 7.775001e+00 1.000000e+01
         vertex 6.596014e+00 8.096017e+00 0.000000e+00
         vertex 6.842338e+00 7.775001e+00 0.000000e+00
      endloop
   endfacet
   facet normal -9.238806e-01 -3.826808e-01 -0.000000e+00
      outer loop
         vertex 6.842338e+00 7.775001e+00 1.000000e+01
         vertex 6.842338e+00 7.775001e+00 0.000000e+00
         vertex 6.997183e+00 7.401168e+00 1.000000e+01
      endloop
   endfacet
   facet normal -9.238806e-01 -3.826808e-01 -0.000000e+00
      outer loop
         vertex 6.997183e+00 7.401168e+00 1.000000e+01
         vertex 6.842338e+00 7.775001e+00 0.000000e+00
         vertex 6.997183e+00 7.401168e+00 0.000000e+00
      endloop
   endfacet
   facet normal -9.914441e-01 -1.305317e-01 -0.000000e+00
      outer loop
         vertex 6.997183e+00 7.401168e+00 1.000000e+01
         vertex 6.997183e+00 7.401168e+00 0.000000e+00
         vertex 7.050000e+00 6.999999e+00 1.000000e+01
      endloop
   endfacet
   facet normal -9.914441e-01 -1.305317e-01 -0.000000e+00
      outer loop
         vertex 7.050000e+00 6.999999e+00 1.000000e+01
         vertex 6.997183e+00 7.401168e+00 0.000000e+00
         vertex 7.050000e+00 6.999999e+00 0.000000e+00
      endloop
   endfacet
   facet normal -9.914441e-01 1.305317e-01 0.000000e+00
      outer loop
         vertex 7.050000e+00 6.999999e+00 1.000000e+01
         vertex 7.050000e+00 6.999999e+00 0.000000e+00
         vertex 6.997183e+00 6.598830e+00 1.000000e+01
      endloop
   endfacet
   facet normal -9.914441e-01 1.305317e-01 0.000000e+00
      outer loop
         vertex 6.997183e+00 6.598830e+00 1.000000e+01
         vertex 7.050000e+00 6.999999e+00 0.000000e+00
         vertex 6.997183e+00 6.598830e+00 0.000000e+00
      endloop
   endfacet
   facet normal -9.238779e-01 3.826873e-01 0.000000e+00
      outer loop
         vertex 6.997183e+00 6.598830e+00 1.000000e+01
         vertex 6.997183e+00 6.598830e+00 0.000000e+00
         vertex 6.842338e+00 6.225005e+00 1.000000e+01
      endloop
   endfacet
   facet normal -9.238779e-01 3.826873e-01 0.000000e+00
      outer loop
         vertex 6.842338e+00 6.225005e+00 1.000000e+01
         vertex 6.997183e+00 6.598830e+00 0.000000e+00
         vertex 6.842338e+00 6.225005e+00 0.000000e+00
      endloop
   endfacet
   facet normal -7.933538e-01 6.087608e-01 0.000000e+00
      outer loop
         vertex 6.842338e+00 6.225005e+00 1.000000e+01
         vertex 6.842338e+00 6.225005e+00 0.000000e+00
         vertex 6.596014e+00 5.903989e+00 1.000000e+01
      endloop
   endfacet
   facet normal -7.933538e-01 6.087608e-01 0.000000e+00
      outer loop
         vertex 6.596014e+00 5.903989e+00 1.000000e+01
         vertex 6.842338e+00 6.225005e+00 0.000000e+00
         vertex 6.596014e+00 5.903989e+00 0.000000e+00
      endloop
   endfacet
   facet normal -6.087608e-01 7.933538e-01 0.000000e+00
      outer loop
         vertex 6.596014e+00 5.903989e+00 1.000000e+01
         vertex 6.596014e+00 5.903989e+00 0.000000e+00
         vertex 6.274998e+00 5.657665e+00 1.000000e+01
      endloop
   endfacet
   facet normal -6.087608e-01 7.933538e-01 0.000000e+00
      outer loop
         vertex 6.274998e+00 5.657665e+00 1.000000e+01
         vertex 6.596014e+00 5.903989e+00 0.000000e+00
         vertex 6.274998e+00 5.657665e+00 0.000000e+00
      endloop
   endfacet
   facet normal -3.826841e-01 9.238793e-01 0.000000e+00
      outer loop
         vertex 6.274998e+00 5.657665e+00 1.000000e+01
         vertex 6.274998e+00 5.657665e+00 0.000000e+00
         vertex 5.901169e+00 5.502820e+00 1.000000e+01
      endloop
   endfacet
   facet normal -3.826841e-01 9.238793e-01 0.000000e+00
      outer loop
         vertex 5.901169e+00 5.502820e+00 1.000000e+01
         vertex 6.274998e+00 5.657665e+00 0.000000e+00
         vertex 5.901169e+00 5.502820e+00 0.000000e+00
      endloop
   endfacet
   facet normal -1.305317e-01 9.914441e-01 0.000000e+00
      outer loop
         vertex 5.901169e+00 5.502820e+00 1.000000e+01
         vertex 5.901169e+00 5.502820e+00 0.000000e+00
         vertex 5.500000e+00 5.450003e+00 1.000000e+01
      endloop
   endfacet
   facet normal -1.305317e-01 9.914441e-01 0.000000e+00
      outer loop
         vertex 5.500000e+00 5.450003e+00 1.000000e+01
         vertex 5.901169e+00 5.502820e+00 0.000000e+00
         vertex 5.500000e+00 5.450003e+00 0.000000e+00
      endloop
   endfacet
   facet normal 1.305317e-01 9.914441e-01 0.000000e+00
      outer loop
         vertex 5.500000e+00 5.450003e+00 1.000000e+01
         vertex 5.500000e+00 5.450003e+00 0.000000e+00
         vertex 5.098831e+00 5.502820e+00 1.000000e+01
      endloop
   endfacet
   facet normal 1.305317e-01 9.914441e-01 0.000000e+00
      outer loop
         vertex 5.098831e+00 5.502820e+00 1.000000e+01
         vertex 5.500000e+00 5.450003e+00 0.000000e+00
         vertex 5.098831e+00 5.502820e+00 0.000000e+00
      endloop
   endfacet
   facet normal 3.826808e-01 9.238806e-01 0.000000e+00
      outer loop
         vertex 5.098831e+00 5.502820e+00 1.000000e+01
         vertex 5.098831e+00 5.502820e+00 0.000000e+00
         vertex 4.724998e+00 5.657665e+00 1.000000e+01
      endloop
   endfacet
   facet normal 3.826808e-01 9.238806e-01 0.000000e+00
      outer loop
         vertex 4.724998e+00 5.657665e+00 1.000000e+01
         vertex 5.098831e+00 5.502820e+00 0.000000e+00
         vertex 4.724998e+00 5.657665e+00 0.000000e+00
      endloop
   endfacet
   facet normal 6.087608e-01 7.933538e-01 0.000000e+00
      outer loop
         vertex 4.724998e+00 5.657665e+00 1.000000e+01
         vertex 4.724998e+00 5.657665e+00 0.000000e+00
         vertex 4.403982e+00 5.903989e+00 1.000000e+01
      endloop
   endfacet
   facet normal 6.087608e-01 7.933538e-01 0.000000e+00
      outer loop
         vertex 4.403982e+00 5.903989e+00 1.000000e+01
         vertex 4.724998e+00 5.657665e+00 0.000000e+00
         vertex 4.403982e+00 5.903989e+00 0.000000e+00
      endloop
   endfacet
   facet normal 7.933538e-01 6.087608e-01 0.000000e+00
      outer loop
         vertex 4.403982e+00 5.903989e+00 1.000000e+01
         vertex 4.403982e+00 5.903989e+00 0.000000e+00
         vertex 4.157659e+00 6.225005e+00 1.000000e+01
      endloop
   endfacet
   facet normal 7.933538e-01 6.087608e-01 0.000000e+00
      outer loop
         vertex 4.157659e+00 6.225005e+00 1.000000e+01
         vertex 4.403982e+00 5.903989e+00 0.000000e+00
         vertex 4.157659e+00 6.225005e+00 0.000000e+00
      endloop
   endfacet
   facet normal 9.238779e-01 3.826873e-01 0.000000e+00
      outer loop
         vertex 4.157659e+00 6.225005e+00 1.000000e+01
         vertex 4.157659e+00 6.225005e+00 0.000000e+00
         vertex 4.002813e+00 6.598830e+00 1.000000e+01
      endloop
   endfacet
   facet normal 9.238779e-01 3.826873e-01 0.000000e+00
      outer loop
         vertex 4.002813e+00 6.598830e+00 1.000000e+01
         vertex 4.157659e+00 6.225005e+00 0.000000e+00
         vertex 4.002813e+00 6.598830e+00 0.000000e+00
      endloop
   endfacet
   facet normal 9.914453e-01 1.305226e-01 0.000000e+00
      outer loop
         vertex 4.002813e+00 6.598830e+00 1.000000e+01
         vertex 4.002813e+00 6.598830e+00 0.000000e+00
         vertex 3.950000e+00 6.999999e+00 1.000000e+01
      endloop
   endfacet
   facet normal 9.914453e-01 1.305226e-01 0.000000e+00
      outer loop
         vertex 3.950000e+00 6.999999e+00 1.000000e+01
         vertex 4.002813e+00 6.598830e+00 0.000000e+00
         vertex 3.950000e+00 6.999999e+00 0.000000e+00
      endloop
   endfacet
   facet normal -9.800746e-01 1.986297e-01 0.000000e+00
      outer loop
         vertex 1.114674e+00 5.500004e+00 1.200000e+01
         vertex 1.114674e+00 5.500004e+00 1.000000e+01
         vertex 6.080046e-01 3.000006e+00 7.000000e+00
      endloop
   endfacet
   facet normal -9.800749e-01 1.986282e-01 0.000000e+00
      outer loop
         vertex 6.080046e-01 3.000006e+00 7.000000e+00
         vertex 6.080046e-01 3.000006e+00 1.300000e+01
         vertex 9.120032e-01 4.500002e+00 1.300000e+01
      endloop
   endfacet
   facet normal -9.800744e-01 1.986308e-01 -1.002971e-06
      outer loop
         vertex 1.114674e+00 5.500004e+00 1.000000e+01
         vertex 1.579702e+00 7.794522e+00 1.000000e+01
         vertex 6.080046e-01 3.000006e+00 7.000000e+00
      endloop
   endfacet
   facet normal -9.800745e-01 1.986302e-01 0.000000e+00
      outer loop
         vertex 6.080046e-01 3.000006e+00 7.000000e+00
         vertex 1.579702e+00 7.794522e+00 1.000000e+01
         vertex 1.579702e+00 7.794522e+00 -3.469447e-15
      endloop
   endfacet
   facet normal -9.800746e-01 1.986296e-01 -4.665381e-07
      outer loop
         vertex 6.080046e-01 3.000006e+00 7.000000e+00
         vertex 1.579702e+00 7.794522e+00 -3.469447e-15
         vertex 0.000000e+00 0.000000e+00 7.000000e+00
      endloop
   endfacet
   facet normal -9.800746e-01 1.986300e-01 0.000000e+00
      outer loop
         vertex 0.000000e+00 0.000000e+00 7.000000e+00
         vertex 1.579702e+00 7.794522e+00 -3.469447e-15
         vertex 0.000000e+00 0.000000e+00 -3.469447e-15
      endloop
   endfacet
   facet normal -9.800743e-01 1.986312e-01 -7.762940e-07
      outer loop
         vertex 6.080046e-01 3.000006e+00 7.000000e+00
         vertex 9.120032e-01 4.500002e+00 1.300000e+01
         vertex 1.114674e+00 5.500004e+00 1.200000e+01
      endloop
   endfacet
   facet normal -9.800701e-01 1.986519e-01 2.078502e-05
      outer loop
         vertex 1.114674e+00 5.500004e+00 1.200000e+01
         vertex 9.120032e-01 4.500002e+00 1.300000e+01
         vertex 9.644628e-01 4.758820e+00 1.296593e+01
      endloop
   endfacet
   facet normal -9.800791e-01 1.986075e-01 -1.469715e-05
      outer loop
         vertex 1.114674e+00 5.500004e+00 1.200000e+01
         vertex 9.644628e-01 4.758820e+00 1.296593e+01
         vertex 1.013339e+00 5.000003e+00 1.286603e+01
      endloop
   endfacet
   facet normal -9.800696e-01 1.986547e-01 1.367451e-05
      outer loop
         vertex 1.013339e+00 5.000003e+00 1.286603e+01
         vertex 1.055315e+00 5.207106e+00 1.270711e+01
         vertex 1.114674e+00 5.500004e+00 1.200000e+01
      endloop
   endfacet
   facet normal -9.800712e-01 1.986465e-01 1.016914e-05
      outer loop
         vertex 1.114674e+00 5.500004e+00 1.200000e+01
         vertex 1.055315e+00 5.207106e+00 1.270711e+01
         vertex 1.087524e+00 5.366027e+00 1.250000e+01
      endloop
   endfacet
   facet normal -9.800823e-01 1.985917e-01 -5.114734e-06
      outer loop
         vertex 1.114674e+00 5.500004e+00 1.200000e+01
         vertex 1.087524e+00 5.366027e+00 1.250000e+01
         vertex 1.107767e+00 5.465925e+00 1.225882e+01
      endloop
   endfacet
   facet normal 0.000000e+00 -1.000000e+00 0.000000e+00
      outer loop
         vertex 0.000000e+00 0.000000e+00 7.000000e+00
         vertex 0.000000e+00 0.000000e+00 0.000000e+00
         vertex 1.100000e+01 0.000000e+00 7.000000e+00
      endloop
   endfacet
   facet normal 0.000000e+00 -1.000000e+00 -0.000000e+00
      outer loop
         vertex 1.100000e+01 0.000000e+00 7.000000e+00
         vertex 0.000000e+00 0.000000e+00 0.000000e+00
         vertex 1.100000e+01 0.000000e+00 0.000000e+00
      endloop
   endfacet
   facet normal 9.800744e-01 1.986305e-01 0.000000e+00
      outer loop
         vertex 1.008799e+01 4.500002e+00 1.300000e+01
         vertex 1.039200e+01 3.000006e+00 1.300000e+01
         vertex 1.039200e+01 3.000006e+00 7.000000e+00
      endloop
   endfacet
   facet normal 9.800746e-01 1.986296e-01 0.000000e+00
      outer loop
         vertex 1.039200e+01 3.000006e+00 7.000000e+00
         vertex 1.100000e+01 0.000000e+00 7.000000e+00
         vertex 1.100000e+01 0.000000e+00 -3.469447e-15
      endloop
   endfacet
   facet normal 9.800747e-01 1.986293e-01 -0.000000e+00
      outer loop
         vertex 9.420298e+00 7.794522e+00 -3.469447e-15
         vertex 9.420298e+00 7.794522e+00 1.000000e+01
         vertex 9.885322e+00 5.500004e+00 1.000000e+01
      endloop
   endfacet
   facet normal 9.800746e-01 1.986300e-01 -1.795642e-07
      outer loop
         vertex 1.100000e+01 0.000000e+00 -3.469447e-15
         vertex 9.420298e+00 7.794522e+00 -3.469447e-15
         vertex 1.039200e+01 3.000006e+00 7.000000e+00
      endloop
   endfacet
   facet normal 9.800744e-01 1.986307e-01 3.324936e-07
      outer loop
         vertex 1.039200e+01 3.000006e+00 7.000000e+00
         vertex 9.420298e+00 7.794522e+00 -3.469447e-15
         vertex 9.885322e+00 5.500004e+00 1.000000e+01
      endloop
   endfacet
   facet normal 9.800743e-01 1.986313e-01 -2.067755e-07
      outer loop
         vertex 1.039200e+01 3.000006e+00 7.000000e+00
         vertex 9.885322e+00 5.500004e+00 1.000000e+01
         vertex 1.008799e+01 4.500002e+00 1.300000e+01
      endloop
   endfacet
   facet normal 9.800742e-01 1.986319e-01 0.000000e+00
      outer loop
         vertex 1.008799e+01 4.500002e+00 1.300000e+01
         vertex 9.885322e+00 5.500004e+00 1.000000e+01
         vertex 9.885322e+00 5.500004e+00 1.200000e+01
      endloop
   endfacet
   facet normal 9.800733e-01 1.986363e-01 4.539641e-06
      outer loop
         vertex 1.008799e+01 4.500002e+00 1.300000e+01
         vertex 9.885322e+00 5.500004e+00 1.200000e+01
         vertex 1.003554e+01 4.758820e+00 1.296593e+01
      endloop
   endfacet
   facet normal 9.800752e-01 1.986266e-01 -3.209971e-06
      outer loop
         vertex 1.003554e+01 4.758820e+00 1.296593e+01
         vertex 9.885322e+00 5.500004e+00 1.200000e+01
         vertex 9.986658e+00 5.000003e+00 1.286603e+01
      endloop
   endfacet
   facet normal 9.800719e-01 1.986432e-01 1.940370e-06
      outer loop
         vertex 9.892229e+00 5.465925e+00 1.225882e+01
         vertex 9.912476e+00 5.366027e+00 1.250000e+01
         vertex 9.885322e+00 5.500004e+00 1.200000e+01
      endloop
   endfacet
   facet normal 9.800740e-01 1.986325e-01 -1.051004e-06
      outer loop
         vertex 9.885322e+00 5.500004e+00 1.200000e+01
         vertex 9.912476e+00 5.366027e+00 1.250000e+01
         vertex 9.944685e+00 5.207106e+00 1.270711e+01
      endloop
   endfacet
   facet normal 9.800757e-01 1.986243e-01 -4.599499e-06
      outer loop
         vertex 9.885322e+00 5.500004e+00 1.200000e+01
         vertex 9.944685e+00 5.207106e+00 1.270711e+01
         vertex 9.986658e+00 5.000003e+00 1.286603e+01
      endloop
   endfacet
   facet normal -0.000000e+00 -1.000000e+00 -0.000000e+00
      outer loop
         vertex 2.608001e+00 3.000006e+00 1.300000e+01
         vertex 6.080046e-01 3.000006e+00 1.300000e+01
         vertex 2.608001e+00 3.000006e+00 1.000000e+01
      endloop
   endfacet
   facet normal -0.000000e+00 -1.000000e+00 0.000000e+00
      outer loop
         vertex 2.608001e+00 3.000006e+00 1.000000e+01
         vertex 6.080046e-01 3.000006e+00 1.300000e+01
         vertex 6.080046e-01 3.000006e+00 7.000000e+00
      endloop
   endfacet
   facet normal 0.000000e+00 -1.000000e+00 -0.000000e+00
      outer loop
         vertex 2.608001e+00 3.000006e+00 1.000000e+01
         vertex 6.080046e-01 3.000006e+00 7.000000e+00
         vertex 8.391995e+00 3.000006e+00 1.000000e+01
      endloop
   endfacet
   facet normal 0.000000e+00 -1.000000e+00 -0.000000e+00
      outer loop
         vertex 8.391995e+00 3.000006e+00 1.000000e+01
         vertex 6.080046e-01 3.000006e+00 7.000000e+00
         vertex 1.039200e+01 3.000006e+00 7.000000e+00
      endloop
   endfacet
   facet normal 0.000000e+00 -1.000000e+00 0.000000e+00
      outer loop
         vertex 8.391995e+00 3.000006e+00 1.000000e+01
         vertex 1.039200e+01 3.000006e+00 7.000000e+00
         vertex 8.391995e+00 3.000006e+00 1.300000e+01
      endloop
   endfacet
   facet normal 0.000000e+00 -1.000000e+00 0.000000e+00
      outer loop
         vertex 8.391995e+00 3.000006e+00 1.300000e+01
         vertex 1.039200e+01 3.000006e+00 7.000000e+00
         vertex 1.039200e+01 3.000006e+00 1.300000e+01
      endloop
   endfacet
   facet normal -0.000000e+00 0.000000e+00 1.000000e+00
      outer loop
         vertex 6.080046e-01 3.000006e+00 7.000000e+00
         vertex 0.000000e+00 0.000000e+00 7.000000e+00
         vertex 1.039200e+01 3.000006e+00 7.000000e+00
      endloop
   endfacet
   facet normal 0.000000e+00 0.000000e+00 1.000000e+00
      outer loop
         vertex 1.039200e+01 3.000006e+00 7.000000e+00
         vertex 0.000000e+00 0.000000e+00 7.000000e+00
         vertex 1.100000e+01 0.000000e+00 7.000000e+00
      endloop
   endfacet
   facet normal 1.000000e+00 0.000000e+00 0.000000e+00
      outer loop
         vertex 2.608001e+00 3.000006e+00 1.000000e+01
         vertex 2.608001e+00 5.500004e+00 1.000000e+01
         vertex 2.608001e+00 3.000006e+00 1.300000e+01
      endloop
   endfacet
   facet normal 1.000000e+00 0.000000e+00 0.000000e+00
      outer loop
         vertex 2.608001e+00 3.000006e+00 1.300000e+01
         vertex 2.608001e+00 5.500004e+00 1.000000e+01
         vertex 2.608001e+00 5.500004e+00 1.200000e+01
      endloop
   endfacet
   facet normal 1.000000e+00 -0.000000e+00 0.000000e+00
      outer loop
         vertex 2.608001e+00 3.000006e+00 1.300000e+01
         vertex 2.608001e+00 5.500004e+00 1.200000e+01
         vertex 2.608001e+00 4.500002e+00 1.300000e+01
      endloop
   endfacet
   facet normal 1.000000e+00 0.000000e+00 0.000000e+00
      outer loop
         vertex 2.608001e+00 4.500002e+00 1.300000e+01
         vertex 2.608001e+00 5.500004e+00 1.200000e+01
         vertex 2.608001e+00 4.758820e+00 1.296593e+01
      endloop
   endfacet
   facet normal 1.000000e+00 0.000000e+00 0.000000e+00
      outer loop
         vertex 2.608001e+00 5.465925e+00 1.225882e+01
         vertex 2.608001e+00 5.366027e+00 1.250000e+01
         vertex 2.608001e+00 5.207106e+00 1.270711e+01
      endloop
   endfacet
   facet normal 1.000000e+00 0.000000e+00 0.000000e+00
      outer loop
         vertex 2.608001e+00 5.465925e+00 1.225882e+01
         vertex 2.608001e+00 5.207106e+00 1.270711e+01
         vertex 2.608001e+00 5.500004e+00 1.200000e+01
      endloop
   endfacet
   facet normal 1.000000e+00 0.000000e+00 0.000000e+00
      outer loop
         vertex 2.608001e+00 5.500004e+00 1.200000e+01
         vertex 2.608001e+00 5.207106e+00 1.270711e+01
         vertex 2.608001e+00 5.000003e+00 1.286603e+01
      endloop
   endfacet
   facet normal 1.000000e+00 0.000000e+00 0.000000e+00
      outer loop
         vertex 2.608001e+00 5.500004e+00 1.200000e+01
         vertex 2.608001e+00 5.000003e+00 1.286603e+01
         vertex 2.608001e+00 4.758820e+00 1.296593e+01
      endloop
   endfacet
   facet normal 0.000000e+00 1.000000e+00 0.000000e+00
      outer loop
         vertex 2.608001e+00 5.500004e+00 1.200000e+01
         vertex 2.608001e+00 5.500004e+00 1.000000e+01
         vertex 1.114674e+00 5.500004e+00 1.200000e+01
      endloop
   endfacet
   facet normal 0.000000e+00 1.000000e+00 0.000000e+00
      outer loop
         vertex 1.114674e+00 5.500004e+00 1.200000e+01
         vertex 2.608001e+00 5.500004e+00 1.000000e+01
         vertex 1.114674e+00 5.500004e+00 1.000000e+01
      endloop
   endfacet
   facet normal -0.000000e+00 0.000000e+00 1.000000e+00
      outer loop
         vertex 9.120032e-01 4.500002e+00 1.300000e+01
         vertex 6.080046e-01 3.000006e+00 1.300000e+01
         vertex 2.608001e+00 4.500002e+00 1.300000e+01
      endloop
   endfacet
   facet normal 0.000000e+00 0.000000e+00 1.000000e+00
      outer loop
         vertex 2.608001e+00 4.500002e+00 1.300000e+01
         vertex 6.080046e-01 3.000006e+00 1.300000e+01
         vertex 2.608001e+00 3.000006e+00 1.300000e+01
      endloop
   endfacet
   facet normal 0.000000e+00 1.000000e+00 0.000000e+00
      outer loop
         vertex 9.885322e+00 5.500004e+00 1.200000e+01
         vertex 9.885322e+00 5.500004e+00 1.000000e+01
         vertex 8.391995e+00 5.500004e+00 1.200000e+01
      endloop
   endfacet
   facet normal 0.000000e+00 1.000000e+00 0.000000e+00
      outer loop
         vertex 8.391995e+00 5.500004e+00 1.200000e+01
         vertex 9.885322e+00 5.500004e+00 1.000000e+01
         vertex 8.391995e+00 5.500004e+00 1.000000e+01
      endloop
   endfacet
   facet normal -1.000000e+00 0.000000e+00 -0.000000e+00
      outer loop
         vertex 8.391995e+00 5.500004e+00 1.200000e+01
         vertex 8.391995e+00 5.500004e+00 1.000000e+01
         vertex 8.391995e+00 3.000006e+00 1.000000e+01
      endloop
   endfacet
   facet normal -1.000000e+00 0.000000e+00 0.000000e+00
      outer loop
         vertex 8.391995e+00 3.000006e+00 1.000000e+01
         vertex 8.391995e+00 3.000006e+00 1.300000e+01
         vertex 8.391995e+00 5.500004e+00 1.200000e+01
      endloop
   endfacet
   facet normal -1.000000e+00 0.000000e+00 0.000000e+00
      outer loop
         vertex 8.391995e+00 5.500004e+00 1.200000e+01
         vertex 8.391995e+00 3.000006e+00 1.300000e+01
         vertex 8.391995e+00 4.500002e+00 1.300000e+01
      endloop
   endfacet
   facet normal -1.000000e+00 0.000000e+00 0.000000e+00
      outer loop
         vertex 8.391995e+00 5.500004e+00 1.200000e+01
         vertex 8.391995e+00 4.500002e+00 1.300000e+01
         vertex 8.391995e+00 4.758820e+00 1.296593e+01
      endloop
   endfacet
   facet normal -1.000000e+00 -0.000000e+00 -0.000000e+00
      outer loop
         vertex 8.391995e+00 5.366027e+00 1.250000e+01
         vertex 8.391995e+00 5.465925e+00 1.225882e+01
         vertex 8.391995e+00 5.207106e+00 1.270711e+01
      endloop
   endfacet
   facet normal -1.000000e+00 0.000000e+00 0.000000e+00
      outer loop
         vertex 8.391995e+00 5.207106e+00 1.270711e+01
         vertex 8.391995e+00 5.465925e+00 1.225882e+01
         vertex 8.391995e+00 5.500004e+00 1.200000e+01
      endloop
   endfacet
   facet normal -1.000000e+00 -0.000000e+00 -0.000000e+00
      outer loop
         vertex 8.391995e+00 5.207106e+00 1.270711e+01
         vertex 8.391995e+00 5.500004e+00 1.200000e+01
         vertex 8.391995e+00 5.000003e+00 1.286603e+01
      endloop
   endfacet
   facet normal -1.000000e+00 -0.000000e+00 -0.000000e+00
      outer loop
         vertex 8.391995e+00 5.000003e+00 1.286603e+01
         vertex 8.391995e+00 5.500004e+00 1.200000e+01
         vertex 8.391995e+00 4.758820e+00 1.296593e+01
      endloop
   endfacet
   facet normal -0.000000e+00 0.000000e+00 1.000000e+00
      outer loop
         vertex 8.391995e+00 4.500002e+00 1.300000e+01
         vertex 8.391995e+00 3.000006e+00 1.300000e+01
         vertex 1.008799e+01 4.500002e+00 1.300000e+01
      endloop
   endfacet
   facet normal 0.000000e+00 0.000000e+00 1.000000e+00
      outer loop
         vertex 1.008799e+01 4.500002e+00 1.300000e+01
         vertex 8.391995e+00 3.000006e+00 1.300000e+01
         vertex 1.039200e+01 3.000006e+00 1.300000e+01
      endloop
   endfacet
   facet normal 0.000000e+00 9.914425e-01 1.305441e-01
      outer loop
         vertex 9.885322e+00 5.500004e+00 1.200000e+01
         vertex 8.391995e+00 5.500004e+00 1.200000e+01
         vertex 8.391995e+00 5.465925e+00 1.225882e+01
      endloop
   endfacet
   facet normal 0.000000e+00 9.914425e-01 1.305441e-01
      outer loop
         vertex 9.885322e+00 5.500004e+00 1.200000e+01
         vertex 8.391995e+00 5.465925e+00 1.225882e+01
         vertex 9.892229e+00 5.465925e+00 1.225882e+01
      endloop
   endfacet
   facet normal 0.000000e+00 9.238836e-01 3.826736e-01
      outer loop
         vertex 9.892229e+00 5.465925e+00 1.225882e+01
         vertex 8.391995e+00 5.465925e+00 1.225882e+01
         vertex 8.391995e+00 5.366027e+00 1.250000e+01
      endloop
   endfacet
   facet normal 0.000000e+00 9.238836e-01 3.826736e-01
      outer loop
         vertex 9.892229e+00 5.465925e+00 1.225882e+01
         vertex 8.391995e+00 5.366027e+00 1.250000e+01
         vertex 9.912476e+00 5.366027e+00 1.250000e+01
      endloop
   endfacet
   facet normal 0.000000e+00 7.933489e-01 6.087672e-01
      outer loop
         vertex 9.912476e+00 5.366027e+00 1.250000e+01
         vertex 8.391995e+00 5.366027e+00 1.250000e+01
         vertex 8.391995e+00 5.207106e+00 1.270711e+01
      endloop
   endfacet
   facet normal 0.000000e+00 7.933489e-01 6.087672e-01
      outer loop
         vertex 9.912476e+00 5.366027e+00 1.250000e+01
         vertex 8.391995e+00 5.207106e+00 1.270711e+01
         vertex 9.944685e+00 5.207106e+00 1.270711e+01
      endloop
   endfacet
   facet normal 0.000000e+00 6.087679e-01 7.933484e-01
      outer loop
         vertex 9.944685e+00 5.207106e+00 1.270711e+01
         vertex 8.391995e+00 5.207106e+00 1.270711e+01
         vertex 8.391995e+00 5.000003e+00 1.286603e+01
      endloop
   endfacet
   facet normal 0.000000e+00 6.087679e-01 7.933484e-01
      outer loop
         vertex 9.944685e+00 5.207106e+00 1.270711e+01
         vertex 8.391995e+00 5.000003e+00 1.286603e+01
         vertex 9.986658e+00 5.000003e+00 1.286603e+01
      endloop
   endfacet
   facet normal 0.000000e+00 3.826802e-01 9.238809e-01
      outer loop
         vertex 9.986658e+00 5.000003e+00 1.286603e+01
         vertex 8.391995e+00 5.000003e+00 1.286603e+01
         vertex 8.391995e+00 4.758820e+00 1.296593e+01
      endloop
   endfacet
   facet normal 0.000000e+00 3.826802e-01 9.238809e-01
      outer loop
         vertex 9.986658e+00 5.000003e+00 1.286603e+01
         vertex 8.391995e+00 4.758820e+00 1.296593e+01
         vertex 1.003554e+01 4.758820e+00 1.296593e+01
      endloop
   endfacet
   facet normal 0.000000e+00 1.305270e-01 9.914447e-01
      outer loop
         vertex 1.003554e+01 4.758820e+00 1.296593e+01
         vertex 8.391995e+00 4.758820e+00 1.296593e+01
         vertex 8.391995e+00 4.500002e+00 1.300000e+01
      endloop
   endfacet
   facet normal 0.000000e+00 1.305270e-01 9.914447e-01
      outer loop
         vertex 1.003554e+01 4.758820e+00 1.296593e+01
         vertex 8.391995e+00 4.500002e+00 1.300000e+01
         vertex 1.008799e+01 4.500002e+00 1.300000e+01
      endloop
   endfacet
   facet normal -0.000000e+00 1.305270e-01 9.914447e-01
      outer loop
         vertex 9.120032e-01 4.500002e+00 1.300000e+01
         vertex 2.608001e+00 4.500002e+00 1.300000e+01
         vertex 2.608001e+00 4.758820e+00 1.296593e+01
      endloop
   endfacet
   facet normal 0.000000e+00 1.305270e-01 9.914447e-01
      outer loop
         vertex 9.120032e-01 4.500002e+00 1.300000e+01
         vertex 2.608001e+00 4.758820e+00 1.296593e+01
         vertex 9.644628e-01 4.758820e+00 1.296593e+01
      endloop
   endfacet
   facet normal -0.000000e+00 3.826802e-01 9.238809e-01
      outer loop
         vertex 9.644628e-01 4.758820e+00 1.296593e+01
         vertex 2.608001e+00 4.758820e+00 1.296593e+01
         vertex 2.608001e+00 5.000003e+00 1.286603e+01
      endloop
   endfacet
   facet normal 0.000000e+00 3.826802e-01 9.238809e-01
      outer loop
         vertex 9.644628e-01 4.758820e+00 1.296593e+01
         vertex 2.608001e+00 5.000003e+00 1.286603e+01
         vertex 1.013339e+00 5.000003e+00 1.286603e+01
      endloop
   endfacet
   facet normal -0.000000e+00 6.087679e-01 7.933484e-01
      outer loop
         vertex 1.013339e+00 5.000003e+00 1.286603e+01
         vertex 2.608001e+00 5.000003e+00 1.286603e+01
         vertex 2.608001e+00 5.207106e+00 1.270711e+01
      endloop
   endfacet
   facet normal 0.000000e+00 6.087679e-01 7.933484e-01
      outer loop
         vertex 1.013339e+00 5.000003e+00 1.286603e+01
         vertex 2.608001e+00 5.207106e+00 1.270711e+01
         vertex 1.055315e+00 5.207106e+00 1.270711e+01
      endloop
   endfacet
   facet normal -0.000000e+00 7.933489e-01 6.087672e-01
      outer loop
         vertex 1.055315e+00 5.207106e+00 1.270711e+01
         vertex 2.608001e+00 5.207106e+00 1.270711e+01
         vertex 2.608001e+00 5.366027e+00 1.250000e+01
      endloop
   endfacet
   facet normal 0.000000e+00 7.933489e-01 6.087672e-01
      outer loop
         vertex 1.055315e+00 5.207106e+00 1.270711e+01
         vertex 2.608001e+00 5.366027e+00 1.250000e+01
         vertex 1.087524e+00 5.366027e+00 1.250000e+01
      endloop
   endfacet
   facet normal -0.000000e+00 9.238836e-01 3.826736e-01
      outer loop
         vertex 1.087524e+00 5.366027e+00 1.250000e+01
         vertex 2.608001e+00 5.366027e+00 1.250000e+01
         vertex 2.608001e+00 5.465925e+00 1.225882e+01
      endloop
   endfacet
   facet normal 0.000000e+00 9.238836e-01 3.826736e-01
      outer loop
         vertex 1.087524e+00 5.366027e+00 1.250000e+01
         vertex 2.608001e+00 5.465925e+00 1.225882e+01
         vertex 1.107767e+00 5.465925e+00 1.225882e+01
      endloop
   endfacet
   facet normal -0.000000e+00 9.914425e-01 1.305441e-01
      outer loop
         vertex 1.107767e+00 5.465925e+00 1.225882e+01
         vertex 2.608001e+00 5.465925e+00 1.225882e+01
         vertex 2.608001e+00 5.500004e+00 1.200000e+01
      endloop
   endfacet
   facet normal 0.000000e+00 9.914425e-01 1.305441e-01
      outer loop
         vertex 1.107767e+00 5.465925e+00 1.225882e+01
         vertex 2.608001e+00 5.500004e+00 1.200000e+01
         vertex 1.114674e+00 5.500004e+00 1.200000e+01
      endloop
   endfacet
endsolid